<mxfile host="app.diagrams.net" modified="2024-05-28T18:40:49.405Z" agent="Mozilla/5.0 (Windows NT 10.0; Win64; x64) AppleWebKit/537.36 (KHTML, like Gecko) Chrome/125.0.0.0 Safari/537.36" etag="Q8RgRQJhFVlDC4rzpSYr" version="24.4.9" type="device">
  <diagram name="Блок-схема алгоритму пошуку" id="Блок-схема_1">
    <mxGraphModel dx="2276" dy="1402" grid="1" gridSize="10" guides="1" tooltips="1" connect="1" arrows="1" fold="1" page="1" pageScale="1" pageWidth="1654" pageHeight="1169" background="#ffffff" math="0" shadow="0">
      <root>
        <mxCell id="0" />
        <mxCell id="1" parent="0" />
        <UserObject label="" tags="Фон" id="2">
          <mxCell style="vsdxID=3;fillColor=#FFFFFF;gradientColor=none;shape=stencil(UzV2Ls5ILEhVNTIoLinKz04tz0wpyVA1dlE1MsrMy0gtyiwBslSNXVWNndPyi1LTi/JL81Ig/IJEkEoQKze/DGRCBUSfAUiHkUElMs8NojAnMw+nQkMDcpUCGQi3QLyBLIfubqAQxM/GrgA=);strokeColor=#000000;strokeWidth=2;points=[];labelBackgroundColor=none;rounded=0;html=1;whiteSpace=wrap;" parent="1" vertex="1">
            <mxGeometry x="1639" y="9" width="1" height="1148" as="geometry" />
          </mxCell>
        </UserObject>
        <UserObject label="" tags="Фон" id="40">
          <mxCell style="vsdxID=4;edgeStyle=none;startArrow=none;endArrow=none;startSize=5;endSize=5;strokeWidth=2;strokeColor=#000000;spacingTop=0;spacingBottom=0;spacingLeft=0;spacingRight=0;verticalAlign=middle;html=1;labelBackgroundColor=none;rounded=0;" parent="1" edge="1">
            <mxGeometry relative="1" as="geometry">
              <Array as="points" />
              <mxPoint x="1640" y="1158" as="sourcePoint" />
              <mxPoint x="54" y="1155" as="targetPoint" />
            </mxGeometry>
          </mxCell>
        </UserObject>
        <UserObject label="" tags="Фон" id="42">
          <mxCell style="vsdxID=5;edgeStyle=none;startArrow=none;endArrow=none;startSize=5;endSize=5;strokeWidth=2;strokeColor=#000000;spacingTop=0;spacingBottom=0;spacingLeft=0;spacingRight=0;verticalAlign=middle;html=1;labelBackgroundColor=none;rounded=0;" parent="1" edge="1">
            <mxGeometry relative="1" as="geometry">
              <Array as="points" />
              <mxPoint x="54" y="1155" as="sourcePoint" />
              <mxPoint x="54" y="9" as="targetPoint" />
            </mxGeometry>
          </mxCell>
        </UserObject>
        <UserObject label="" tags="Фон" id="3">
          <mxCell style="vsdxID=6;fillColor=#FFFFFF;gradientColor=none;shape=stencil(rVBbDoAgDDvN/pEdwcc9SERZVCCIr9sLWYzGT+Nfu7bLOsByNsprkGKOwQ16ozYawAqkJGt0oJgQYA1Ydi7oPrjFtsy9ys6MJrfmDTvnRE5IcTArBPOGrSPZb9ZL/MOcwH08935q76JpxE/C+gQ=);strokeColor=#000000;strokeWidth=2;points=[];labelBackgroundColor=none;rounded=0;html=1;whiteSpace=wrap;" parent="1" vertex="1">
            <mxGeometry x="54" y="9" width="1586" height="1" as="geometry" />
          </mxCell>
        </UserObject>
        <UserObject label="&lt;div style=&quot;font-size: 1px&quot;&gt;&lt;/div&gt;" tags="Фон" id="5">
          <mxCell style="verticalAlign=middle;align=center;overflow=width;vsdxID=8;fillColor=#FFFFFF;gradientColor=none;shape=stencil(fY9LDoAgDERP0z3SI/i5B4koRAWD+Lu9NI3RGMNupn1tZgDLxahZgxRLDH7Qu22jAaxASuuMDjYmBVgDlp0Pug9+dS37WRFJavIbfTj4rhCCbqQ42bNrGB2ty6C3/4WzaBJPHq7y3n2zpxH3xvoC);strokeColor=#000000;strokeWidth=2;points=[];labelBackgroundColor=none;rounded=0;html=1;whiteSpace=wrap;" parent="1" vertex="1">
            <mxGeometry x="55" y="9" width="280" height="60" as="geometry" />
          </mxCell>
        </UserObject>
        <UserObject label="&lt;div style=&quot;font-size: 1px&quot;&gt;&lt;p style=&quot;text-align:center;margin-left:0;margin-right:0;margin-top:0px;margin-bottom:0px;text-indent:0;vertical-align:middle;direction:ltr;&quot;&gt;&lt;font style=&quot;font-size:16.93px;font-family:Arial;color:#ff0000;direction:ltr;letter-spacing:0px;line-height:120%;opacity:1&quot;&gt;&lt;font style=&quot;font-size: 16.93px; letter-spacing: 0px; color: rgb(0, 0, 0); direction: ltr; line-height: 20.316px; opacity: 1;&quot;&gt;КПІ.ІT-0425.&lt;/font&gt;&lt;font style=&quot;font-size: 16.93px; letter-spacing: 0px; color: rgb(0, 0, 0); direction: ltr; line-height: 20.316px; opacity: 1;&quot;&gt;&lt;span style=&quot;font-size: 14pt; font-family: &amp;quot;Times New Roman&amp;quot;, serif;&quot; lang=&quot;UK&quot;&gt;0&lt;/span&gt;&lt;span style=&quot;font-size: 14pt; line-height: 28px; font-family: &amp;quot;Times New Roman&amp;quot;, serif;&quot; lang=&quot;RU&quot;&gt;45440&lt;/span&gt;&lt;span style=&quot;font-size: 14pt; font-family: &amp;quot;Times New Roman&amp;quot;, serif;&quot; lang=&quot;UK&quot;&gt;.06.99&lt;/span&gt;.&lt;/font&gt;&lt;font style=&quot;font-size: 16.93px; letter-spacing: 0px; color: rgb(0, 0, 0); direction: ltr; line-height: 20.316px; opacity: 1;&quot;&gt;СБД&lt;/font&gt;&lt;span&gt;&lt;br&gt;&lt;/span&gt;&lt;/font&gt;&lt;/p&gt;&lt;/div&gt;" tags="Фон" id="7">
          <mxCell style="verticalAlign=middle;align=center;overflow=width;vsdxID=10;rotation=180;fillColor=none;gradientColor=none;strokeColor=none;spacingLeft=-1;spacingRight=-1;points=[];labelBackgroundColor=none;rounded=0;html=1;whiteSpace=wrap;fontStyle=0" parent="1" vertex="1">
            <mxGeometry x="54" y="9" width="280" height="58" as="geometry" />
          </mxCell>
        </UserObject>
        <UserObject label="&lt;div style=&quot;font-size: 1px&quot;&gt;&lt;/div&gt;" tags="Фон" id="8">
          <mxCell style="verticalAlign=middle;align=center;overflow=width;vsdxID=11;fillColor=#FFFFFF;gradientColor=none;shape=stencil(UzV2Ls5ILEhVNTIoLinKz04tz0wpyVA1dlE1MsrMy0gtyiwBslSNXVWNndPyi1LTi/JL81Ig/IJEkEoQKze/DGRCBUSfoYEBSI+RQSWED+G5QZTmZOYhKSVTobmRnrkxsYphzoEqBTIQDof4GVkO3ZNAIUgAGbsCAA==);strokeColor=#000000;strokeWidth=2;points=[];labelBackgroundColor=none;rounded=0;html=1;whiteSpace=wrap;" parent="1" vertex="1">
            <mxGeometry x="897" y="937" width="740" height="220" as="geometry" />
          </mxCell>
        </UserObject>
        <UserObject label="&lt;div style=&quot;font-size: 1px&quot;&gt;&lt;/div&gt;" tags="Фон" id="9">
          <mxCell style="verticalAlign=middle;align=center;overflow=width;vsdxID=12;fillColor=#FFFFFF;gradientColor=none;shape=stencil(jU9JCoAwEHvNXKXOHHyAyz8Eqy1qK7Vuv7dlDi4geEtmkpAA5bOqJwkoZu9sLzfdeAVUAKI2SjrtAwIqgfLWOtk5u5iG+VRHZUSjXWPCzj4RHSgOZqlgXrF00OZTmmGS0V/xIzWAqw0Puf/ezcOJV1N5Ag==);strokeColor=#000000;strokeWidth=2;points=[];labelBackgroundColor=none;rounded=0;html=1;whiteSpace=wrap;" parent="1" vertex="1">
            <mxGeometry x="965" y="937" width="1" height="220" as="geometry" />
          </mxCell>
        </UserObject>
        <UserObject label="" tags="Фон" id="10">
          <mxCell style="vsdxID=13;fillColor=#FFFFFF;gradientColor=none;shape=stencil(jU9JCoAwEHvNXKXOHHyAyz8Eqy1qK7Vuv7dlDi4geEtmkpAA5bOqJwkoZu9sLzfdeAVUAKI2SjrtAwIqgfLWOtk5u5iG+VRHZUSjXWPCzj4RHSgOZqlgXrF00OZTmmGS0V/xIzWAqw0Puf/ezcOJV1N5Ag==);strokeColor=#000000;strokeWidth=2;points=[];labelBackgroundColor=none;rounded=0;html=1;whiteSpace=wrap;" parent="1" vertex="1">
            <mxGeometry x="1057" y="937" width="1" height="220" as="geometry" />
          </mxCell>
        </UserObject>
        <UserObject label="" tags="Фон" id="11">
          <mxCell style="vsdxID=14;fillColor=#FFFFFF;gradientColor=none;shape=stencil(jU9JCoAwEHvNXKXOHHyAyz8Eqy1qK7Vuv7dlDi4geEtmkpAA5bOqJwkoZu9sLzfdeAVUAKI2SjrtAwIqgfLWOtk5u5iG+VRHZUSjXWPCzj4RHSgOZqlgXrF00OZTmmGS0V/xIzWAqw0Puf/ezcOJV1N5Ag==);strokeColor=#000000;strokeWidth=2;points=[];labelBackgroundColor=none;rounded=0;html=1;whiteSpace=wrap;" parent="1" vertex="1">
            <mxGeometry x="1117" y="937" width="1" height="220" as="geometry" />
          </mxCell>
        </UserObject>
        <UserObject label="" tags="Фон" id="12">
          <mxCell style="vsdxID=15;fillColor=#FFFFFF;gradientColor=none;shape=stencil(jU9JCoAwEHvNXKXOHHyAyz8Eqy1qK7Vuv7dlDi4geEtmkpAA5bOqJwkoZu9sLzfdeAVUAKI2SjrtAwIqgfLWOtk5u5iG+VRHZUSjXWPCzj4RHSgOZqlgXrF00OZTmmGS0V/xIzWAqw0Puf/ezcOJV1N5Ag==);strokeColor=#000000;strokeWidth=2;points=[];labelBackgroundColor=none;rounded=0;html=1;whiteSpace=wrap;" parent="1" vertex="1">
            <mxGeometry x="1157" y="937" width="1" height="220" as="geometry" />
          </mxCell>
        </UserObject>
        <UserObject label="" tags="Фон" id="44">
          <mxCell style="vsdxID=16;edgeStyle=none;startArrow=none;endArrow=none;startSize=5;endSize=5;strokeWidth=2;strokeColor=#000000;spacingTop=0;spacingBottom=0;spacingLeft=0;spacingRight=0;verticalAlign=middle;html=1;labelBackgroundColor=none;rounded=0;" parent="1" edge="1">
            <mxGeometry relative="1" as="geometry">
              <mxPoint as="offset" />
              <Array as="points" />
              <mxPoint x="897" y="957" as="sourcePoint" />
              <mxPoint x="1157" y="957" as="targetPoint" />
            </mxGeometry>
          </mxCell>
        </UserObject>
        <UserObject label="" tags="Фон" id="45">
          <mxCell style="vsdxID=17;edgeStyle=none;startArrow=none;endArrow=none;startSize=5;endSize=5;strokeWidth=2;strokeColor=#000000;spacingTop=0;spacingBottom=0;spacingLeft=0;spacingRight=0;verticalAlign=middle;html=1;labelBackgroundColor=none;rounded=0;" parent="1" edge="1">
            <mxGeometry relative="1" as="geometry">
              <mxPoint as="offset" />
              <Array as="points" />
              <mxPoint x="897" y="977" as="sourcePoint" />
              <mxPoint x="1157" y="977" as="targetPoint" />
            </mxGeometry>
          </mxCell>
        </UserObject>
        <UserObject label="" tags="Фон" id="46">
          <mxCell style="vsdxID=18;edgeStyle=none;startArrow=none;endArrow=none;startSize=5;endSize=5;strokeWidth=2;strokeColor=#000000;spacingTop=0;spacingBottom=0;spacingLeft=0;spacingRight=0;verticalAlign=middle;html=1;labelBackgroundColor=none;rounded=0;" parent="1" edge="1">
            <mxGeometry relative="1" as="geometry">
              <mxPoint as="offset" />
              <Array as="points" />
              <mxPoint x="897" y="997" as="sourcePoint" />
              <mxPoint x="1157" y="997" as="targetPoint" />
            </mxGeometry>
          </mxCell>
        </UserObject>
        <UserObject label="&lt;div style=&quot;font-size: 1px&quot;&gt;&lt;/div&gt;" tags="Фон" id="47">
          <mxCell style="vsdxID=19;edgeStyle=none;startArrow=none;endArrow=none;startSize=5;endSize=5;strokeWidth=2;strokeColor=#000000;spacingTop=0;spacingBottom=0;spacingLeft=0;spacingRight=0;verticalAlign=middle;html=1;labelBackgroundColor=none;rounded=0;align=center;overflow=width;" parent="1" edge="1">
            <mxGeometry relative="1" as="geometry">
              <mxPoint as="offset" />
              <Array as="points" />
              <mxPoint x="897" y="1017" as="sourcePoint" />
              <mxPoint x="1157" y="1017" as="targetPoint" />
            </mxGeometry>
          </mxCell>
        </UserObject>
        <UserObject label="&lt;div style=&quot;font-size: 1px&quot;&gt;&lt;/div&gt;" tags="Фон" id="48">
          <mxCell style="vsdxID=20;edgeStyle=none;startArrow=none;endArrow=none;startSize=5;endSize=5;strokeWidth=2;strokeColor=#000000;spacingTop=0;spacingBottom=0;spacingLeft=0;spacingRight=0;verticalAlign=middle;html=1;labelBackgroundColor=none;rounded=0;align=center;overflow=width;" parent="1" edge="1">
            <mxGeometry relative="1" as="geometry">
              <mxPoint as="offset" />
              <Array as="points" />
              <mxPoint x="897" y="1037" as="sourcePoint" />
              <mxPoint x="1157" y="1037" as="targetPoint" />
            </mxGeometry>
          </mxCell>
        </UserObject>
        <UserObject label="" tags="Фон" id="49">
          <mxCell style="vsdxID=21;edgeStyle=none;startArrow=none;endArrow=none;startSize=5;endSize=5;strokeWidth=2;strokeColor=#000000;spacingTop=0;spacingBottom=0;spacingLeft=0;spacingRight=0;verticalAlign=middle;html=1;labelBackgroundColor=none;rounded=0;" parent="1" edge="1">
            <mxGeometry relative="1" as="geometry">
              <mxPoint as="offset" />
              <Array as="points" />
              <mxPoint x="897" y="1057" as="sourcePoint" />
              <mxPoint x="1157" y="1057" as="targetPoint" />
            </mxGeometry>
          </mxCell>
        </UserObject>
        <UserObject label="&lt;div style=&quot;font-size: 1px&quot;&gt;&lt;/div&gt;" tags="Фон" id="50">
          <mxCell style="vsdxID=22;edgeStyle=none;startArrow=none;endArrow=none;startSize=5;endSize=5;strokeWidth=2;strokeColor=#000000;spacingTop=0;spacingBottom=0;spacingLeft=0;spacingRight=0;verticalAlign=middle;html=1;labelBackgroundColor=none;rounded=0;align=center;overflow=width;" parent="1" edge="1">
            <mxGeometry relative="1" as="geometry">
              <mxPoint as="offset" />
              <Array as="points" />
              <mxPoint x="897" y="1077" as="sourcePoint" />
              <mxPoint x="1157" y="1077" as="targetPoint" />
            </mxGeometry>
          </mxCell>
        </UserObject>
        <UserObject label="" tags="Фон" id="13">
          <mxCell style="vsdxID=23;fillColor=#FFFFFF;gradientColor=none;shape=stencil(UzV2Ls5ILEhVNTIoLinKz04tz0wpyVA1dlE1MsrMy0gtyiwBslSNXVWNndPyi1LTi/JL81Ig/IJEkEoQKze/DGRCBUSfAUiHkUElhGdoAOG7QZTmZObhVGpmpGdqgVsxzCSYchRzgQyEeyBeQZZDdztQCOJvY1cA);strokeColor=#000000;strokeWidth=2;points=[];labelBackgroundColor=none;rounded=0;html=1;whiteSpace=wrap;" parent="1" vertex="1">
            <mxGeometry x="1437" y="996" height="160" as="geometry" />
          </mxCell>
        </UserObject>
        <UserObject label="" tags="Фон" id="51">
          <mxCell style="vsdxID=24;edgeStyle=none;startArrow=none;endArrow=none;startSize=5;endSize=5;strokeWidth=2;strokeColor=#000000;spacingTop=0;spacingBottom=0;spacingLeft=0;spacingRight=0;verticalAlign=middle;html=1;labelBackgroundColor=none;rounded=0;" parent="1" edge="1">
            <mxGeometry relative="1" as="geometry">
              <Array as="points" />
              <mxPoint x="1497" y="1077" as="sourcePoint" />
              <mxPoint x="1497" y="996" as="targetPoint" />
            </mxGeometry>
          </mxCell>
        </UserObject>
        <UserObject label="" tags="Фон" id="14">
          <mxCell style="vsdxID=25;fillColor=#FFFFFF;gradientColor=none;shape=stencil(lY9LDoAgDERP0z3SI/i5B4koRAWC+Lu9NI3xs3M3075ppoDlbFTQIMWcoh/0ZttkACuQ0jqjo01ZAdaAZeej7qNfXMs+KCJJTX6lCzvnCiEoI8XBnl3D6GjdA32DV/A/msXdhh957r7N84i/xvoE);strokeColor=#000000;strokeWidth=2;points=[];labelBackgroundColor=none;rounded=0;html=1;whiteSpace=wrap;" parent="1" vertex="1">
            <mxGeometry x="1557" y="996" height="80" as="geometry" />
          </mxCell>
        </UserObject>
        <UserObject label="" tags="Фон" id="15">
          <mxCell style="vsdxID=26;fillColor=#FFFFFF;gradientColor=none;shape=stencil(UzV2Ls5ILEhVNTIoLinKz04tz0wpyVA1dlE1MsrMy0gtyiwBslSNXVWNndPyi1LTi/JL81Ig/IJEkEoQKze/DGRCBUSfoYEBSI+RQSUq3w2iOCczD0mxMQlq8SoFMhAOgvgFWQ7d8UAhiMeNXQE=);strokeColor=#000000;strokeWidth=2;points=[];labelBackgroundColor=none;rounded=0;html=1;whiteSpace=wrap;" parent="1" vertex="1">
            <mxGeometry x="1437" y="1017" width="199" height="1" as="geometry" />
          </mxCell>
        </UserObject>
        <UserObject label="" tags="Фон" id="52">
          <mxCell style="vsdxID=27;edgeStyle=none;startArrow=none;endArrow=none;startSize=5;endSize=5;strokeColor=#000000;spacingTop=0;spacingBottom=0;spacingLeft=0;spacingRight=0;verticalAlign=middle;html=1;labelBackgroundColor=none;rounded=0;" parent="1" edge="1">
            <mxGeometry relative="1" as="geometry">
              <Array as="points" />
              <mxPoint x="925" y="937" as="sourcePoint" />
              <mxPoint x="925" y="1037" as="targetPoint" />
            </mxGeometry>
          </mxCell>
        </UserObject>
        <UserObject label="&lt;div style=&quot;font-size: 1px&quot;&gt;&lt;p style=&quot;text-align:left;margin-left:0;margin-right:0;margin-top:0px;margin-bottom:0px;text-indent:0;vertical-align:middle;direction:ltr;&quot;&gt;&lt;font style=&quot;font-size:12.7px;font-family:Arial;color:#000000;direction:ltr;letter-spacing:0px;line-height:120%;opacity:1&quot;&gt;Розробив&lt;br/&gt;&lt;/font&gt;&lt;/p&gt;&lt;/div&gt;" tags="Фон" id="16">
          <mxCell style="verticalAlign=middle;align=left;overflow=width;vsdxID=28;fillColor=none;gradientColor=none;strokeColor=none;points=[];labelBackgroundColor=none;rounded=0;html=1;whiteSpace=wrap;" parent="1" vertex="1">
            <mxGeometry x="899" y="1037" width="72" height="20" as="geometry" />
          </mxCell>
        </UserObject>
        <UserObject label="&lt;div style=&quot;font-size: 1px&quot;&gt;&lt;p style=&quot;text-align:left;margin-left:0;margin-right:0;margin-top:0px;margin-bottom:0px;text-indent:0;vertical-align:middle;direction:ltr;&quot;&gt;&lt;font style=&quot;font-size:12.7px;font-family:Arial;color:#000000;direction:ltr;letter-spacing:0px;line-height:120%;opacity:1&quot;&gt;Перевірив&lt;br/&gt;&lt;/font&gt;&lt;/p&gt;&lt;/div&gt;" tags="Фон" id="17">
          <mxCell style="verticalAlign=middle;align=left;overflow=width;vsdxID=29;fillColor=none;gradientColor=none;strokeColor=none;points=[];labelBackgroundColor=none;rounded=0;html=1;whiteSpace=wrap;" parent="1" vertex="1">
            <mxGeometry x="899" y="1057" width="85" height="20" as="geometry" />
          </mxCell>
        </UserObject>
        <UserObject label="&lt;div style=&quot;font-size: 1px&quot;&gt;&lt;p style=&quot;text-align:left;margin-left:0;margin-right:0;margin-top:0px;margin-bottom:0px;text-indent:0;vertical-align:middle;direction:ltr;&quot;&gt;&lt;font style=&quot;font-size:12.7px;font-family:Arial;color:#000000;direction:ltr;letter-spacing:0px;line-height:120%;opacity:1&quot;&gt;Н. контр.&lt;br&gt;&lt;/font&gt;&lt;/p&gt;&lt;/div&gt;" tags="Фон" id="18">
          <mxCell style="verticalAlign=middle;align=left;overflow=width;vsdxID=30;fillColor=none;gradientColor=none;strokeColor=none;points=[];labelBackgroundColor=none;rounded=0;html=1;whiteSpace=wrap;" parent="1" vertex="1">
            <mxGeometry x="901" y="1117" width="53" height="20" as="geometry" />
          </mxCell>
        </UserObject>
        <UserObject label="&lt;div style=&quot;font-size: 1px&quot;&gt;&lt;p style=&quot;margin: 0px; text-indent: 0px; vertical-align: middle; direction: ltr;&quot;&gt;&lt;font style=&quot;font-size:12.7px;font-family:Arial;color:#000000;direction:ltr;letter-spacing:0px;line-height:120%;opacity:1&quot;&gt;Затвердив&lt;br&gt;&lt;/font&gt;&lt;/p&gt;&lt;/div&gt;" tags="Фон" id="19">
          <mxCell style="verticalAlign=middle;align=left;overflow=width;vsdxID=31;fillColor=none;gradientColor=none;strokeColor=none;points=[];labelBackgroundColor=none;rounded=0;html=1;whiteSpace=wrap;" parent="1" vertex="1">
            <mxGeometry x="900" y="1137" width="62" height="20" as="geometry" />
          </mxCell>
        </UserObject>
        <UserObject label="&lt;div style=&quot;font-size: 1px&quot;&gt;&lt;font style=&quot;font-size:12.7px;font-family:Arial;color:#000000;direction:ltr;letter-spacing:0px;line-height:120%;opacity:1&quot;&gt;Арк.&lt;br/&gt;&lt;/font&gt;&lt;/div&gt;" tags="Фон" id="20">
          <mxCell style="verticalAlign=middle;align=center;overflow=width;vsdxID=32;fillColor=none;gradientColor=none;strokeColor=none;points=[];labelBackgroundColor=none;rounded=0;html=1;whiteSpace=wrap;" parent="1" vertex="1">
            <mxGeometry x="925" y="1017" width="41" height="20" as="geometry" />
          </mxCell>
        </UserObject>
        <UserObject label="&lt;div style=&quot;font-size: 1px&quot;&gt;&lt;font style=&quot;font-size:12.7px;font-family:Arial;color:#000000;direction:ltr;letter-spacing:0px;line-height:120%;opacity:1&quot;&gt;№ документа&lt;br/&gt;&lt;/font&gt;&lt;/div&gt;" tags="Фон" id="21">
          <mxCell style="verticalAlign=middle;align=center;overflow=width;vsdxID=33;fillColor=none;gradientColor=none;strokeColor=none;points=[];labelBackgroundColor=none;rounded=0;html=1;whiteSpace=wrap;" parent="1" vertex="1">
            <mxGeometry x="962" y="1017" width="93" height="20" as="geometry" />
          </mxCell>
        </UserObject>
        <UserObject label="&lt;div style=&quot;font-size: 1px&quot;&gt;&lt;/div&gt;" tags="Фон" id="22">
          <mxCell style="verticalAlign=middle;align=center;overflow=width;vsdxID=34;fillColor=none;gradientColor=none;strokeColor=none;points=[];labelBackgroundColor=none;rounded=0;html=1;whiteSpace=wrap;" parent="1" vertex="1">
            <mxGeometry x="1057" y="958" width="60" height="19" as="geometry" />
          </mxCell>
        </UserObject>
        <UserObject label="&lt;div style=&quot;font-size: 1px&quot;&gt;&lt;font style=&quot;font-size:12.7px;font-family:Arial;color:#000000;direction:ltr;letter-spacing:0px;line-height:120%;opacity:1&quot;&gt;Підпис&lt;br/&gt;&lt;/font&gt;&lt;/div&gt;" tags="Фон" id="23">
          <mxCell style="verticalAlign=middle;align=center;overflow=width;vsdxID=35;fillColor=none;gradientColor=none;strokeColor=none;points=[];labelBackgroundColor=none;rounded=0;html=1;whiteSpace=wrap;" parent="1" vertex="1">
            <mxGeometry x="1057" y="1017" width="60" height="20" as="geometry" />
          </mxCell>
        </UserObject>
        <UserObject label="&lt;div style=&quot;font-size: 1px&quot;&gt;&lt;font style=&quot;font-size:12.7px;font-family:Arial;color:#000000;direction:ltr;letter-spacing:0px;line-height:120%;opacity:1&quot;&gt;Дата&lt;br/&gt;&lt;/font&gt;&lt;/div&gt;" tags="Фон" id="24">
          <mxCell style="verticalAlign=middle;align=center;overflow=width;vsdxID=36;fillColor=none;gradientColor=none;strokeColor=none;points=[];labelBackgroundColor=none;rounded=0;html=1;whiteSpace=wrap;" parent="1" vertex="1">
            <mxGeometry x="1122" y="1016" width="30" height="21" as="geometry" />
          </mxCell>
        </UserObject>
        <UserObject label="&lt;div style=&quot;font-size: 1px&quot;&gt;&lt;p style=&quot;text-align:left;margin-left:0;margin-right:0;margin-top:0px;margin-bottom:0px;text-indent:0;vertical-align:middle;direction:ltr;&quot;&gt;&lt;font style=&quot;font-size:12.7px;font-family:Arial;color:#000000;direction:ltr;letter-spacing:0px;line-height:120%;opacity:1&quot;&gt;Зм.&lt;br/&gt;&lt;/font&gt;&lt;/p&gt;&lt;/div&gt;" tags="Фон" id="25">
          <mxCell style="verticalAlign=middle;align=left;overflow=width;vsdxID=38;fillColor=none;gradientColor=none;strokeColor=none;points=[];labelBackgroundColor=none;rounded=0;html=1;whiteSpace=wrap;" parent="1" vertex="1">
            <mxGeometry x="899" y="1017" width="25" height="20" as="geometry" />
          </mxCell>
        </UserObject>
        <UserObject label="&lt;div style=&quot;font-size: 1px&quot;&gt;&lt;p style=&quot;text-align:left;margin-left:0;margin-right:0;margin-top:0px;margin-bottom:0px;text-indent:0;vertical-align:middle;direction:ltr;&quot;&gt;&lt;font style=&quot;font-size: 12.7px; font-family: Arial; direction: ltr; letter-spacing: 0px; line-height: 120%; opacity: 1;&quot;&gt;Чапча С.О.&lt;/font&gt;&lt;/p&gt;&lt;/div&gt;" tags="Фон" id="26">
          <mxCell style="verticalAlign=middle;align=left;overflow=width;vsdxID=39;fillColor=none;gradientColor=none;strokeColor=none;points=[];labelBackgroundColor=none;rounded=0;html=1;whiteSpace=wrap;fontColor=default;" parent="1" vertex="1">
            <mxGeometry x="969" y="1037" width="108" height="20" as="geometry" />
          </mxCell>
        </UserObject>
        <UserObject label="" tags="Фон" id="53">
          <mxCell style="vsdxID=40;edgeStyle=none;startArrow=none;endArrow=none;startSize=5;endSize=5;strokeWidth=2;strokeColor=#000000;spacingTop=0;spacingBottom=0;spacingLeft=0;spacingRight=0;verticalAlign=middle;html=1;labelBackgroundColor=none;rounded=0;" parent="1" edge="1">
            <mxGeometry relative="1" as="geometry">
              <Array as="points" />
              <mxPoint x="1637" y="1077" as="sourcePoint" />
              <mxPoint x="1437" y="1077" as="targetPoint" />
            </mxGeometry>
          </mxCell>
        </UserObject>
        <UserObject label="" tags="Фон" id="54">
          <mxCell style="vsdxID=41;edgeStyle=none;startArrow=none;endArrow=none;startSize=5;endSize=5;strokeWidth=2;strokeColor=#000000;spacingTop=0;spacingBottom=0;spacingLeft=0;spacingRight=0;verticalAlign=middle;html=1;labelBackgroundColor=none;rounded=0;" parent="1" edge="1">
            <mxGeometry relative="1" as="geometry">
              <Array as="points" />
              <mxPoint x="1637" y="1097" as="sourcePoint" />
              <mxPoint x="897" y="1097" as="targetPoint" />
            </mxGeometry>
          </mxCell>
        </UserObject>
        <mxCell id="55" value="&lt;div style=&quot;font-size: 1px&quot;&gt;&lt;/div&gt;" style="text;vsdxID=41;edgeStyle=none;startArrow=none;endArrow=none;startSize=5;endSize=5;strokeWidth=2;strokeColor=none;spacingTop=0;spacingBottom=0;spacingLeft=0;spacingRight=0;verticalAlign=middle;html=1;labelBackgroundColor=none;rounded=0;align=center;overflow=width;fillColor=none;gradientColor=none;whiteSpace=wrap;;html=1;;rotation=0" parent="54" vertex="1">
          <mxGeometry width="740" height="1" relative="1" as="geometry">
            <mxPoint x="-370" y="-0.5" as="offset" />
          </mxGeometry>
        </mxCell>
        <UserObject label="&lt;div style=&quot;font-size: 1px&quot;&gt;&lt;p style=&quot;text-align:left;margin-left:0;margin-right:0;margin-top:0px;margin-bottom:0px;text-indent:0;vertical-align:middle;direction:ltr;&quot;&gt;&lt;/p&gt;&lt;/div&gt;" tags="Фон" id="56">
          <mxCell style="vsdxID=42;edgeStyle=none;startArrow=none;endArrow=none;startSize=5;endSize=5;strokeWidth=2;strokeColor=#000000;spacingTop=0;spacingBottom=0;spacingLeft=0;spacingRight=0;verticalAlign=middle;html=1;labelBackgroundColor=none;rounded=0;align=left;overflow=width;" parent="1" edge="1">
            <mxGeometry relative="1" as="geometry">
              <mxPoint as="offset" />
              <Array as="points" />
              <mxPoint x="897" y="1117" as="sourcePoint" />
              <mxPoint x="1157" y="1117" as="targetPoint" />
            </mxGeometry>
          </mxCell>
        </UserObject>
        <UserObject label="&lt;div style=&quot;font-size: 1px&quot;&gt;&lt;/div&gt;" tags="Фон" id="57">
          <mxCell style="vsdxID=43;edgeStyle=none;startArrow=none;endArrow=none;startSize=5;endSize=5;strokeWidth=2;strokeColor=#000000;spacingTop=0;spacingBottom=0;spacingLeft=0;spacingRight=0;verticalAlign=middle;html=1;labelBackgroundColor=none;rounded=0;align=center;overflow=width;" parent="1" edge="1">
            <mxGeometry relative="1" as="geometry">
              <mxPoint as="offset" />
              <Array as="points" />
              <mxPoint x="897" y="1137" as="sourcePoint" />
              <mxPoint x="1157" y="1137" as="targetPoint" />
            </mxGeometry>
          </mxCell>
        </UserObject>
        <UserObject label="" tags="Фон" id="58">
          <mxCell style="vsdxID=44;edgeStyle=none;startArrow=none;endArrow=none;startSize=5;endSize=5;strokeWidth=2;strokeColor=#000000;spacingTop=0;spacingBottom=0;spacingLeft=0;spacingRight=0;verticalAlign=middle;html=1;labelBackgroundColor=none;rounded=0;" parent="1" edge="1">
            <mxGeometry relative="1" as="geometry">
              <mxPoint as="offset" />
              <Array as="points" />
              <mxPoint x="1157" y="997" as="sourcePoint" />
              <mxPoint x="1637" y="997" as="targetPoint" />
            </mxGeometry>
          </mxCell>
        </UserObject>
        <UserObject label="&lt;div style=&quot;font-size: 1px&quot;&gt;&lt;p style=&quot;text-align:center;margin-left:0;margin-right:0;margin-top:0px;margin-bottom:0px;text-indent:0;vertical-align:middle;direction:ltr;&quot;&gt;&lt;font style=&quot;font-size: 14.11px; font-family: Arial; direction: ltr; letter-spacing: 0px; line-height: 120%; opacity: 1;&quot;&gt;КПІ ім.Ігоря Сікорського&lt;br&gt;Кафедра ІПІ&lt;br&gt;гр. ІТ-&lt;/font&gt;&lt;font style=&quot;font-size: 14.11px; font-family: Arial; direction: ltr; letter-spacing: 0px; line-height: 120%; opacity: 1;&quot;&gt;0&lt;/font&gt;&lt;font style=&quot;font-size: 14.11px; font-family: Arial; direction: ltr; letter-spacing: 0px; line-height: 120%; opacity: 1;&quot;&gt;4&lt;br&gt;&lt;/font&gt;&lt;/p&gt;&lt;/div&gt;" tags="Фон" id="27">
          <mxCell style="verticalAlign=middle;align=center;overflow=width;vsdxID=45;fillColor=none;gradientColor=none;strokeColor=none;points=[];labelBackgroundColor=none;rounded=0;html=1;whiteSpace=wrap;fontColor=default;" parent="1" vertex="1">
            <mxGeometry x="1438" y="1103" width="200" height="52" as="geometry" />
          </mxCell>
        </UserObject>
        <UserObject label="" tags="Фон" id="59">
          <mxCell style="vsdxID=46;edgeStyle=none;startArrow=none;endArrow=none;startSize=5;endSize=5;strokeWidth=2;strokeColor=#000000;spacingTop=0;spacingBottom=0;spacingLeft=0;spacingRight=0;verticalAlign=middle;html=1;labelBackgroundColor=none;rounded=0;" parent="1" edge="1">
            <mxGeometry relative="1" as="geometry">
              <Array as="points" />
              <mxPoint x="1477" y="1017" as="sourcePoint" />
              <mxPoint x="1477" y="1077" as="targetPoint" />
            </mxGeometry>
          </mxCell>
        </UserObject>
        <UserObject label="" tags="Фон" id="60">
          <mxCell style="vsdxID=47;edgeStyle=none;startArrow=none;endArrow=none;startSize=5;endSize=5;strokeWidth=2;strokeColor=#000000;spacingTop=0;spacingBottom=0;spacingLeft=0;spacingRight=0;verticalAlign=middle;html=1;labelBackgroundColor=none;rounded=0;" parent="1" edge="1">
            <mxGeometry relative="1" as="geometry">
              <Array as="points" />
              <mxPoint x="1457" y="1017" as="sourcePoint" />
              <mxPoint x="1457" y="1077" as="targetPoint" />
            </mxGeometry>
          </mxCell>
        </UserObject>
        <UserObject label="&lt;div style=&quot;font-size: 1px&quot;&gt;&lt;p style=&quot;text-align:left;margin-left:0;margin-right:0;margin-top:0px;margin-bottom:0px;text-indent:0;vertical-align:middle;direction:ltr;&quot;&gt;&lt;font style=&quot;font-size:12.7px;font-family:Arial;color:#000000;direction:ltr;letter-spacing:0px;line-height:120%;opacity:1&quot;&gt;Аркуш&lt;br/&gt;&lt;/font&gt;&lt;/p&gt;&lt;/div&gt;" tags="Фон" id="28">
          <mxCell style="verticalAlign=middle;align=left;overflow=width;vsdxID=48;fillColor=none;gradientColor=none;strokeColor=none;points=[];labelBackgroundColor=none;rounded=0;html=1;whiteSpace=wrap;" parent="1" vertex="1">
            <mxGeometry x="1454" y="1077" width="68" height="20" as="geometry" />
          </mxCell>
        </UserObject>
        <UserObject label="&lt;div style=&quot;font-size: 1px&quot;&gt;&lt;p style=&quot;text-align:left;margin-left:0;margin-right:0;margin-top:0px;margin-bottom:0px;text-indent:0;vertical-align:middle;direction:ltr;&quot;&gt;&lt;font style=&quot;font-size:12.7px;font-family:Arial;color:#000000;direction:ltr;letter-spacing:0px;line-height:120%;opacity:1&quot;&gt;Аркушів&lt;br/&gt;&lt;/font&gt;&lt;/p&gt;&lt;/div&gt;" tags="Фон" id="29">
          <mxCell style="verticalAlign=middle;align=left;overflow=width;vsdxID=49;fillColor=none;gradientColor=none;strokeColor=none;points=[];labelBackgroundColor=none;rounded=0;html=1;whiteSpace=wrap;" parent="1" vertex="1">
            <mxGeometry x="1554" y="1077" width="76" height="20" as="geometry" />
          </mxCell>
        </UserObject>
        <UserObject label="" tags="Фон" id="61">
          <mxCell style="vsdxID=50;edgeStyle=none;startArrow=none;endArrow=none;startSize=5;endSize=5;strokeWidth=2;strokeColor=#000000;spacingTop=0;spacingBottom=0;spacingLeft=0;spacingRight=0;verticalAlign=middle;html=1;labelBackgroundColor=none;rounded=0;" parent="1" edge="1">
            <mxGeometry relative="1" as="geometry">
              <Array as="points" />
              <mxPoint x="1517" y="1097" as="sourcePoint" />
              <mxPoint x="1517" y="1077" as="targetPoint" />
            </mxGeometry>
          </mxCell>
        </UserObject>
        <UserObject label="&lt;div style=&quot;font-size: 1px&quot;&gt;&lt;p style=&quot;text-align:left;margin-left:0;margin-right:0;margin-top:0px;margin-bottom:0px;text-indent:0;vertical-align:middle;direction:ltr;&quot;&gt;&lt;font style=&quot;font-size:12.7px;font-family:Arial;color:#000000;direction:ltr;letter-spacing:0px;line-height:120%;opacity:1&quot;&gt;Т. контр.&lt;br&gt;&lt;/font&gt;&lt;/p&gt;&lt;/div&gt;" tags="Фон" id="30">
          <mxCell style="verticalAlign=middle;align=left;overflow=width;vsdxID=52;fillColor=none;gradientColor=none;strokeColor=none;points=[];labelBackgroundColor=none;rounded=0;html=1;whiteSpace=wrap;" parent="1" vertex="1">
            <mxGeometry x="900" y="1079" width="50" height="20" as="geometry" />
          </mxCell>
        </UserObject>
        <UserObject label="&lt;div style=&quot;font-size: 1px&quot;&gt;&lt;font style=&quot;font-size:12.7px;font-family:Arial;color:#000000;direction:ltr;letter-spacing:0px;line-height:120%;opacity:1&quot;&gt;Літера&lt;br/&gt;&lt;/font&gt;&lt;/div&gt;" tags="Фон" id="31">
          <mxCell style="verticalAlign=middle;align=center;overflow=width;vsdxID=53;fillColor=none;gradientColor=none;strokeColor=none;points=[];labelBackgroundColor=none;rounded=0;html=1;whiteSpace=wrap;" parent="1" vertex="1">
            <mxGeometry x="1438" y="999" width="59" height="20" as="geometry" />
          </mxCell>
        </UserObject>
        <UserObject label="&lt;div style=&quot;font-size: 1px&quot;&gt;&lt;font style=&quot;font-size:12.7px;font-family:Arial;color:#000000;direction:ltr;letter-spacing:0px;line-height:120%;opacity:1&quot;&gt;Маса&lt;br/&gt;&lt;/font&gt;&lt;/div&gt;" tags="Фон" id="32">
          <mxCell style="verticalAlign=middle;align=center;overflow=width;vsdxID=54;fillColor=none;gradientColor=none;strokeColor=none;points=[];labelBackgroundColor=none;rounded=0;html=1;whiteSpace=wrap;" parent="1" vertex="1">
            <mxGeometry x="1498" y="999" width="59" height="20" as="geometry" />
          </mxCell>
        </UserObject>
        <UserObject label="&lt;div style=&quot;font-size: 1px&quot;&gt;&lt;font style=&quot;font-size:12.7px;font-family:Arial;color:#000000;direction:ltr;letter-spacing:0px;line-height:120%;opacity:1&quot;&gt;Масштаб&lt;br/&gt;&lt;/font&gt;&lt;/div&gt;" tags="Фон" id="33">
          <mxCell style="verticalAlign=middle;align=center;overflow=width;vsdxID=55;fillColor=none;gradientColor=none;strokeColor=none;points=[];labelBackgroundColor=none;rounded=0;html=1;whiteSpace=wrap;" parent="1" vertex="1">
            <mxGeometry x="1558" y="999" width="80" height="20" as="geometry" />
          </mxCell>
        </UserObject>
        <UserObject label="&lt;div style=&quot;font-size: 1px&quot;&gt;&lt;p style=&quot;margin: 0px; text-indent: 0px; vertical-align: middle; direction: ltr;&quot;&gt;&lt;font style=&quot;font-size: 12.7px; font-family: Arial; direction: ltr; letter-spacing: 0px; line-height: 120%; opacity: 1;&quot;&gt;Крамар Ю.М.&lt;br&gt;&lt;/font&gt;&lt;/p&gt;&lt;/div&gt;" tags="Фон" id="34">
          <mxCell style="verticalAlign=middle;align=left;overflow=width;vsdxID=57;fillColor=none;gradientColor=none;strokeColor=none;points=[];labelBackgroundColor=none;rounded=0;html=1;whiteSpace=wrap;fontColor=default;" parent="1" vertex="1">
            <mxGeometry x="968" y="1058" width="94" height="20" as="geometry" />
          </mxCell>
        </UserObject>
        <UserObject label="&lt;div style=&quot;font-size: 1px&quot;&gt;&lt;p style=&quot;margin: 0px; text-indent: 0px; vertical-align: middle; direction: ltr;&quot;&gt;&lt;font style=&quot;font-size: 12.7px; font-family: Arial; direction: ltr; letter-spacing: 0px; line-height: 120%; opacity: 1;&quot;&gt;Жаріков Е.В.&lt;br&gt;&lt;/font&gt;&lt;/p&gt;&lt;/div&gt;" tags="Фон" id="35">
          <mxCell style="verticalAlign=middle;align=left;overflow=width;vsdxID=58;fillColor=none;gradientColor=none;strokeColor=none;points=[];labelBackgroundColor=none;rounded=0;html=1;whiteSpace=wrap;" parent="1" vertex="1">
            <mxGeometry x="968" y="1137" width="94" height="20" as="geometry" />
          </mxCell>
        </UserObject>
        <UserObject label="&lt;div style=&quot;font-size: 1px&quot;&gt;&lt;p style=&quot;margin: 0px; text-indent: 0px; vertical-align: middle; direction: ltr;&quot;&gt;&lt;font style=&quot;font-size: 12.7px; font-family: Arial; direction: ltr; letter-spacing: 0px; line-height: 120%; opacity: 1;&quot;&gt;Родіонов П.Ю.&lt;br&gt;&lt;/font&gt;&lt;/p&gt;&lt;/div&gt;" tags="Фон" id="36">
          <mxCell style="verticalAlign=middle;align=left;overflow=width;vsdxID=56;fillColor=none;gradientColor=none;strokeColor=none;points=[];labelBackgroundColor=none;rounded=0;html=1;whiteSpace=wrap;fontColor=default;" parent="1" vertex="1">
            <mxGeometry x="967" y="1117" width="94" height="20" as="geometry" />
          </mxCell>
        </UserObject>
        <UserObject label="&lt;div style=&quot;font-size: 1px&quot;&gt;&lt;p style=&quot;text-align:center;margin-left:0;margin-right:0;margin-top:0px;margin-bottom:0px;text-indent:0;vertical-align:middle;direction:ltr;&quot;&gt;&lt;font style=&quot;font-size:16.93px;font-family:Arial;color:#ff0000;direction:ltr;letter-spacing:0px;line-height:120%;opacity:1&quot;&gt;&lt;font style=&quot;color: rgb(0, 0, 0); letter-spacing: 0px; font-size: 16.93px; direction: ltr; line-height: 20.316px; opacity: 1;&quot;&gt;КПІ.ІT-0425.&lt;/font&gt;&lt;font style=&quot;color: rgb(0, 0, 0); letter-spacing: 0px; font-size: 16.93px; direction: ltr; line-height: 20.316px; opacity: 1;&quot;&gt;&lt;span style=&quot;font-size: 14pt; font-family: &amp;quot;Times New Roman&amp;quot;, serif;&quot; lang=&quot;UK&quot;&gt;0&lt;/span&gt;&lt;span style=&quot;font-size: 14pt; line-height: 28px; font-family: &amp;quot;Times New Roman&amp;quot;, serif;&quot; lang=&quot;RU&quot;&gt;45440&lt;/span&gt;&lt;span style=&quot;font-size: 14pt; font-family: &amp;quot;Times New Roman&amp;quot;, serif;&quot; lang=&quot;UK&quot;&gt;.06.99&lt;/span&gt;.&lt;/font&gt;&lt;font style=&quot;color: rgb(0, 0, 0); letter-spacing: 0px; font-size: 16.93px; direction: ltr; line-height: 20.316px; opacity: 1;&quot;&gt;СБД&lt;/font&gt;&lt;span&gt;&lt;br&gt;&lt;/span&gt;&lt;/font&gt;&lt;/p&gt;&lt;/div&gt;" tags="Фон" id="37">
          <mxCell style="verticalAlign=middle;align=center;overflow=width;vsdxID=1;fillColor=none;gradientColor=none;shape=stencil(nZBLDoAgDERP0z3SIyjew0SURgSD+Lu9kMZoXLhwN9O+tukAlrNpJg1SzDH4QW/URgNYgZTkjA4UkwJUgGXng+6DX1zLfmoymdXo17xh5zmRJ6Q42BWCfc2oJfdAr+Yv+AP9Cb7OJ3H/2JG1HNGz/84klThPVCc=);strokeColor=none;spacingTop=-1;spacingBottom=-1;spacingLeft=-1;spacingRight=-1;points=[];labelBackgroundColor=none;rounded=0;html=1;whiteSpace=wrap;fontStyle=0" parent="1" vertex="1">
            <mxGeometry x="1158" y="937" width="484" height="60" as="geometry" />
          </mxCell>
        </UserObject>
        <UserObject label="&lt;div style=&quot;font-size: 1px&quot;&gt;&lt;font style=&quot;font-size: 16.93px; font-family: Arial; direction: ltr; letter-spacing: 0px; line-height: 120%; opacity: 1;&quot;&gt;Схема бази даних&lt;br&gt;&lt;/font&gt;&lt;/div&gt;" tags="Фон" id="38">
          <mxCell style="verticalAlign=middle;align=center;overflow=width;vsdxID=170;fillColor=none;gradientColor=none;shape=stencil(nZBLDoAgDERP0z3SIyjew0SURgSD+Lu9kMZoXLhwN9O+tukAlrNpJg1SzDH4QW/URgNYgZTkjA4UkwJUgGXng+6DX1zLfmoymdXo17xh5zmRJ6Q42BWCfc2oJfdAr+Yv+AP9Cb7OJ3H/2JG1HNGz/84klThPVCc=);strokeColor=none;points=[];labelBackgroundColor=none;rounded=0;html=1;whiteSpace=wrap;" parent="1" vertex="1">
            <mxGeometry x="1158" y="997" width="280" height="100" as="geometry" />
          </mxCell>
        </UserObject>
        <UserObject label="&lt;div style=&quot;font-size: 1px&quot;&gt;&lt;p style=&quot;text-align:center;margin-left:0;margin-right:0;margin-top:0px;margin-bottom:0px;text-indent:0;vertical-align:middle;direction:ltr;&quot;&gt;&lt;font style=&quot;font-size:16.93px;font-family:Arial;color:#ff0000;direction:ltr;letter-spacing:0px;line-height:120%;opacity:1&quot;&gt;&lt;span style=&quot;color: rgb(0, 0, 0); font-size: 14.11px;&quot;&gt;Вебзастосунок для впорядкування активностей та підтримки емоційного стану&lt;/span&gt;&lt;br&gt;&lt;/font&gt;&lt;/p&gt;&lt;/div&gt;" tags="Фон" id="39">
          <mxCell style="verticalAlign=middle;align=center;overflow=width;vsdxID=171;fillColor=none;gradientColor=none;shape=stencil(nZBLDoAgDERP0z3SIyjew0SURgSD+Lu9kMZoXLhwN9O+tukAlrNpJg1SzDH4QW/URgNYgZTkjA4UkwJUgGXng+6DX1zLfmoymdXo17xh5zmRJ6Q42BWCfc2oJfdAr+Yv+AP9Cb7OJ3H/2JG1HNGz/84klThPVCc=);strokeColor=none;points=[];labelBackgroundColor=none;rounded=0;html=1;whiteSpace=wrap;" parent="1" vertex="1">
            <mxGeometry x="1158" y="1097" width="280" height="60" as="geometry" />
          </mxCell>
        </UserObject>
        <UserObject label="" tags="Flowchart Connector" id="62">
          <mxCell parent="1" vertex="1" visible="0">
            <mxGeometry as="geometry" />
          </mxCell>
        </UserObject>
        <UserObject label="" tags="Фон" id="ME7sCt4IF3dhlvnfU3LJ-62">
          <mxCell style="vsdxID=47;edgeStyle=none;startArrow=none;endArrow=none;startSize=5;endSize=5;strokeWidth=2;strokeColor=#000000;spacingTop=0;spacingBottom=0;spacingLeft=0;spacingRight=0;verticalAlign=middle;html=1;labelBackgroundColor=none;rounded=0;" parent="1" edge="1">
            <mxGeometry relative="1" as="geometry">
              <Array as="points" />
              <mxPoint x="1436" y="998" as="sourcePoint" />
              <mxPoint x="1436" y="1158" as="targetPoint" />
            </mxGeometry>
          </mxCell>
        </UserObject>
        <UserObject label="" tags="Фон" id="krZepnfNmue6mBw8-n1--62">
          <mxCell style="vsdxID=24;edgeStyle=none;startArrow=none;endArrow=none;startSize=5;endSize=5;strokeWidth=2;strokeColor=#000000;spacingTop=0;spacingBottom=0;spacingLeft=0;spacingRight=0;verticalAlign=middle;html=1;labelBackgroundColor=none;rounded=0;" parent="1" edge="1">
            <mxGeometry relative="1" as="geometry">
              <Array as="points" />
              <mxPoint x="1564" y="1078" as="sourcePoint" />
              <mxPoint x="1564" y="997" as="targetPoint" />
            </mxGeometry>
          </mxCell>
        </UserObject>
        <mxCell id="elYw-TwGQvplscyIZUIp-64" value="" style="shape=image;verticalLabelPosition=bottom;labelBackgroundColor=default;verticalAlign=top;aspect=fixed;imageAspect=0;image=data:image/png,iVBORw0KGgoAAAANSUhEUgAABhAAAALQCAQAAADbOPI0AAAAAmJLR0QA/4ePzL8AAMYvSURBVHja7N1pYFT1obDxEYqBVBMRQUGpCAgq7qJiReOudbnerq/a21Ktpdra67Vat6od1FirXqVelUWQRVERN4xgQQE3XFERVKCAoKIBgUEGV5Y874eZJLNlDzMnk+d3vkySOTNnZv6c+T/MckIhSZIkSZIkSZIkSZIkSZIkSZIkSZIkSZIkSZIkSZIkSZIkSZIkSZIkSZIkSZIkSZIkSZIkSZIkSZIkSZIkSZIkSZIkSZIkSZIkSZIkSZIkSZIkSZIkSZKkfDGy34iwy9Ze7uqUD2Nl+J98JLf60s59kiRJynUg/OLBb1/GZWsuo78b2Scfxsp95TN8NLfqMnLLiEL3SZIkKeeBULY+gsvWXMZF8yUQPvbR3KrLvZsMBEmSZCAYCAaCi4EgSZJaRiDMoHONPzX/srUvP3fX1xoCIZ/HSvauzUCQJEl5FAhXUpZ2KvOyhsHsQDGDt8o0bC2l9KaAPfg/IswlxCfxSy+o4/rOI5yw9XMJEaKQY3mhlttqILTcsRJ7hDswgFcCM1IMBEmSlEeBsC8PpZ3KPIEfQVdmMpOHt0ogXMD23MIMhjOsgdO+qcxO2Pq5hHieaZzL93mzxttqILTcsTKXEItZzn9xYmBGioEgSZICHwjbcyRF/IhFaT9FeIb92J7jmU+Ey9iGdhRQnnAq+RxzCfE3OvM3ruKUhOt4jsPYjoOYzgw6cTbFHJHh8mdwOD+hMwdzI/3oxK1EWMHpFNGNmxMu7U224fGUSWDitC9xneTbczEhShO2vnrNY/ll0no13cLWHggtbazEHuHPOJuLAzNSDARJkhT4QChkBnM4npK0nxayA8NYxGAG1PC/wsnnmEuIS1lLOTPowFA+J0KEBWzH7fybx1nMDNpyF4s4lj+krT2DdkxlFT/kMMqZRgGfEOEB3mYaHXmnaotvZo+0/yUupJBC2sf/X7h6neTb8zmnU5ry/8KxaV8pfVOuK/MtbO2B0NLGSmxstKEP8wIzUgwESZIU+EDoHJ/ehJif8tP1nEiECJ/ShiUZJ33J55hLiKVVb9HoT0+eJEKYY9Ku7W5K0tau/Nv5XEyECIW8RoTH6U83OvBg1WVcRgkRIsyjkEKmMZcQLzGHOdwfn/ZVr5N8eyKcUcO07//okXJdmW+hbzFqWWMl9giXE2a3+OsAuR8pBoIkSWohgRChkOdSfvot29Gd7nSnmHczTvqSzzGXUNJlD6UDizmP89OubRSHp62dOukrYjazKeIx1nAIo6ou40b6ECHC58xhO6amvXEkcZ3k21PztO8KDku5rsy30EBoWWOl8hFeSwcmB2SkGAiSJKmFBMIyQixM+ekafpZ03v24P+VU8jlSJ30RinmSqzm5hklf8tqZJn3Xxc9xeMKkbyYhpsVPF2UIhMR1km9P5bSvcusr11xNLy5Jua7Mt9BAaFljpfIR/px2GQIhNyPFQJAkSYEPhEJm8h5nc1zaT29TxDg+ZApvECHCyZzHIpYknEo+R/Wk701Kmcn1FLCAObTnLhbzEK+kTPqS18406RvKYaxkCoXcQYRLOYMIEU6nE/9kJrfxvQyBkLhO8u2pnPZVbv1cQkxjMiexEwtTrivzLfQzCC1rrMwlxAIWciGd+SggI8VAkCRJgQ+EEvajiNPi30yT+FOER9mLAvblqfj/3e9GMSOTTiWeo3rSN4XeFNCPR4gQ4RH2pgP78lTKpC957UyTvs84no6cynUcRYTzOZIIET7jQjrTjr78lZVp077EdVJvT2zaV7n1cwmxDZ34T+akrFfTLWztgdDSxkrs+AXtOZyZGb7FKDcjxUCQJEkBDwQXj6Rc30Bw8UjKkiTJQHAxEFwMBEmSZCC4GAguBoIkSTIQXAwEA8FAkCRJBoKLgWAgGAiSJMlAcDEQDAQDQZIkGQguBoKBYCBIkiQDwamZgWAgGAiSJEkGgoFgIBgIkiRJBoKBYCAYCJIkSQaCgWAgGAiSJEl1BcKfH/z2ZXKzPM1MXg74UsasJl/G6O+GHZYPY2XU+lw9XjOZEviR8hQvNPkyRm4ZUew+SZIk5diIOx5mTo6WcczK2XXXfxtfaPJljGb0SfkwVsZseTlHj0IZEwI/Uu5jdpMvYyQjdnKfJEmSch4Iz1SQIw+wgqC7n1VNv50V+RIIX+ToUXiLyYEfKWNY3+TLuNdAkCRJBoKBYCAYCAaCJEkKbCAcwbKUKcvwrAXCR5zJ99mZO4FZlACwjk5Ja0xiEKlbG9vCWYRoT2/G1bn9q5Mus7gBgTCLEMUcwMSqLdxIP55vpYGQzbGSGAiz2Jbu9GFyoMZJciA0dqQYCJIkKXCBsIgtKVOW4iwFwmb6cQ1rWcr0ek/8YltbHJ+SlVDBHHrwQh3b35RAKKGC2RSzPL6FpZzXal9ByOZYSQ6EEuB1egVqnKQGQuNGioEgSZICFghX05bVTOIXnEhvHgeuow39eDALgTCRgQl/SZ74LedAOnIyUSbRl77syfSqra3cwso1RvLThPNXb3+YnvRhfMLE70525UC2bWAgAAxgFrMoYSm7s7aVBkJ2x0p6IPyLkwI1TtIDoTEjxUCQJEkBCwTYndVM4mg28wb9s/oKwtVcmxQIbSmmmCI6AZuYBwziHiZxOhW8ws6sj29t4v8MA8xm/4TzV/61jLPYRISerIpP/F6nL6tZQ4cGBcLRbGYmHVnFLEo4hatb8WcQsjlWkgOhkL34Pk8HapykBkLjRoqBIEmSAhoIg4D1dM1qIFxJGICD6MCilP8ZruAGDqcXl1e9daSE52uY+E3noITzV/71QvahhBL2Zl584ncFtzbiLUZtKWQfHotPU09iV75s5YGQnbGS/grCx+zGkgCNk9RAaNxIMRAkSVKAA2EDO2c1EMZwfPxUXxakTPxG8VO+YxiXVk38juHlGiZ+1/LrhPNX/vV3jEx5b/lF/LNRn0GoPr0zXzCIIQZCFsZKeiDAqUwM0DjJ/Bajho4UA0GSJLWAQNiRlWzOQiB8xc5cz1qWsktaIPyF24A/8icmcSawkN3YUDXxi23hLI5mE8+wA68mnL/yrxM5lA18x4Kqid8EBrCB9RQ2OhBKgBV0YaWBsNXHSnogfMrOvBugcVJbINR/pBgIkiSpBQTCbezML7PyNadzGEABvfgz36RM/BbSi4O5gUOYxEn0ZC+erdrayi2cRYhtOZAnk85fvf1XsCv7MLxq4reZ39GZ42nfpECAaxhsIGz1sZIcCN+jG7tzV9qHlHM5TuoKhPqNFANBkiQFLhCyywOlteRAyCYPlCZJkmQgGAgGgoEgSZJkIBgIBoKBIEmSZCAYCAaCgWAgSJIkA8FAMBAMBANBkiQZCAaCgWAgGAiSJMlAMBAMBAPBQJAkSQaCgWAgGAgGgiRJMhAMBAPBQDAQJEmSgWAgGAgGgoEgSZIMBAPBQDAQDARJkpQHRk4ZQa6WexkR+GVU81zKefkwVka1gMerpY/m+7q7T5IkSTk24o6nK6LkZhnPv4kGfBnPsiZfxv158grCfVs+zdGj8CqPB36k3MdnTb4MX0GQJEkGgoFgIBgIBoIkSTIQDAQDwUAwECRJUgsIhMN4L2XKMjRrgfABp1FIF24lyhQGEiXKJ+yYssY5pG5tbAuXJZ2zaKsEwhRCtKUtbbmKgURZy95MbbWBkM2xkhgIU9iW3ejNw4EaJ8mB0NiRYiBIkqTABcLbfJEyZSnKUiCsY28u5yPmMbneE7/Y1hZlMRAGJp26jl+14lcQsjlWkgNhIFFmsUegxklqIDRupBgIkiQpYIFwGW1Zxnh+wrH0ZAJRrqQNe3NfFgJhLEck/CV54vc++7MDx/MZ49mTPenF5KqtrdzCyonfrXRjf7bNQiDMozsftdpAyO5YSQ+EJzguUOOktkCo/0gxECRJUsACIUp3ljGeI1nH8xyU1VcQLuOKpEBoSxFFbM+ORInwKlHO4XbGcwrreY4ufBrf2uT/GZ7FnixjOR22UiDEtmoSUxjICVzWqj+DkM2xkhwIHehDIZMCNU5SA6FxI8VAkCRJAQ2Ec4jyKbtkNRD+zFVEiXIAHXg75X+G13MN/dmD/6l668hApmac+F3CjVl6i1EHjqMbK1t9IGRnrKS/gvABu/JugMZJza8gNGSkGAiSJCnAgVBOl6wGwjCOiZ/akzkpE7+7OJM13MGfqiZ+RzE948RvMLdkKRC6sIJzuNpAyMpYSQ+EKCcxNkDjpOZAaMhIMRAkSVILCISOLGFdFgJhFV34Kx8xj53TAuFiSokymN8zntOI8ha7Ul418YttYWziN5pDKefTrfYWo+SPni6kM0sMhCyMlfRAWEQXXgnQOKn9Q8r1HSkGgiRJagGBUEoXfpGVrzl9kUMpYA8u4vOUid9b7MEBXMOBjOc4etCHyVVbW7mFsYnfOn7DThxD+6wEQpTLOddAyMJYSQ6E79GV7tyW9iHlXI6T2gOhviPFQJAkSYELBA+U5oHS6hsIHijNA6VJkiQDwUAwEAwEA0GSJBkIBoKBYCAYCJIkyUAwEAwEA8FAkCRJBoKBYCAYCAaCJEkyEAwEA8FAMBAkSZIMBAPBQDAQJEmSDAQDwUAwECRJkgwEA8FAMBAkSZIMBAPBQDAQJEmS6hUI48fyZI6We3k4Z9dd/22c2AyXce/P8mGsjKp4NEePwv2MbgEjZVKTL2MkI7q6T5IkSTk2cvzDzMnRMo5ZObvu+m/jC02+jNEMz4tAGFPxco4ehTIeCPxIuY/ZTb6MkYzZxX2SJEnKsRF3PFNBjjzACoLuflY1/XbmyVuMxmz5IkePwltMDvxIGcP6Jl+GbzGSJEkGgoFgIBgIBoIkSQp6IBSn/Dw8w1Sm8ndHsKxZAmEWIdrTm3H1uO4X2ZsCBvAOAE/Sh4sNhBwFQnbGSmIgBHWkGAiSJKkVBUJxhqlM5e8WsaWZAqGECubQgxfquO4NdGUy67mHHmwE9uUjX0EITCBsnbGSHAjBHCkGgiRJystAuJNdOZBtgeUcSEdOJsp1tKEfDwJhetKH8VD1u6tpy2om8R8cSy/+zLHsyaykczYkEABG8tM6rns0Z8XXGcAULqQNP2C5gZD1QMjmWEkNhCCOFANBkiTlYSC8Tl9Ws4YOwCbmAYO4p+r/Zss4i01E6MmqhP+v3Z3VTOIY4AkOYgtPc0rKORsWCLPZv47rvpzS+DrncyewMxt8BSHrgZDdsZIpEII2UgwESZKUh4FwBbdWvVmjghs4nF5cXjX1upB9KKGEvZmXNukbBLzEacAC+qecs2GBMJ2D6rjuKxkSX+c33G0g5CgQsjtWMgVC0EaKgSBJkvIwEC7in1WTvlH8lO8YxqVVU6/fMTLDO77TJ32HpJyzYYFwLb+u47rHcHr81H5MNxByFAjZHSuZAiFoI8VAkCRJeRgIExjABtZTCPyF24A/8idgR1aymYkcyga+YwFU/S7zpC/5nPUNhKPZxDPswKt1XPcGduIh1nEzvdlsIOQoELI7VpIDIZgjxUCQJEl5GAib+R2dOZ72wEJ6cTA3cAhwGzvzS+AKdmWf+NdJVv4u06Qv+Zz1/5rTbTmQJ+tx3TPpy7YcwXwwEHIUCNkdK6lfcxrEkWIgSJKkPAyEbPNAaS03ELLLA6VJkiQZCAaCgWAgSJIkGQgGgoFgIEiSJBkIBoKBYCAYCJIkyUAwEAwEA8FAkCRJBoKBYCAYCAaCJEkyEAwEA8FAMBAkSZKBYCAYCAaCgSBJkgwEA8FAMBAMBEmSZCAYCAaCgWAgSJIkA8FAMBAMBANBkiTlRSCMIFfLKEYEfmmebcyPQBi1aQQuNS33Ns/lGAiSJEkNFR4WvsB7QfUYKReEh3kvSJIkGQiSgSBJkmQgSAaCJEmSgSAZCJIkSQaCZCBIkiTJQJCBIEmSJANBBoIkSZIMBBkIkiRJSprk7RKmzqXc+0mhULi8HmNlF+8nSZKkfJsG+gqC6jdSfAVBkiTJQJAMBEmSJANBMhAkSZIMBMlAkCRJMhAMBBkIkiRJCu9UevPNH12/5caNN79/wyXh9t4jqmGktL/hkpvfv37T9Vv+vrz05ps6eY9IkiTl46TvhBvXP/3Np2zkOz5kwpc3rQjv5b2iDCNlr9IVD375Id+yiU8p++bG9UNO9F6RJEnKM9cfftNXH5PonS2la0q7es8oJQ+6la6ZuyVxpHzETV+FD/OekSRJyqdJX5ubPvyAVM9tvPkx7xsl+/vjMzaljpT3+fvScBvvG0mSpPwJhGP+b31aH/Adpd/6/nIljZSdSr/dmD5UuDN6fYn3jiRJUt4YEn5uc4ZZH2O+CJ/uvaOEQPiPMV9kGinPbh5yrfeOJElS3vj7iNcyzfp4dMOQc713lJCS5z76ZaaR8ho3DffekSRJyp9pXw2vINz3xZAzvHdUzVcQJEmSWse075g7o34GQfUYKX4GQZIkqVVM+9r8fWmmbzH6+6PeN0qW+VuMblritxhJkiTlVyIcdtNXH6UeB2F1eBfvGSUr7Vq65p3U4yB8ef2h3jOSJEl5ZsiJN64v+2YFG/mWpTzw5U2f3NDXe0UZYnKvm1ZM+HIp37CRFZR9U7p+yPHeK5IkSXnopk43/v3mZddvuWHjP+Zf/z93FniPqIZEaH/9//zjvRs2Xr/lHx/e+Pfwjt4jkiRJ+Tz5Gxa+wHtB9RgpF4SHeS9IkiQZCJKBIEmSZCBIBoIkSZKBIBkIkiRJBoJkIEiSJMlAkIEgSZIkA0EGgiRJkgwEGQiSJEkyEGQgSJIkyUCQgSBJkiQDQQaCJEmSDAQZCJIkSTIQZCBIkiTJQJCBIEmSJANBBoIkSZIMBBkIkiRJMhBkIEiSJMlAkIEgSZIkA0EGgiRJkgwEGQiSJEkyEGQgSJIkyUCQgSBJkiQDQQaCJEmSDAQZCJIkSTIQZCBIkiTJQJCBIEmSJANBBoIkSZIMBBkIkiRJMhBkIEiSJMlAUGvXv936egfCwNAK7zBJkiQDQS1PjxAhQl+FXgr1i/+0XSwHQt/WEQj3hC4PhULXhUriP68JHWMgSJIkGQhqwfjeOYeEuGqv23tvN6H9sxu6nHNIiHv32NBlQ5ejT9rmuw1dEpejT9p2wx1jq38+9IyTjt7Qpd17+/wy9nObyCH/Wf23Np9t6EJ772FJkiQDQS3IFz1nzwjx4TMfTz3pk3OWRMpiP0XKImVPvNhuS6Rs+dQjyws3dfrmsvmRsideLNxy0DeFmwasnDc9UnbOkhCXvDfo39vQtqLdlhVTImXbfTfulUjZYy/tHi3YvOe6Tt9Eyr443ntYkiTJQFCLC4SCzdtU7Lbh1edigVCwuWBzweZtN7fbEimLlA198+UZE1/ebuPLM554sf2Whz57fuYhnx+4OlK28ukjyy95L1K2x/q73oiURcpigbB86g7fDl44d/p5iwwESZIkA0EtNBA+fGbFlD9+0PnrFVNmzwgx5YXnZz4/c+ibsUAY9dpekU7fFGy+640nXtxh08LlkbJ3pod4/blI2cDP0gNhyDt7rI+URcoenG0gSJIktVT9C76udyD40dM8DYRI2Zqygs1jX0l9i9EzzxduGvna6qf7rLv5rcpAiJQVbH7spcyB8KvFx68wECRJkoJom9AloYWhb0NLQueG6vhumpRA8LtpWmUgrHy6bUV6IFyw4LgVkbJI2T5rqwPh3/8K8c706kAY+mZ1IFz0wb5rDARJkqTAiQzs/0y7r88cc8s1/3XPOfdEznn44hBzz4ucEznnlmvabIyck7jccs123z0/uvrnvw0ZdnnknI4fXXRr7OdtN/z1huq/FUYi50T29R7Or0B4Z/o703++tPjbJc+kBsJf39078tmUB2YXbL763SdebL9l4mdvPnvSJwd/HimrDITDV565fN70D6bFAmHWzLYV17w7f9pFHxgIkiRJAfL4/27DqNdi/68bKav7u2kO+LIh300TOct7OL8CIcS2m/dZ++SL6SPl46mHfL7dxiPKL1iw/5onXjx4w57fFW46onze9OpAePLFzl8Xbrzp7cqRcuPbnb/+/sbDVhkIkiRJAfKrp3b5qjoP6vxumoqHFzfku2kMhHwKhMRxUteydF7sMwj1XQwESZKkgDh15oGrI2WRslefK9hcsHniy7V/N03HzUvnNeS7aQwEA8FAkCRJalH+35TdNkTKImUrn35+ZodND86u/btpYoFQ/++mMRAMBANBkiSpRbn3rhATX45N0gozBELyd9PEAqH+301jIBgIBoIkSVKLErnqyPLtv7vm3SdfvGJe24r0QEj5bpqKRxY35LtpDAQDwUCQJElqYYHw8dSffVj8bduKH0QHL/xsSu3fTdP/m17fNOS7aQwEA8FAkCRJamGB0JBp3MLlsc8g1HsxEAwEA0GSJMlAMBDyz9ru60bXf1k4+90FDTl/5EjvYUmSJANBeSt8QXiY94IkSZKBYCDIQJAkSTIQDAQZCJIkSQaCgSADQZIkyUAwEGQgSJIk5WsgDIycU//l6eeeH92Q80f29R42ECRJkpS/075h4Qu8F2QgSJIkyUCQgSBJkiQDQQaCJEmSDAQZCJIkSTIQZCBIkiTJQJCBIEmSJANBBoIkSZIMBBkIkiRJMhBkIEiSJMlAkIEgSZIkA0EGgiRJkgwEGQiSJEkyEGQgSJIkyUCQgSBJkiQDQQaCJEmSDAQZCJIkSTIQZCBIkiTJQJCBIEmSJANBBoIktXIjjh2BSxOX3zuOJANBBoKkmox60/niVl6ObeZAmLQugkvjl2lfGQiSgSADQVLNxs7/t3PGrbhMWmcgGAiSgSAZCJKB4BKMQJhB5xp/av5la19+81yLgSAZCDIQJDU2EPJrdvkZZ1BEKSEDIfNyJWVppzIvaxjMDhQzeCs8hF0JVS17GAiSgSADQVKLDYRgzC6XESLE9zmMZ9L+djPHs5K36hEI1bfgPMKtJxD25aG0U5mWtYygKzOZycNb4SF8i9d5hBCv8DpvGwiSgSADQVKLDYRgzC6XEWIyM/gNnfg85W8/43YizK1HIFTfgqnMbumBsD1HUsSPWJT2U4Rn2I/tOZ75RLiMbWhHAeUJp5LPMZcQf6Mzf+MqTkm4juc4jO04iOnMoBNnU8wRGS5/BofzEzpzMDfSj07cSoQVnE4R3bg5ZatfJ8TnKX+dzyG05zCWxQfKu3Ti6YTfGgiSgSADQVI2AqGlzS6XEeI9IiwkxNykyzibECFOTQiExMtP3I7qW3AxIUqJMIHeFPMTljGDI/gVXTmQd5PmrAEOhEJmMIfjKUn7aSE7MIxFDGZADY2XfI65hLiUtZQzgw4MjRfYArbjdv7N4yxmBm25i0Ucyx/S1p5BO6ayih9yGOVMo4BPiPAAbzONjryTIRCS/3opR7GAMfGS/Jz+XJf0WwNBMhBkIEjKRiC0tNllLBDWUEpnViZdxipO4B+sqgqE5MtP3I7qW/A5p1PKHDrwKEv5Eb9iBu14ggg/5fx6zk4D8hajhYSYn/LT9ZxIhAif0oYlGR/C5HPMJcTSqpdW+tOTJ4kQ5pi0a7ubkrS1K/92PhcTIUIhrxHhcfrTjQ48mDEQEv96F115oepa/sQhrE36rYEgGQgyECRlIxBa2uxyGSEK+B67MjntMk7ifxPeYpT8t8TtSLwtZ1DK1ZwWf8WhuGo7/o+Ses5OA/MZhEKeS/npt2xHd7rTnWLezfgQJp8j9d1ZQ+nAYs7j/LRrG8XhaWunPoRFzGY2RTzGGg5hVIZASP1rKTvwS1Yxg+/RhyLeT/qtgSAZCGpBI+Po8AlJy9BwWcpvTghv6/0kBTkQWs7schkhphOmFyvTLiM5EJL/lrgdqYFwbvzj1G8R4pmkbazP7DQggbCMEAtTfrqGnyWddz/uTzmVfI70j28U8yRXc3IND2Hy2pkewuvi5zg8YyCk//V9duEeZtCB9/g9/y/ptwaCZCCoBY2MieFnk5YF4U9SfvNseEfvJynIgdByZpextxitph/XpF1GLBDeJcTatL8lbkfibTmDUq7kTCJEmEzHlG2sz+w0AJ9BmMl7nM1xaT+9TRHj+JApvEGECCdzHotYknAq+RzVD+GblDKT6ylgAXNoz10s5iFeSbl7ktfO9BAO5TBWMoVC7iDCpZyRFAjJf53OIyxiL+6IX9JSdmRGwm8NBMlAUAseKb7FSGpBgdDSZpeVH1Iuo5B5KZcRC4RPacso1qb8LXE7Em/LGZTyGtvxLB9Swm9TtrE+s9OcB0IJ+1HEafHPmSf+FOFR9qKAfXmKCBFmshvFjEw6lXiO6odwCr0poB+PECHCI+xNB/blqbR+Slw700P4GcfTkVO5jqOIcD5HJgVC8l9HsysdOI1Pqy6plCMSfmsgSAaCDARJ2QiElja7rAyECD/h9JTLiAVChFJ2ZEXa9ldvR+ItOINSIoyiJ8X8go9TtrE+s9McB4KLgSAZCDIQJDVfILi0+CMpuxgIkoEgA0GSgWAguBgIkoGgFmTIheHh3guSgWAgGAgGgmQgSKFQKLxdeEk4Eu7hPSEZCAaCgWAgSAaCHCXbhv/1t1fDL4WXlHb13pAMBAPBQDAQJANBrds24YfCD4f/EB425K/ht8KF3iGSgWAgGAgGgmQgqBUbclV4zu0dYh9SDt8bfjS0jfeJZCAYCAaCgSAZCGqtI+Sk8CfhbpXfYhRuH35tyKXeK5KBYCAYCAaClC+TvV3C1LmUez+pasTsGP5kyLGhUPXXnIZ/EF4V3t97RjIQDAQDwUCQ8nUC6CsIqm18PBi+I36q6jgIQwaF545o530jGQgGgoFgIEgGglqZ60vCH97eITUQQqHwM+H/9t6RDAQDwUAwECQDQa1rbLQJvznk51U/JQTCDXuHP7+pk/eQZCAYCPUPhEtGEJRlVAvdjpEP+A9fMhCUW0PODL9e/Y1FiYEQCoVHDvmb95CUS/d9HZz5ZnCXe5uy9iXNHAiPVxAQ97MqENsxvkHbMctAkAwE5X5sPB/+RcJPyYHQJ1webu99JOXOuG/KCZ7XmBqo7RnNV41c8/EKA8FAkFqp2zuEPwj/y++1V4Y82Cu8Ivy9mgIhFApPC5/lvSQZCAaCgWAgSHllRLvwU+El4eXhv3tfKNWQv4aHJgVBaiCcF57ovSQZCAZCowLhCJalXOHwHAXCrrRlG9rQlgPSzjeJQfFTq+mU8PvirRAIswhRzAFMBGZRAmykH88bCFLWhceFn7p+xJBLw/OHXOK9oZTR8Wr4uNoC4abO4XV+2akUlEDI7XwzcyC8SYh27MHYlPM8SR8uZhZn1nI5w2u8XTRoxpoYCHXPQLMYCIvYknKFxTkKBIDfMyzj+bIbCCVUMJtilscfnlLO8xUEKfsTwMvCb97eITwsfEF4t/CKISd7jyjhmaxd+MtwYW2BEAqF3/eAaVJQAiG3882aAuFgKniFIj5POs++fAR1BEJxjberKYFQ1ww0a4FwNW1ZzSR+wYn05nHgOtrQjwdzGAjLOZCOnEwUeIke7M7D8UA4jVFVd/ed7MqBbLuVAgFgALOYRQlL2Z21BoKU7Tw4KbwivFvlh5SvPzK8Mtzbe0VV42P/8Pspv0kPhAnhX3tPSUEIhFzPN2sKhEMA2IfXgTA96cN4LqQNP2B5VSBU/h7g7+xJT8ZXbX3sdm3hv+nJ/ryadAvrN2NNDYTaZ6BZfAVhd1YziaPZzBv0D8QrCJuYBwziHmAwN/Md5UxiEEM5p+rufp2+rGYNHbZKIBzNZmbSkVXMooRTuNrPIEjZnv7tFF4RPjoUqv4Wo/BF4VcTP5KqVj5CTg+X1RkIN4av8Z6SghAIuZ5v1hYIb9GJLyjjLDYRoSer2JkNVa8gJP5+MoezgW9ZlbD1u7OaCfyILbzGnkm3sH4z1uRAqGsGmvVAGASsp2sgAqGCGzicXlwOPEd3xlDBJA6hgJeq7u4ruHUrvsWoLYXsw2PALAo5iV35Mi8DYWSfYce4NG15pK1PAVtp+jcxfEv8VOXXnG4Tnjrkr94zuXR39+D827v1ppunJf/mltv/MTn5N/8Y9o+Hg7PF9+6dD2NgWBf3+9lYRhTnayDkar5ZUyC0oZgCpgIXsg8llLA385ICIfH3v2d02luGdmc15zMu/mnauxJuYf1mrMmBUNcMNCeBsIGdAxEIo/gp3zGMSwFYxnFcxiS6Morjqu7ui/jnVv0MQvXpnfmCQQzJy0C4b+z9Xz+yzqXxy4gt+bETD54hp4UXVH6HffVxEMK7hVeHe3rv5M6Iv4z9Jij/+iZ+9fB3Kb9ZPzGa/JuHv574bVC29/6vRj+RF/+x9Mv7vnHfv7WXUd/ee1Q+B0Iu5ps1v4Kwmf48BvyOkVW/TwyExN+fn/Bx5sRA+C0PANCVuxNuYf1mrJneYlTzDDSngbAjK9mcw0D4C7cBf+RPwL/ZQBkD41v4I8rid/cEBrCB9RRu9UAoAVbQhZX5GAj3z/FQ5U1aRn1nIGwNj7QNvzfkR1WvJSQcKC18dfgR759cBsKsjf67b9wylzFP5UcgPB310dzay8R1rSMQsjnfrO0tRnPpzjomcigb+I4FVYHwOvvwTdLvH+BovuJbFids/e6sZgw/B16gb9ItrN+MteZAyDQDzWkg3MbO/DKHgbCQXhzMDRwC3E1XfsDk+Ba+x76U0wnYzO/ozPG0z0ogwDUMNhBcDIRsvX5wbvjZ6p8SA+H2DuGPwgd7DxkIBoKBYCC0/EDI5nyz9g8pX8V5wBXsyj4MrwqEjZzKn5N+X8Gl7EpP7krY+t1ZzSYG04cDeSNDINQ1Y609EFJnoFkMhNzyQGlBD4QZdK7xp+ZftvblN/f1GAhbR/jdxO+3TwyEUGjIpeH7vYeCGQj5ubdormtrDYGQzyPAQGh6IASFB0ozEAyELAfClZSlncq8rGEwO1DM4K2wwz+UvxMhwlMMiV9mAZ9yHmEDoaXkwTHheaFtagqE8A7htaU7ey+19EAIxt5iLiFCdGAAr8R/+qRqr1H7tcX2KHVtu4HQEkZA7DF/ot6X9iE/5/tszxnMq+OcDRkfBoKBYCAYCHkbCPvyUNqpTMtaRtCVmczk4a2ww7+WE4kQ4UKOiO+iTyTCVGYbCC0lEO4Z8pekn5MCIRQKTwgP9l5q6YEQjL3FXEIsZjn/xYkNDITYHqX2bTcQWsYIaEggrCXCyRzGZB7nKPZiTa3nbsj4MBAMBAPBQGhhgbA9R1LEj1iU9lOEZ9iP7Tme+US4jG1oRwHlCaeSzzGXEH+jM3/jKk5JuI7nOIztOIjpzKATZ1PMERkufwaH8xM6czA30o9O3EqEFZxOEd24OeHSZtOBciL05HssIUJ/buNiQpQyn0Noz2Esq/V6qs9lIOTENuEV4T61BcKQn4eneDcFMxBa2t4iNj38jLO5OEMgJK6RfGtie5Tqba/PXqN1BELLHAHVgZD4SGbemhdox0IiRPiYIsbxBL2JEGESexEhwgR6U8xPWFbjLavPaDEQDAQDwUAIfCAUMoM5HE9J2k8L2YFhLGIwA2r4H6Hkc8wlxKWspZwZdGAonxMhwgK243b+zeMsZgZtuYtFHMsf0taeQTumsoofchjlTKOAT4jwAG8zjY68k7DNu/MEr9KDEoazlLbM43NOp5RLOYoFjCFS6/VUn8tAyMnrBz3DH6X8JvUVhB3D6xLfgqTgBEJL21vMJUQhbejDvKqfCimkffwVhOo1km9NbI9Sve312Wu0jkBoiSMgMRCqH8matuY2Dqxa+wQuTwmEOXTgUZbyI35V4y2rz2gxEAwEA8FACHwgdI7v4ELMT/np+vibeT6lDUsy7vCTzzGXEEurXqDvT0+eJEKYY9Ku7W5K0tau/Nv5XEyECIW8RoTH6U83OvBgwjYP5k9cx4UM5T+5l35EiHAGpdxFV16o83qqz2Ug5MKQn4afrD0QQqHwRx4NIZiB0NL2FrHpYTlhdqOcuYR4iTnM4f54IFSvkXxrYnuU6m2vz16jNb3FqKWNgOpAqH4ka9qaKxK24BcMSgmEqzkt/mpGcY23rD6jxUAwEAwEA6GFBEKEQp5L+em3bEd3utOdYt7NuMNPPsdcQkmXPZQOLOY8zk+7tlEcnrZ26g6/iNnMpojHWMMhjEq43Mfpx6E8zWJ25Mf8uSoQIpSyA79kVa3XU30uAyEngXBF+B91BsK0ISd7TwU3EFrO3qJyeriWDkxOe4tR4hrJtyY1EOqz12hdn0FoaSOg+jMIlY9kTVtzB3tXrV3C/6QEwrnxj1K/RYjyGm5ZfUaLgWAgGAgGQgsJhGWEWJjy0zX8LOm8+3F/yqnkc6Tu8CMU8yRXc3INO/zktTPt8K+Ln+PwpEBYyfZ0ZjURjqEN0xICIcL77MI9tV5P9bkMhFwI3zzkijoD4aHwWd5TwQ2ElrO3qJwefk67DIGQuEbyranco1Tfirr3Gq0pEFrOCPiQEG8SIcKw+ES/8pGsaWteYpv4Gosp4CGeomdCIFzJmUSIMJmONd6y+owWA8FAMBAMhMAHQiEzeY+zOS7tp7cpYhwfMoU3iBDhZM5jEUsSTiWfo3oX+yalzOR6CljAHNpzF4t5iFdSdvjJa2fa4Q/lMFYyhULuIMKlnBG//P/gnPj/OXWKf8vEGZQynUdYxF7cUev1VJ+r9QTCvV+OwKWxy71vGAgtdW8xlxALWMiFdOajtEBIXCP51lQGQuW212ev0Vo+g9DSni/2YyD/4hF6MDhp/1/T1kQ4kX48waMczIGs5j0KeItyzmQvIrzGdjzLh5Tw2xpvWX1Gi4FgIBgIBkLgA6GE/SjitPi3UiT+FOFR9qKAfXmKCBFmshvFjEw6lXiO6l3sFHpTQD8eIUKER9ibDuzLUyk7/OS1M+3wP+N4OnIq13EUEc7nyPjl38MDRIiwhP+K/+YMShnNrnTgND6t9Xqqz9V6AmHUN6uIuDRqWcSYeQZCS91bxI6D0J7DmZnhW4wS10i9NbFAqNz2+uw1WkcgtLznizc5lu3pzG/4JGX/n3lrIizhJxTSjoL47bqGTvTld/FvMRpFT4r5BR/XeMvqM1oMBAMhJ4Ew/IYxFWUEY7mXSS1wO+5n5NTWEgguBoKLgVC/QHBp7R9Sbk3Lx3Tll7xPuUdSrm2WsfExygK33M99gdqekTzRyDXHVAy/oZkDYTyvBGQZy3MtcDsmGggurSYQGnLoo6YvW/vym//6DAQXA6F1Lm/yQ0Lx1w0MhMzGbHw2MPPN6uUxJgRqe0bxQiPXHE8zB8KISx6tiBKMZTzLArEd4xq0HdNb0VuMXAyE+gfClZSlncq8rGEwO1Ac/8aP5g6EtZTSmwL24P8aeHzc8wjXY+sNBBcDwSVChH/zloFQi7HfLCUauOVFngrU9oxiVSPXfLT5P4NgIBgIBoKB0PyBkP7FhTVN4EfQlZnM5OGtEggXsD23MIPhDGtgIExldp1bbyC4GAguW3cxEAyEAATCYbyXcoVDcxgIL3Bbky4vtu3L2DHhd0UNDIQphGhLW9pyFQOJspa9mWoguLTaQNieIyniR/GPHSb+FOEZ9mN7jmc+ES5jG9pRQHnCqeRzzCXE3+jM37iKUxKu4zkOYzsOYjoz6MTZFHNEhsufweH8hM4czI30oxO3EmEFp1NEN25OeuF/Gx5P+YLCxEBIXCf59lxMiNKErZ/PIbTnMJYZCAaCgWAgGAhNDITczjdrDoRczTwzBULdM9AsBsLbfJFyhUU5DIQLOLFJl1fULIEwMOnUdfzKVxBcWnEgFDKDORxPSdpPC9mBYSxiMANqeAUh+RxzCXEpaylnBh0YyudEiLCA7bidf/M4i5lBW+5iEcfyh7S1Z9COqazihxxGOdMo4BMiPMDbTKMj71Rt8c3skTIxC1FIIYW0j7+CUL1O8u35nNOTDn91KUexgDG+gmAgGAgGgoHQ5EDI7Xyz5kDI1cwzcyDUNQPNWiBcRluWMZ6fcCw9mUCUK2nD3tyXk0BYy+n8jAVEiRKmFz0YmXDqCy6gB/syg2FcWPUAZNr2yofpVrqxP9s2KRDm0Z2PDASXVv8Wo4WEmJ/y0/WcSIQIn9KGJRkDIfkccwmxtOrNPP3pyZNECHNM2rXdTUna2qlfXFjIa0R4nP50owMPVl3GZZQQIcI8CilkGnMJ8RJzmMP98UCoXif59qQeH/cuuvKCbzEyEAwEA8FAaHIg5Hq+WVMg5G7mWXcgZJqBZvEVhO4sYzxHso7nOSjHryBM4CZGUEqUh+lPOatZmnBqNCfyBTPplfIwpW977GGaxZ4sYzkdGhwIbSmiiElMYSAncJmfQXAxEIhQyHMpP/2W7ehOd7pTzLsZAyH5HKnHRh1KBxZzHuenXVvsm82T1870zeazKeIx1nBIwrFRb6QPESJ8zhy2Y2raW4wS10m+PamBEKGUHfglqwwEA8FAMBAMhCa+gpDb+WZNgZC7mWfmQKhrBpr1QDiHKJ+yS44D4TTms4z+RDmPu+O/qz41iBFEidKNIUkPU/q2xx6mS7ixyW8x6sBxdGOlgeDS6gNhGSEWpvx0DT9LOu9+3J9yKvkcqYEQoZgnuZqTawiE5LUzBcJ18XMcnhAIMwkxLX66KEMgJK6TfHsqA6H6dkR4n124x0AwEAwEA8FAaJZAyNV8s6ZAyN3Ms65XEDLPQHMSCOV0yWkgLKOY/vRne95lEMOrHpzKU79mFFGi7MINaQ9T8rbHHqbB3NLkQOjCCs7hagPBpVV/BmEm73E2x6X99DZFjONDpvAGESKczHksYknCqeRzVAfCm5Qyk+spYAFzaM9dLOYhXkkJhOS1MwXCUA5jJVMo5A4iXMoZRIhwOp34JzO5je9lCITEdZJvT2UgVG79dB5hEXtxh4FgIBgIBoKB0GyBkIv5ZuZAyOXMs65AyDwDzWkgdGQJ63IQCLfwF6JEGcK1jOJIVrGauQmnhvFjojzDnjzGqUR5le+nPUyxbY89TKM5lHI+bcRbjJI/IrKQziwxEFxabSCUsB9FnBb/FqPEnyI8yl4UsC9Pxf/vfjeKGZl0KvEc1YEwhd4U0I9HiBDhEfamA/vyVEogJK+dKRA+43g6cirXcRQRzudIIkT4jAvpTDv68ldWpgVC4jqptycWCJVbP5pd6cBpfGogGAgGgoFgIDR7IGRzvpk5EHI586zPh5TTZ6A5DYRSuvCLHATCAUwmSpRn2Yf1/Ilu9OC2hFMRzqU3+/M8azmBIxicoeNi2x57mNbxG3biGNo3MRCiXM65eRkIoyfPYmEglg94s0Vux8hNo3bM90Bw8UPK1YaVTtm0kOAs83mnxeyxXuS+mXkRiRc+9lWQxkDl8g7zArZF7zGn0es+sGHUKa0hELI538wcCLmcedYnENJnoB4ozQOlZeMVhKUPMjkQyyRGtsjtGMHd3Q0EA6EVvYLw9P0B2WfElvGMzcn1TuTeBq/zEPeV58UYuGdMoMZA5TKWBwO2RQ8yutHrjuLeP+ZfIHigNI+kbCC0EGM+/IBgKGd8i9yO0QaCgdDKAuEVguRFpuXkej/kwQavs5ixK/MjEKZXEECP8kHAtmg+jzb+1lQYCAaCgWAgGAgGgoFgIBgIBoKBYCAYCAaCgWAgGAgGgoFgIBgIBoKBYCAYCAaCgWAgBDYQjmBZyi5qeE4m5ofwCvAd5wNwGTembNskBlWdXk2nhEspbtbtmEWIYg5gIjCLEmAj/XjeQHAxEAKwz0gPhFlsS3f6MLnqXyysS9pDJO89Krd/eCP2JYmBUJ89Rf4GQu7HQKZAqHz8l7F7PcbQ3hQwgHdqOU/6barPeEkMhPqOEgPBQDAQDITABcIitqTsoopzEgjXMgR4lh3YDBzAWynblr1AKKGC2RSzPL5DL+U8X0FwMRACsc/IFAglwOv0qncgxLa/uMmBUPeeIn8DIfdjoCmBUMEGujKZ9dxDDzbWeL7iZgiE+o0SA8FAMBAMhIAFwtW0ZTWT+AUn0pvHgetoQ79GvJDe1In5KxwF/A/FvMgqdqEivm0v0YPdeZhJDOBQduPZhJ30nezKgWzb7IEAMIBZzKKEpezOWgPBxUAIxD6jpkD4FyelBcJyDqQjJxNlEn3py55Mr9r+ym1u2L4kNRDq2lPkayAEYQzUHQiVzx0Qpid9GA/M4ih+zmmM5qz4OgOYwhgurprwb+G/6cn+vJpwm6rXr894SQ2E+owSA8FAMBAMhMC9grA7q5nE0WzmDfrn8BWELXTlS/bjf7mSCfy6atsGczPfUc4kDuVLnuXwqp306/RlNWvo0MyBcDSbmUlHVjGLEk7haj+D4GIgBGSfkSkQCtmL7/M0MIu2FFNMEZ2ATcwDBnEPkzidCl5hZ9bHtz/5FYT67kuSA6HuPUX+voKQ+zFQdyBUPneUcRabiNCTVcxiJyLA5ZTG1zmfO5MCYQI/YguvsWfVbUpcvz7jJTkQ6jdKDAQDwUAwEAIaCIOA9XTNYSDA2fyTk1nJQfwm/jS8O6t5ju6MoSK+jVG6Vj2pX8GtW+UtRm0pZB8ei089TmJXvjQQXAyEQOwzanoF4WN2Y0nKKwgV3MDh9OLyqrcYlfB8xkCo774kORDq3lPkeyDkcgzUHQiVzx0Xsg8llLA385jFqQBcyZD4OoO4IykQzmccALuyMn6bEtevz3hJDoT6jRIDwUAwEAyEAAfCBnbOaSDcTyfuBI6mE2uqtg2WcRyXJW1jbCd9Ef/cSp9BqD69M18wqOqpxEBwMRByu8+oKRDgVCamBMIofsp3DOPSqkA4hpczBkJ99yWZ3mJU256iNQRCrsZApkCYzeEALKBPPBSO4zJ+x8iER+pMAMZwevw3+zKFsQmB8FseAKArq+K3KXH9+oyXTG8xqmuUGAgGgoFgILSAQNiRlWzOQSB8Ths+BO6I7+Rj2/ZvNlDGwAyBMIEBbGA9hVsxEEqAFXRhpYHgYiAEYJ9RUyB8ys68mxIIf+E24I/8iUmcCSxkNzZUBUJsmxu2L6k5EDLvKVpTIGR7DGQKhDVsz7Ns4A+cA1XPHRM5lA18x4KEQNjATjzEOm5id75hKv8BzGM7YAw/B16gb9VtSly/PuOl5kCoeZQYCAZCTgNh5N0jCMoyqoVux8jXW0Mg3MbO/DIHgQDnAvAR4YRtu5uu/IDJGQJhM7+jM8fTfisHAlzD4LwMhHsZEaglaNtT+zL6awMh+/uMTIHwPbqxO3elfUh5Ib04mBs4hEmcRE/24tmEVyZj29ywfUntgZC+p2hNgZDtMZApEOBB9uD7nMJnUPXcAVewK/swPCEQYCZ9aUeIh4GNnMJALqIY2MRg+nAgbyTcpur16zNeag+EzKMk3wJh9JYRuGzNZ7yRdzfzKwiPB+YwJ/ezKhDbMb5B2zHLA6Vt5UBoKduRN68g8B1BMpHFObneuTze4HU+Y+w3rTUQcs8DpeU6EIKjaQdKG0MPCripWbfIA6WFQuO+KQ/gWHmNqYHantF81cg1H2/+txgZCAaCgWAgGAgGgoFgIBgIldaxwUAwEAyE5r+BFY06h4FgIBgIBoKBYCAYCAZCrgOhuRkIBkIrCITko09mci3fsJoD6MhZfAv8lR04kIUJpzZzVZ2B8B5HUMAPeKPG66nrIO6NPci7gWAgGAiVjmBZM/27ap5A+Igz+T47cyf1PUJu7BbEtrohR8hNDIRZhCjmACZWXetG+vG8gWAgGAgGgoHQhEAorsfzy/Aan42aOxBmEaI9veNfalv7Vr3I3hQwgHcAeJI+8W+9anWBUFHPQKgAXo/fScv4jh9yP69yMF8ympMSTsFVvFBrIHzHHtzJ13xYy7cD1/UFao39gjUDwUAwECotYksz/btqjkDYTD+uYS1LmV7vQIjdguImBkIJFcymmOXxay3lPF9BMBAMBAPBQGjWQCiuZS6X/mzU/IFQQgVz6JEyQ03fqg10ZTLruYcebAT25aP8fgWhhOeA2RyXcDD6ykOQw9/Zk56MZxIDOJTdeBYynu8Cnqya5B/JDP7C7cBXbJ9wCp7lN7UGwgSOrzpdfZDzzAdxrz7gefMc5N1AMBAMhJiracvqZvp31RyBMJGBSf/2EgOhem80ib70ZU+mV92Cyq2uDIQ72ZUD2bZBgQAwgFnMooSl7M5aA8FAMBAMBAOhkYFQvReu3ndnmtdV/q7y2eg/OJZe/Jlj2ZNZSedsnkAAGMlP69iq0ZwVX2cAU7iQNvyA5fkcCOM4H/gjDyYcjL7yEOSTOZwNfMsqJnEoX/Ish0OG80FP3o9fXg9OAc5iIgDt+XHVqW9Zzi61BsJVXJcQC5UHOc90EPfEA543z0HeDQQDwUCoFPviwub4d9UcgXA11yb922tLMcUU0SlpbzSJ06ngFXZmPZkOgPU6fVnNGjo0IBCOZjMz6cgqZlHCKVydcR0DwUAwEAwEA6HuQEjcC1fvuzPN66qfc2LPRscAT3AQW3iaU1LO2VyBMJv969iqyymNr3M+dwI7N9uH2gMaCF/Rg6/py7cJB6OvPAT57xmd9PJ9lK6Q4XwVfI9P4uf8mhO5l5/zEACF/LTq1BYihPimlkC4guurTlcf5PyuDAdxTzzgefMc5N1AMBAMhORAaI5/V80RCFfGj4ZxEB1YlPIKQvXeqPItRiU8nzEQruDWetyS5EBoSyH78Bgwi0JOYteMb340EAwEA8FAMBDqDoTEvXD1vjvTvC41EAYBL3EasID+KedsrkCYzkF1bNWVVce+/g13t4ZAgN9yEf9N4sHoKw8gcj5jkwIhdhiU9PMlBgKM5Gz+yK3AWnZLOAVrCfFtLYEwOh4csa2qPMj53RkO4p54wPPmOci7gWAgGAjpgdDUf1fNEQhjqt562JcFKYFQvTeqDIRjeDljIFzEPxscCCUJp3fmCwZVPT0YCAaCgWAgGAgNC4TEvXD1vjvTvK62QDgk5ZzNFQjX8us6tmoMp8dP7cf01hEIs9mGeSQejL5y4v8AR/MV37I4abKQfj7YjQXAWt5kM2dxDQ/Qn6/5B39IOAUf0zHtxiUGwgZ24m7W8y+eTDjIeaaDuCce8Lx5DvJuIBgIBkLNgdDYf1fNEQhfsTPXs5al7JIWCNV7o0mcCSxkNzZUBUJsq2OBMIEBbGA9hY0MhBJgBV1YaSAYCAaCgWAgNCIQEvfC1fvuTPO66uecTIGQfM6mB8LRbOIZduDVOrZqAzvxEOu4md5sbh2BAL8GEg9GX/3KwKXsSk/uSpospJ8P/h//At5lXzpyJuvYyPl05FA+SzgFL1WdP3MgwMvsRwcG8GbCQc4zH8S9+oDnzXOQ99YZCKPWjuP+QCzjGN0it2MU9/RtDYHQ2H9XzREIMIcBFNCLP/NNSiBU740mcRI92Ytnq25B5VbHAmEzv6Mzx9O+CYEA1zC4lQfC8LfHBmSfEVvu476cXO/YRuyxxjF6Q14EwlP3BWoMVC6jGRuwLRrbhNE5mntL8y0QEvfC1fvuTPO66t9lCoTkczY9EEJsy4E8WY+tmklftuUI5kNrCYSmmxJ/l3DtbslQ0x4oLZfu++QFFgdimcOYFrkd9zKsR/4FQu55oLTABsKMZwKyz4gtT/N4Tq73FcY1eJ2XGbs6H8bAyDGPB2oMVC4P8kLAtmgWExp/aypGXpZvgRAcHigti4EAf2RjHeeo4MIMx1I2EHL7FqO3iQZiWcq4FrkdozySsoHQyt5i9HxA9hmxZQZTc3K97zOhwevMZ0yevMVoakWU4C2P8HbAtmgOjzT+1ngkZQMhXwLh6zonGFsyvhhjIBgIBoKBYCAYCAaCgWAgGAgGQh4GQmMZCMEJhMN4L2UXNTRnE/MXuK1Jlxfb8mXsmPC7ogZuxxRCtKUtbbmKgURZy95pkxEDwUBozYGQy31G5kDI1p4jMRDqs6fI30DI/RioKRBy9SySORDqO0oMBAPBQDAQAhcIb/NFyi6qKGeBcAEnNunyipolEAYmnbqOX/kKgoFgIARkn5E5ELK150gOhLr3FPkbCLkfAzUFQq6eRWoKhPqNEgPBQDAQDISABcJltGUZ4/kJx9KTCUS5kjbszX05CIS1nM7PWECUKGF60YORCae+4AJ6sC8zGMaFVTvtTFteuWu/lW7sz7ZNCoR5dOcjA8FAMBACss/IFAjZ23PUHAiZ9xT5GghBGAOZAyF3zyL1CYSaR4mBYCAYCAZC4F5B6M4yxnMk63ieg3L6CsIEbmIEpUR5mP6Us5qlCadGcyJfMJNeKbv29C2P7dpnsSfLWE6HBgdCW4ooYhJTGMgJXOZnEAwEAyHpFYRc7jMyBUL29hzJgVD3niJ/X0HI/RjIHAi5exapKRDqN0oMBAPBQDAQAhoI5xDlU3bJaSCcxnyW0Z8o53F3/HfVpwYxgihRujEkadeevuWxXfsl3Njktxh14Di6sdJAMBAMhIDsMzIFQvb2HDW9glDTniLfAyGXYyBzIOTuWaTuVxBqGyUGgoFgIBgIAQ6EcrrkMBCWUUx/+rM97zKI4VU79MpTv2YUUaLswg1pu/bkLY/t2gdzS5MDoQsrOIerDQQDwUAIyD4jPRCyueeoKRBq2lO0hkDI1RjIFAi5fBapOxBqGyUGgoFgIBgILSAQOrKEdVkPhFv4C1GiDOFaRnEkq1jN3IRTw/gxUZ5hTx7jVKK8yvfTdu2xLY/t2kdzKOV82oi3GCV/qGwhnVliIBgIBkIg9hnpgZDNPUdtH1LOtKdoTYGQ7TGQKRBy+SxSvw8p1zRKDAQDIaeBMPyGMRVlBGO5l0ktcDvuZ+TU1hAIpXThF1kPhAOYTJQoz7IP6/kT3ejBbQmnIpxLb/bnedZyAkcwOMP//cS2PLZrX8dv2IljaN/EQIhyOefmaSDcy2TKArSM5qGcXO8ERjd4nUcZvdFAyP4+Iz0QsrnnqC0QMu0pWlMgZHsMZAqEXD6L1C8Qahol+RYI9218LFDPLZVzuPsCtT0jeaKRa46pGH5DMwfCeF4JyDKW51rgdkzMy0DwQGmt+UBpLwVmn/AKrzCeqTm53sk0fN84nTGtNhA8UJoHSvNAaR4ordZZxsZnA/XcElseY0KgtmcULzT6ubKZA2HEJY8G5p/3eJYFYjvGNWg7pnskZQMhz15BWBuoJ9aHmJ+T632dSQ1eZwljPJKygWAgGAgGQgZjv1kawLHyIk8FantGsaqRaz7a/J9BMBAMBAPBQDAQDAQDwUAwEAwEA8FAyBAIsffcVS6xg6YPzVEgJB+xsPJ9eu/RvYGXOdRAMBAMhCYEQmw/0NR/U80ZCC9wW5Mub2iGPUxRHYEwhRBtaUtbrmIgUdayd8bJqIFgIBgIBoKBUJ9AyP1zS3ogVO/pF9ZjXpl+C1pNIMQOml4U2EBYX3Xq01ous8hAMBAMhCYEQmw/0NR/U80ZCBdwYpMur6hRgZD8ocLr+JWvIBgIBoKBYCA0OhBy/9ySKRAG1vs5JNMtyOtA2JM96cVkKg+ant0DpacHwjR+QHfGpATCFH7IjzmZlZxMD/pxA1Guoge9GUm0GQ70biAYCAZCbIntB5r+b6r5AmEtp/MzFhAlSphe9GBkwqkvuIAe7MuMlGOipm9/ZSDcSjf2Z9sGBcI8uvORgWAgGAgGgoHQyEAIwnNLbYEwnlM5mj24iKPpxZSE55bK7YzdgurfJ96WvAyEU1jPc3ThU2JfWJbrVxDOZQhrWJwWCJ34mCg38Vui/IzbeYSfEeFjerC0GQ70biAYCAZC5RL74sKm/ptqvkCYwE2MoJQoD9OfclazNOHUaE7kC2bSKyUQ0rc/toeZxZ4sY3nGbzRPDoS2FFHEJKYwkBO4zM8gGAgGgoFgIDThFYTcP7dkCoTYnv4dxnMUUR7kAL5gEickPLdUb2d3liX8Pvm25O1bjAYyNSCB8BS7MYz1aYFwElGi/IHbiHIt13I+ezGQgfTl1WY40LuBYCAYCMk78ab+m2q+QDiN+SyjP1HO4+7476pPDWIEUaJ0Y0jaMVGTtz+2h7mEGxv8FqMOHEc3VhoIBoKBYCAYCE0MhFw+t9T+CsI5RJnGyUSZw0EJzy1LkgKh+ve3Jd2WvA2Eo5gekECI8h4l/DfP0j/+T6w3UaZwGlGiTGZvxtCPN/gNd5J8K5pyoHcDwUAwENJ34k35N9VcgbCMYvrTn+15l0EMr8qCylO/ZhRRouzCDWmBkLz9sT3MYG5pcCB0YQXncLWBYCAYCAaCgdAMgZCr55b6B8KBCc8tS5MCofr3/5t0W/IwEE4jylvsSnlVIGTzQOnpgfAO5TzCESxnOyZTzu/4eUIgLGQwt/EuUcZyMOWsYQ7RZjjQu4FgIBgINe/Es7lPSA2EW/gLUaIM4VpGcSSrWM3chFPD+DFRnmFPHuNUorzK92vYJ8T2MKM5lHI+rcdbjJI/pLyQziwxEAwEA8FAMBCaLRCy/dzSkECofm6p3s7uLEv4/fh8D4Tj6EGf+GHJY4GQzQOlpwfC/7ILu/EwUe5jdwo5gX8nBMLTdKIbfbiPKJfQjb0YSrQZDvTeOgNh9CfP8EYglpmMapHbMZJhPVpDIGRzn5AaCAfE907Psg/r+RPd6MFtCacinEtv9ud51nICRzA4wysIse2P7WHW8Rt24hjaNzAQolzOua0+EIbPeCIg+4zYMokHc3K90xjdiHXGrMmLMTBmYsUbBG8Zx9MB26IyxjZ63fsrRl7WGgIh288tmQKh8mtOh6cEQvVzS/V2dmdZwu/zPBByvTT0QGmf8jpRHmRAM29HKw2EtRN4LBDLw4xskdsxgtF98y8Qcr94oLTATg7fHh+QfUZsGceYnFzvQ9zb4HUe5L4NefEKwlNjAjUGKpcxTAjYFj3AqEavO4oRpfkXCEFZPFBaXgbC8xzATuxDmYHQLG8x+oBgKGd8i9yO0R5J2UBoZW8xeoUgeZFpObneD3mwwessZmyevMVoegUB9CgfBGyL5vNo42+NR1I2EAyEZYHYDgPBQDAQDAQDwUAwEAwEA8FAMBAMBANhK+wUKxpxDgPBQDAQWm8gVDT6HAZCvgRCRZPPYSD8f/bOMzCqKm/jQycBKQJKr6KiqChNFEHEtrqIrOLKuoIrmNW18Kq7y6Iu/u+kIspKBCFIDdYgKA4gEDqhRwglQGgBCem5SSaFkPa8HzKTuZNMkklIyJ2Z57kfcnLnzsyZ57T/75ZzCAgEBAICAaHeAGElJlVxxH9xBSm4B23xIvIAfIg2GIBTmlQhplcRmB/HMDRDdxyo8FsWVJGLBQQEAgIBQReAUFd9hiNAuH49BwGh9usAAKxDEIDDaITWaI0vnKoDFQHCQcytsISrzhEBgYBAQCAgEBCqcd6msm61GMB+TAUAxOIqHsAK7MV9yMZiPK5JAdOxo5LA/Cp6IRi5OI/sCr+rdRV5bk1AICAQEOoNEK5Hn1EeEK5nz0FAqIs6EIhm8AVwGA9aXnWmDlQECO/gDxWWcFU5IiAQEAgIBAQCgkUjsRnAbjyCCxiAtngCZmzDQxiPpwEEoi96IxQrcT8GoyvCAYfHvY6fSwfrB7EF/8JsADm4QZMCwvFKJYH5Nxhdmi7CO+iNu7EXK/ECHsMtWA1gBhriTnwLQNAbtyIUqOB1AgIBgYBQV4BQv31GeUC4nj0HAaEu6sBUvGcBhNa4CSNw2ak64BgQ8vEsXsQlAEst+NFaU8LaHNnqii1HBAQCAgGBgEBAsGg5pgB4E9+iAEcBTMKX2Ib2UAGswVBkIQ9JWInByEY4hgIOjgN6I9ryeT3xJIAX8QMAoDnGlabycAEdKwnMp2OGZsj/A4qwD32xEiNQiAMYpDkLZMKLKICK3khy+DoBgYBAQKg7QKjfPqM8IFzPnoOAUDd14EP4AkjGSlzBeLyjqQ0V1wHHgLAan2E5Pi0DCLYrCLYc2eqKLUcEBAICAYGAQECwKAc9kYvbkIdi+GIo+uDf2IanAAB/x2K7S8VmdAIcHFeMxrhkOTIXj+ErjMd3AABvPFeaKoIKg+WOU0eB+TQYS9NTsBwA0AVzMQlAJjppOvk3cAdGYiT64aglZ/avExAICASEugOE+u0zygPC9ew5CAh1UwdKAKFEP2OUpjZUXAccA8JYnEcKhlYICLYc2erK95YcERAICAQEAgIBQdMhTcZbeAfAIjyHq5iP97ENYy2D7TK7jj4LNzs8TtvRAwsxAW9iFoA0dNWkgDQYkFdhYL5Y00lPxtcAgE6Yp/lmayf/GhaWucvV/nUCAgGBgFB3gFC/fUZ5QLiePQcBoW7qgBYQVuGPTtUBR4CQgjYYiqFohbNYViEglOTIVld+sOSIgEBAICAQEAgImg5pNxrgKIB/4VMAb+Lt0g78a4xADvJwxq5bLX8c0BUnAaThIArxIj7C1xiEXMzEPzQp4He0rSQwz0J7zEMmNuBnLMV4ADtwW5lh/EYkohA/YDCycBUnyw3zJa8TEAgIBIS6BIT67DPKA8L17DkICLVfB2yAkImNKMDz8HOqDjgChDn4EAAQBD+sxzMAjqKlpoS1ObLVlW0EBAKCpwPCwnkh0Mu2yEXzsXC/+wECMBEAcAp9cB98MVBzhud9dEFvzLXrVssfB/wZGwAcQX+0xVikIx9T0BaDEa9JAbvKdcP2gXkE7oIX7sdBFMAHt2IADpQZxj/FzXgJwDR0wR1YUG6Yt75OQHAWEEJ0tektP1X0HkWeCgj12Wc4mub0+vUcBITarwM2QDiN/miDP8HsVB1wBAj3IdyCL/2RjycxHG9Zrh2UlLA2R7a6QkCofS0uCgG3uhzxFs6r5SsIq3WzDuIKJOkiH6HVysc2LpRWgdZBnDjqk3LdJhdKq18twlXoST/gTL18bxRWV/s98VjGaU7roc9wBAjXTwQE/dQBx88g6EEEBINh+ZUE6E/7sF5X+VmMnBq+c3Xt32JEQCAg1A0gAG8iv4ojivFGuZmmCQgEBAKCZwJCTfsMAoL7AMK11QECAgGBgEBAICC4ACDkVhlqFiHrmgNzAoIrAEJxjY8gIHgSINSszyAguBMgXEsdICAQEAgIdQII9usJDkMsnF9svrYBIQXtNK/Y/+esFtTwVQKCawXmBIT6BoTKViIt0X9xBSm4B23xIvIAfIg2GIBTmlQhpjsFCMcxDM3QHQdq2O6d79MICPUBCNciAoJ7AEJtiICgf0AoiTFr0jfXHSBsgwGtcY9lxQ3Hau3E6FL2t1UnnnYJQIhBEWo+RWR9A0JxlXlvTUAgIBAQagwIxU4CQjGA/ZapBWNxFQ9gBfbiPmRjMR7XpIDp2FElIFxFLwQjF+eRXaPuG9Xo0wgIBAQCAgGBgFBXgFASY9akb65LQBiJYuxGa1woN845k8vWFfy26sTTugWE23Ab+mITgA/QCCnVWGy+bgBhF3qiB763/LcSz2AU+uA9jEJfbMNK9MHDuAPfwNEC6da82xZzX4kX8BhuwWqg0l9GQCAgEBBKNBKbAezGI5p2ZG1hQCD6ojdCsRL3YzC6IhxweNzr+Lk0wH8QW/AvzAaQgxs0KSAcr1QJCN9gdGna1uYdt2xBb9yKUMDplk9AICAQEAgIBITrAQglMWbN+ua6BQQAuB8fW8Yv2zgDBKMLBqApyi64Zx0Jrb+g5LfZRk/7ePohHARwEgNdDRD+iGLswc3IBNADKfV+BcEHQbiKhFJAeBjAT7gXRViLJ7ESzwOIR0ekOFwgvSTvtsXcV2IECnEAg3gFgYBAQHAKEJZjCoA38a2mHVlb2BoMRRbykISVGIxshGOoXXuztcTeiLZ8Xk88CeBFywXc5hhXmsrDBXSsEhCmY4YGFqxt3lHLNuFFFEBFbyQ53fIJCAQEAgIBgYBwfa4g9EBKDfvmugSEESjEVrTFD5bxyzbO7MdtSEEqvMoAgm0ktP2CHkjRjJ728XQI/g+AP2a6GiBMspw13K4TQNiMbliK4lJAmARgF54GcBKDSvP7BMIdLpDe2nKJyLqYe8nxmehEQCAgEBCcAoQc9EQubkOeph1ts7Swv2OxXc9hRie79mY9Trs2ai4ew1cYj+8AAN54rjRVBBUGXKkCEKbBWJq2tfm5Dlr2G7gDIzES/XDU6ZZPQCAgEBAICASE6wkINemb6xIQGsEbd2BV6fhlG2dewazSXGoBwTYS2gOCbfS0j6fT0RNFGFTuCQwXAYSHEaETQABi8Qj+6RAQBpbmdxS2OFwgvSTvtsXc7RfBISAQEAgIVQECMBlv4R27dmRdQGgKltn1HCUtq/xxWkAAFmIC3sQsAGnoqkkBaTAgrwpAWFyK/9C0+XkOWvZrWAg4yB8BgYBAQCAgEBD0BAjV7ZvrEhBGlqbGlhlnXsCc0lwu0wCCbSS0BwTb6Fk2nn4OSzC0kkhCp4AwFsApdEVW6Q9ydrH5ugGE08iCCcMrBIQ/ATiC9kh3uEB6Sd5ti7nbV8WKfxkBgYBAQLBqNxrgKKBpR9YW9jVGIAd5OGPXssofB3TFSQBpOIhCvIiP8DUGIRcz8Q9NCvgdbR36qgWELLTHPGRiA37WtHlHLfsHDEYWruJkOUBwtk8jIBAQCAgEBALC9QOE6xlvOgsItnHmG9yPLGTCG8B6PAPgKFrajYS2X1ASP1tHz7Lx9Gq0xqeuBwiPozdutyxLXvKDnF1svm4AYR46oTvWVAgIXdAHvfETHC+QXpJ322Lu9lWx4l/mmYCwKG05VuhiW47FLpmPRfjyNvcDBGAiAGjake3KwPvogt6Ya9eyyh8H/BkbABxBf7TFWKQjH1PQFoMRr0kBu0qPrxgQgAjcBS/cj4OaNu+4ZU9DF9yBBeUAwdk+jYBQlRYcWqaTPqNkW4Il9fK9y2rQYy3H4iy3AIRfluiqDli3xVimsxwtu4bauRhf+XsCIFzPeNNZQLCNM4V4DR0wGs0B5ONJDMdbaG03Etp+QUn8bB09y8bTOWiEi64GCPWt6i6UVvXs6zWTZwLCkks7cEYXWySWumQ+vsL8nu4ICNeudRAnjvqkgjNsXChNt4Cw5Ved9Bkl21qsrpfv3YPl1X5PBJaluEMdWLh0ta7qgHX7Fjt0lqNt+Kbmv6Z44T/dDxD0ouu/UNo+PFTpvQgEBAKC7m4xOgSzLrZzWO6S+VjElZQr1JvIr+KIYrxRwVrKBAT93mK0XSd9Rsm2Bevr5Xuj8U2133MMS93kFqP1xWbobwvDIZ3lKBJhNf81XEnZjQDhG9yDKAJCXQNCXYmAQEAgINSucqv8zCJkVfAKAYGAQEDwLEDIvOYjCAgEBP1eQahcBAQCgq4BIRR/0XROQ3AcZnxeL4F5LG60e20/hqAZusLZwGQdni63r+Jf0oqAUEeAcC0iILgSILRyorV9btez1A0glO05quonDGiO3ghxuq8gINQUEOxHF0fbNCQjAo3QCq3wKcz4F1rjbvymSaXj/WoBwgbchmYYjIhK3vE5AYGAQEAgIBAQqgcIh5DhYOCvD0BIRQ/MQhKOIfEaAKEVAYGAQEC4ToDQqpJ2VtKz6AMQhiMTO9EdvzrZVxAQqgMImU4CQibM2IY3YEYE7i8t1XuQiHl4RJMy4/0yJVUZICSgI77HZcxGd6Q52fsTEAgIBAQCAgHBISD0RV/0wRqY8U80Qiz+g4bohyX1BAgb0R3dsBSL8XDpKxl4HT3RH1sQiqcwAr3wFkagD9YhFL3wEG7HYg0gTEdP3IKFMGt+iW2fGbPQGXejKQGBgEBAqCEg2NpQNO5GG4xGvMPWZt1X0rOUbb327fJaAcHac1j/zscbmmDQ9k3rMBxmmBGMsVXknoBQMSAMxy8wIxwjNR6uwwMYhydghqAPemIhQjEY96EL1tjVFNtxk/EdzIhAK3TAg4jBVATCjCS01KTMWIOXnAaEeXjekhqMH+3qgG0UcbasCQgEBAICAcHDAeFJZGIzbsJlmNENsfV8BeFvUJCKM3gf/yl9ZTEeQwa2og9C8RDM+Bb3IAMr8ShC8SzMOI2bEWsBhDA8DxW/oyfOlf4S7b5t6ItYXIAXAYGAQECoESBo25CKvTDjL5jtsLXZ+pJuiC3Xeu2PvFZAsPYc1r/a4FD7TVZACEf/KnNPQKgIEEIwCWb4YInGw3Voh99hxvcYhASk4BxCcR8SsQaD7GqK9TgzeuIAzDiPUCRjHF7H81gGM8xojjGlqRRE42anAeH/MMOSmoRZdnXANoo4W9YEBAICAYGAwFuMYMZwrNcFIPyCrpiPTLyLD0tfmWS5X7gzPsVfYMZGPAEzInFvae5HY40FEKbgdgzHcNyGvaW/RLvvXfjxFiMCAgHhGgBB24Yy8REGoRf+z2FrKwsI9q3X/shrBQRrz2H9qw0Otd9kBYQ1uKfK3BMQKgKEJHRHEvoiRePhOjwOM8x4FfPsRpd4dLSrKdbjMtEYJ0td+g4jMM5y5doLY0tTGfgdBiQ7CQjv4QNL6i8IsqsDtlHkrJNlTUAgIBAQCAgEBJjxEDbpAhDMOI6ReAfzLIOIGWZMxCKYYUZHfGYXYgwozf0ImCyA8AqCy91rqt3ng08ICAQEAsI1AIK2Dc3FWKTif3jbYWurDBAGlDny2p9BKOk5rH8XaIJD7TdZAWEaJlSZewJCRYBgxkT44HW7GmC9yXMSFtiNLgm4yeFx9oDwNZ6ED/xgxkV00aTMuAgDUpwEhPl40pK6Az/a1QHbKHLOybImIBAQCAgEBA8HhKdhxm/ogoRSQGiLs0ivJ0A4jASEYRgS0A6f4TJ+wneYj3Ew41f0LRdihOIZmLEH7XAJ23A7krEM9yEBqYiEufSXaPctxmAk4DJvMSIgEBBqCAjaNjQV/jDDB3932NpsfYkjQLA/8loBwdpzWP+uwlMwYy9awGz3TevwIFSsRmtsqTL3BISKASEcDbDXrgZYA/9FeBBJSEGUHSCUP86MLoiEGZfxM1Q8i/9iEe5FEox4TZMy4wTaVOMh5XZYgkv4GN2QbFcHbKOIs2VNQCAgeBAgLPBdWmyCPravsNIF87ECC9e7HyA8gp64FWtKz/OZ4Y+b8EI9AcJn6Iiu+B5mbMKd8MJg7ICKv+EW3I3tDgChM3qhJ76FGWl4HG/BjHfRGbdbJrKz/hLbvnS8gvZ4GM0JCAaDYRH2I1JH2wpsqpfvXYcV1X7PNo8FBG0b+g29cA8+wgCHrc22zxEg2B95rYBg7Tmsf9PwKIbBx3K22PZN62BAU9yN75zIPQGhYkAwYwLMdh7argy8jc7oiU/tAKH8cWY8h59gxmHcgdZ4BvFIwyS0wX04rUmZsdHB/HQVT3O6Fn3RBAYshdmuDthGEWfLmoBwLVqSvwom3W0rsERX+VmIn2r4zqXFC3xrGRBCsUcn2zJsdsF8/OCGgODaC6VVPc82F0qrtE/YELJdV9vxkIO2/+Zd/vL0dfrefSEna/CuxZ4JCFwojYBQO9uPmO7EUb5YUe2F0uajO5rhYy6UVn9RRn64buJN27YK3+gqP4uwo4bvDEUtA0LIuz/qZqH0UMTqIh/Lq5WPTVxJmYDgVoCgb8l8eZ0uEBAICO4KCGb4VLJagXW9hClVrKVc0UrKl5BAQKg3LbtyTlc9Rsm2E7/oKj+LkFRTuK79ZxAICAQE9wKE+soHAYGAQEAgIBAQrnVLQmoVR2RUGeZXBAj1txEQ6goQMq/xCAJCtQCh7Hw1ju7Gs+4bguN1AgjrYEBz9LZMQlbZ1kqzHFbt5IaAQEAgIBAQKAICAaE+AKE2NgKCewBC1fcDTEMyfkFXtMXLSIcZ/0Jr3I3fNKl0vO80IHRGIzRAQzTCXdW6F2EANsOMVEyCGWa8g/9WGrG6FSC0quRHHkJGHQHCcGRiJ7pXsaC6PSDUTm4ICAQEAgIBgSIgEBAICASE6w0ImU4CQibM2IY3YMYKbEIK7sFKbME9SMQ8PKJJmfF+pXFk2SsIr+J/FXx3ZiWY8gHMWIPWSIcZd2FXhe90YUCYhc64G01hrmK5eeu+f6IRYhGKpzACvfAWRqAP1qGmi5WXBQQzzAjGWLvPs+VLm9sSQLDm5k8Yhd6WLrsmOSEgEBAICAQEioBAQCAgEBDqBhCG4xeYEY6RmqhuHR7AODwBMwR90BMLEYrBuA9dsMYu+rMdNxnfaT7xR0xFIMxIQktNyow1eKlGgGD7bts3amNKW3ozHoAZ/0ArbMA53Ix0vI6e6I8tmnfaItaN6I5uWOpagLANfRGLC/CCucrl5u2XunkIZnyLe5CBlXi0xouVOwKEcPS3+zxbvrS5tV5BKMnNg0jHdtyLmi6bTkAgIBAQCAgUAYGAQEAgINQNIIRgEszwwRJNVLcO7fA7zPgeg5CAFJxDKO5DItZgkF1Uaj3OjJ44UNqiOiEJz2MZzDCjOcaUplIQjZtrBAi277Z+ozam1KYz0BGJuBMBeA+LMQGL8RgysBV9St+pjVj/BgWpOONagPAu/EovgVS13HzFa2HeW+PFyh0BwhrcY/d5tnxpc2sPCH+BGZfRETVdNp2AQEAgIBAQKAICAYGAQECoG0BIQnckoS9SNFHdOjxuCdHn2d1iFI+OdlGp9Tjtutt/QhDMGIclMMMML4wtTWXgdxiQXMNbjEq+2/qN2pjSPr58Hp9gNM7iHryEJZhkeX62M5Za3qmNWH9BV8yv8IYlnQKCDz4p/QFVLTdfMSAMqPFi5Y4AYRom2H2eLV/a3JYHhJJlWGqWEwICAYGAoA/NaqFMK7PtU1bb75G36BMBgYBAQCAguBIgmDERPnjdLqqzRnKTsMAOEEriufLH2QBhDW6DCjN84AczLqKLJmXGRRiQUkNAKPlu6zdqY0r7+PIr3IhZMONB3IgLmIhFMMOMjlhmeac2YjXjOEbiHdcChMUYjARchhfMVS43X7LPMSDUdLFye0B4ECpWozW22H2eLV/a3G7D7Uh2AAg1ywkBgYBAQNCHZt4gQWW2Qx9vtN+jfEifCAgEBAICAcG1ACEcDbDXLqqzhuGL8CCSkIIou3iu/HFmdEEkzEjFLVhjeee9SIIRr2lSZpxAmxo/pGwPCNqY0j6+PI+GOAYzgjAIZszHOJjxK/qWvlMbsR5GAsIwzLUAIR2voD0eRnNUvdy8dZ8jQKjpYuVlpzltirstD6DYPs+WL21u0/A43nIACDXLiacCwg6c0cUWiaUumY+vCAjXQbzFSE+A8KtO+oySbS1W18v37sHyar8nwm0AYbWu6oB1+xY7dJajbfim5r/GTWcxmgCzXVRnuzLwNjqjJz61i+fKH2fGc/gJZggMaIRGuAtpmIQ2uA+nNSkzNpYef62AYB9T2seXf4UZZpzAdJih4m+4BXdje+k7tRHrZ+iIrvje1WYxqt+NC6XVpxauXZarj23plcWFDvbmLSvQQz4q3hZlhd7EoJGA4Dla8Lle+oySbXHeEm0fcXVp/vXqKZYUVv9di7a5BSD8e0mOvmqBpS7kL7taUWktLayPHC2xr53Ve2/Ogj+5IyBc+/YjpjtxlC9WVAMQ6nsjIBAQqGpKeUw20QWKgEA5WVNel/l0gSqroNaSQRfcBRDM8EEaqlpXYUqlaykTEAgIBAQCAkVAoAgIFAGBchtASEJqFUdkIKHS1wkIBAQCAgGBcvWQr5U8r+yRMOWJ4GZ0gyIgUAQETweEa98ICAQEAgIBgXLlcK+xf5B/7rLMX4vWF4Rk+GcYp9ATioBAERAICAQEAgIBgYBAeahCmgTuDM0xw6pEBGcHzqMvFAGBIiAQEAgIBAQCAgGB8kgFBH+dUwyt8vB5tvEvdIYiIFAEBAICAYGAQEAgIFAeJ/9OAbk5KKtLCEgyNKA7FAGBIiAQEAgIBAQCgqcM74PkUe2mTJNI+z3yqLShTx4Bh6+FZcOB/mc2DqQ7lKXHGFGmd/hcTOV6jKb0yePqxa1lRpKxkl2uXnSnTwQEAgIBgYDgKt365xJut/0maWX2hBvvpE+eIL85exzxAX4wC28yoqw9xg9l+oeTcqlsjyE30iePqxevl6kD26SgbL1QnqNPBAQCAgGBgOCqZ5F5i5HHyv/z3Q4B4XsCAlVZYMhbjKhy4i1GBAQCgpNaOC8EetkWuWg+Fu5nwycgUHVY9hXeYiSD6A5FQKAICK6gxUX6iTf1u311De9dWLtz+4W8u7oYOtEKJOkiH6HVysc2XkEgIFB1G+p19M8p/5Dy73xImSIgUAQEl9HyKwnQn/Zhva7ysxg5NXzn6tq/xYiAQEAgIFD6VuDnKxxMc6pMoDMUAYEiIBAQCAgEBAKCh2q2l3GKHJTOdMIzFdIkcNfynMzSVpeA4OzAL+gLVSEetBJ/WSXt6QSlVVgjvyGSJbfw2qP7AELxNR5BQHAKEFZikuarhiEWwIJ6AoQUtLN77TiGoRm644DTYfvYcvsq/i2tCQg6ll+3oB98r3yePbcgMDfwnLxARzwy4GvsH+CXszTj16K1hQsy/NONr9ITyrGMdwaF++UFX5mb558XFCWP0BHKYDAYZt4QMMvP/FnWvOJZWf6pvtM46a3+AcE+KnWk/+IKDqMRWqM1vgDwIdpgAE5pUoWY7jQgbMNIAEAselSZt4sYixa4GcHViELdBhBiUFQudK4vQLiKXghGLs4j+xoAoTUBwRUH+wf9M7fl51rOA5xDcFbAN9KQvngkJLRSnpNfZaM8zqGdqkjK+IDs/UX5AIAiROOTbH8jXaH8ugVc+DE33TJuJ2F5dsBhrqSjR0AodhIQigHsx1QAh/GgZd9e3IdsLMbjmhQwHTtqGRCKUYg78RHScA6bPAUQbsNt6ItNAD5AI6RgBhriTnxbb4CwCz3RA9/jG4wufaUI76A37sZerMQzGIU+eA+j0BfbsBJ98DDuwDeaohH0xq0IBTS/xbYPCEYXDEBTAoJeO/Ue/pnn7PzOx6Js/wA647GQ8IH40wWqwvoxJCDHvv/Oxv+y/SbRGc9WcLOAMxGF9iHe2rzAHXSmvgBhJDYD2I1HcAED0BZPwIxteAjj8TSAQPRFb4RiJe7HYHRFOODwuNfxM4DDaI2bMAKX8S/MBpCDGzQpIByv1AgQrBGoNmq0fvcPGK75DFtcqs2lmwHCH1GMPbgZmQB6IKXeryD4IAhXkYDpmFH6yjf4A4qwD32xEg8D+An3oghr8SRW4nkA8eiIFEvRmPAiCqCiN5JKf4t2337chhSkwouAoFMF/rg9v6zj2QjI5cqXniplmgTRBaoiBR09Wu6G40T4Z4g3vfFk+U4NzS5/Fjg4SxlDb+oHEJZjCoA38S0KcBTAJHyJbWgPFcAaDEUW8pCElRiMbIRjKODgOKA3ogEkYyWuYDzewYv4AQDQHONKU3m4gI41AgRrBKqNGq3f/QH+q/kMW1yqzaVb3mI0Ett1Agib0Q1LUYxpMJa+MgXLAQBdMBeTAOzC0wBOYlBp/p9AuKVo3sAdGImR6Iejpb9Fu28aZvEWIz2fDfT2vXLFgeemPN9pdMdDAeF9+ZQuUBX0GLcE5Th6IHFJpvyJ7ng0OMZccFAvojBzA72pH0DIQU/k4jbkoRi+GIo++De24SkAwN+x2C4qNaMT4OC4YjTGpdJP/BmjMB7fAQC88VxpqggqDLhSA0CwRqDaqNH63f+BAADuhRdiNHFpgiaXbgkIDyNCJ4AAxOIR/BOLLUUCAJPxNQCgE+bZAcLA0vyPwhZL0byGheWeNNDuewtzCAh6Hu7v+yLDkefHMHMt3fHQOvEPmUcXqArwcfw3mY56jB3Fvrwt0ZN7jYbGwkIH9UJFYBLdqR9AACbjLbwDYBGew1XMx/ulIfUULLOLSrNws8Pj7AFhFf6INzELQBq6alJAGgzIcwoQdmMoAOAkbtVEoNqo0frdS0tvfL8NJzVxaUC5XLoNIIwFcApdkVUKCDciEYX1BginkQUThiML7TEPmdiAn7EU4wHswG2WqqMFhD8BOIL2SMd+3IEr+AGDkYWrOAmU/hbtvm9wP7KQCW8Cgi5lfGhBuiPPYzCT9456agj4N1lCF6gKAsFXfsxy1GPsRcCXdMeD60VzY4GjepENv0y6U1+AsBsNcBTAv/ApgDfxdmlI/TVGIAd5OGMHCOWPA7riJIBMbEQBnocfvsYg5GIm/qFJAb+jrZO3GKXiBoQjC//AXzQRqDZqtH53Dm6GEWk4h444qYlLbbksiULdCBAeR2/cjnCgFBA+xc14qd4AYR46oTvWAIjAXfDC/TiIAvjgVgzAAQeA0AV90Bs/AcjHU3gPwDR0wR2WCU6tv8W2rxCvoQNGozkBQZfy7eX4hoG9xYGL6Y6HDvUvynd0gaqgdjy6wOE1R1OevEd3PFl+WWYH9eJ3BMXQm/oCBGAiAOAU+uA++GKg5srA++iC3phrBwjljwP+jA0ATqM/2uBPMCMfU9AWgxGvSQG7Kj2Xb78OwrfohRZ4EvF2EagtarR9dyTuRzP0wXu4oolLbbm0RqFuAgj1rWtdKK3qGXOdEwFBPwq8dNGB5/PN8kd645lSxsoaukBVAAjN/XLLE0IhZubIHXTHkxW0am9R+ZFkXR5vPatPQLh2rbM8CVC5PsGPTgNC/YuAQECgnAsHJ83LKnttOKo44CxXQvDYGvGYbKILVEXyD/i63FXHrflBrDOejo79A3PKPp6SAL8suYneuDIgAG8iv8p1Fd6odC1lAoJHAEJtiYCgIzUI+mlpdq7G7yPF/maeDfTggX647KILVIX1o2nAb6tyCzTBwc6CgCT/m+mMp8vvn7OzUzQjySUE5fg+T19cHRBycbWKI4qQVenrBAQCAgHBRRXWKGBOQM76vBM4gwPFC8yB54gHnizjQPmNLlAVa1aLwB9nZm8uOIXT2F30uTnooHSmK5TB4PuaX9aPOUdwDofxdZZ/uvI0PXF9QLh2ERAICAQEV+7Y+/jN+CQ86Jz/GXmWNxd5eF3oJyfoAlUFRt7j/8nMSzPPBSyQR+gGZZW0V6YGFn4SOXOVvDqrBf0gIBAQCAgEBPcY9AfLYbrg6fLrJpfoAuVEMLhImUwXqDK14m6eYCAgEBAICAQEN1NwM8mR5vTBwwf4lpJNFygnasp3ygS6QNlL+ZuE0gUCAgGBgEBAcLchP0oG0QWPrwVXpSldoKqsJ7/IM3SBKlMr5ipT6QIBgYBAQCAguFvnHsLOnZJkzklDOVFPNiuj6QJVplYcMQ6lCwQEAgIBgYDgZlLGy1q64PFD/Cm5nS5QVdaTvXI/XaC08u8kaWGN6AMBgYDgJCCsQKROtuXY4YL5WElAuG4KbCuZwc3og6cHfsZhdIGqsp4clbvpAmV3iulv8h1dqE9A2K6beNO2/YzvdJWfxdhbw3euQG0DwvCQ7brZYkL2lN/7RcHCiOudj4V7q3P8V39lw79ug/4+eZgueHgdWC9P0QWqynpyVm6hC5RdnfheXqEL9aeQxTqKN0u3hQdCoh2/MjdjweF6yNG5kF01fu9wT2vSqQHt2LAoS20Q+ZQueHgd+EZ5iS5QVdYTVW6kC5SmRjSXVP9O9IFyusZsN46kCwQEykXk21cu8x5SD+8R5ipv0wWqcoU1kgIuqkhppYyXTXSBIiAQECh3rQ+RnJvEw2uAUWbQBaqKWtJeUukCZVcnTMLbgSkCAgGBclcp78oSuuDRNeBNmU8XqMrle5vE0AVKE0ncJOnSkj5QBAQCAuWu9aGjqOJNHzy4Bjwra+gCVUUteUD20AXKJuVdWUoXKAICAYFy5xqxWv5BFzxXxsESSReoKsLBMWKiC1TpqNFYznOJNIqAQECg3LtGDJHzfFDZg8u/syTQBaqKWvIKzxdTmvrwF9lGFygCgkvLOFCZVmbLFqP9HnmUPnl4s92tPEcXPFVhjeSqNKYPVGVS3ueEyJRmzDik/IEuUJXWke7los/zyoIyeybQp/osogckqMyWI8Fl9jxDnzx88B8nB+iCB/cSl6UrXaAqrSOB8h+6QFlqw5Ny1NCAPlCVybdPuegzTlbY71Feo0/6atpcD5MqWycaSgxXVPbg8j/Au4mpKurIN/IXukBZasNOTnBK1aDeRBvvpAv6LqI9xgfpAmUv5c9yiMsgeWyf8JP8iS5QldaRXTKcLlAGg8Egz0sUn1qjalBzUuQmuqDvIlosr9MFqowaSATPEHpsnzBX3qILVKV15KJ0pwuUwSBN5YzyGH2gql1zOksSXdC5lL9zNgrKQeO9X2KlOX3wyD5hugTRBaqS3qGx5PFBdsrSW6ymC1QNas54rrij726+t0xRgiTrvwPpBVWudqxS/kUXPLLkX5Af6QJVsfx6yEW6QBkMcpOk+PalD1R15X+zHPh4lfK28UHezKzHht09cEtgzsrsTUWri2ZdCTwqA+gJpZVvX0n270QfPE/Ge+QYXaAqqSEPyS66QBkMEiqz6AJVzVrTKvBr/ytfF28qXHslODMgTp6kJ/oK/vr5p+8qLESJihFVHJCtjKYvlF0zFq6W6oma7SW5fOiQqljKS/ItXaDkGTknLekDVR0FtAuINeXlwapzmJnj+wZ90U+zbhoQd6QIdroA/0w+UU7Z1ZPG8hunr/PIkr8gvekCVSEg8CkVyiDt5bKMoA9U9RS4fdNV++gzHYE5MojO6ETG10OzUU7r8wKC6Q1lV1PukWS/LvTB44b+jVwXlaqkfizk3HeUhMlMukBVs9YMn51VVC76PFQ8M4Le6EQz98eU5wOkICCZ3lBlmrOv/EIXPK7Ug+X/6AJVYf3YY3yILni2lAlygvPcUdVVwJc7C8tHnwXwywtqTXf0UUSpGQ4AoRjGguBmdIeyCwWayjHlZfrgYYP/mzKfLlAVqIGkB7SjDR49LnSVRCNnP6SqrU8iTsORvsgw3kt3dA0IvoUEBKrcUHC3JEt/+uBRZf6obKULVAW1o7vE0wWPrgHN5YD8kz5Q1dfMY44BIZiAoJsi2n/KQQElw79InqU7VFkpE+Q0L/95VADQlSEgVWF/8AfZRBc8un9YJKsMDegDVe2a86Rv7s4i3mKk7w7+76FZDh9S/lYS5Bn6Q5Vr1vNkDQcED1IDyWJ3TVUwfvxL/kcXPHg0eEuOzGpBH6hq9xxPS4LRhw8p672BNw24FOVwmlMZJInKJDpE2SukieySf9MHD+oj9vIxVKqCurFMptAFjy39ByTBtw99oKpdc/4h8XKfwRC0bWMepznVtXz7+afvLLAtlHa4OCBbHjEYDAbfvnJSQqQxPaLsGndXiVdG0QePKe95ylS6QDmsGwflfrrgsePAZeUx+kBVT8HNZJEcKVldJ6BdQOwveVfsFkrz47TJOmvo3YM2B+aGZW8q/ClnVlZglNxtfSWwrYTLBmlDjyitlFGSIHfQBw/pH16V5XSBclAzGvL2M09VYFs5Ku/RB6raWLlfvrPdliatAlf4X/nGvLHwl9w5mQFx8jg90qF8e8mryjTl72XnqJHGEiwnjPfQIcquXrwov0t3+uARZT1AjtMFysGo0Vcu0AVP1Gwv2SVz6ANVzbHkGYlX3i239yblJfm38rZxmDSkRy4n5SVJUqaFNaITlKZWvCnRciN9cGEtNji1uFFIE8kW7xp8/nBDHE126z7gZfmBLnieQprIOgnlVBVUteDgRvlaThsfpBNuJ79uskX2+valE5SmwX8qe2sUOFJ6UEtDjmGskyW9xziy0gNmGKyvpxoeJiB4TA8wlzeZeKAayDJZw2cTqWqdTHhaLkkIZ7xy16GgofKuJMsUnjWg7AaKXzhQuJrQGI3RuPlEAxquKElXtfl95v/fyl5vcMR7bEnKkNpitHVvy5GGODQG64f7jgqR8gBd8LhS/59sk+b0gXK6xrSXbyWG1w7cXMY75aDsMN5FJyhLw28qG+Ur3jfoWkpbqJpU05Ckxy955yeuVU2qadWufqpXwS0ZP0TYp4MPdMnyzh91OerQgvQuWapJNYXs625WTT/tvDPtqYvtrvTJ2LtZNU063QCNipsUxa1TTS2vLt+jmlbt6mFuVtg3vd0V1aQupOPuqdlekj3biz54WJ/vL5HSij5QzimkiTJVkmQWewpP6BwaykSJlzmcuYKy1IiWsl2W8vkUVwOEExubFB0Mb5UXsk81Hd7kVTD96LGNi/Yd36hNb9/arHDhvpMb7k98Om5+QZdsLSA0Kl6yVzWNins2VjWppl6Zcw+oJtVUAggX1rfJ8zkVtenVGAKCW7f9h2UvXfAoNZDZcjigA42gnOwjHpVjspknlT1IgW1ljiQpU3nemDIYDAbxlk3yPW80ci1AmH60n6qaHr/09EXV9OaJe5NLwnv7tM+pYQmqSTV9u9s7f35u11wtILTOU02qaUbUgJTygKAc7pVZ8j4Cglu3fKME0AUPKu+GslAOBLSjE5RT9eVWMclpZTyd8DgZB8t+ieB6d5TBYDAEN5Of5ZfgZnTCdQChf+o70arp08hWV5PXjr1Qch1ANakmbXrMhXGxqkk17dxiQHByt7zygBD02x1p5QHh5TOj4wgILiYnZ7SyCwB2VWOZLD6w7uIKayTLZPvMG+gEVbUCOsgcSVbeDWlCLzz0bIIyWS7Jj7796AUlTWWVrOODa64CCAfDGxR7FXgXeBU0wPI9PqeGJtquGtjSk2NGxKsm1bRsT8v8pTFdCisDhM8P2gDhrRP9UwkILqVqzGhV2ua9JcvhnCSc0coNFdxMVsta3kdOOdEztJcgSZMvpD298PSw0EfiJcy3D73wdIU1khWygQOIawDCO9F9MkoC+mEJ42K3b21aKFHHN849sHG7Nh2+zatg5a5TG+5NGRu7d3tT7NwWt25EvCNAGJo49sLRTSc2lgDCtq2Nij86cmzjWycICHpX6ri0F9JemBBswK070l6ozrbXb+VJR/vbXngjqCTV1Pwfse79cIZXWtoLGY/QcVfUrBaySb7j2WCqKgW0E5EUCZXe9IIyGAzSUpkmKRLi34leEBFkO5dOcwVAuCVjckwJIHx4pN2VVNP8/T3MzQp7ZS7fo9qlg37rlO2dPzru7K+q6c3cVgXdzeNiHQHCzzs75HrnBxyyzmLkd6hDbov8IUkEBL0rPay6M1qd3rBob5cs1RRz/svfqz2j1Sw67nryv1n2yUJOREFVEQveWAIHPGFM2VNjB5ktqRLAS0oergYicsb3Nhqhd0Cw3kRUne1MzOkzNXkfAUHvgFC9Ga2eulgCCEeyFxyt9oxWBASXk/EuOS9BnJKEqhQO2otRUmWhXw96QTmQXzdZIGkyhxXEs6VMlkQZQR/cDxAu7zpqJiC4IyBUd0arRXu7ZMVvj8qtwYxWBARX68//IEnKS/SBqli+fWW+qLLQtxe9oCqjyJtEJFXCjHfSCw+uBY9ySHFHQFBNUbkJ2wgI7gcI1Z3R6sv9XbLOnjgVW4MZrQgIroUHU+WSDKEPVEUyDpRQSZM5fl3oBeWEZt6gTJVLYuKy2h6MCP0lVsTQgE64FyCcij1zkoDgboBQ/Rmtlu/plH1MvbSvBjNaERBcpxdvLF9KlHSnE5TD+tFQGSN75KwyVbzpBlWdqtNUJsopiVDGMEj00BrQUQ7IUmlKJ9wJEC7tPZpOQHA3QKj+jFYHw5sUrcmPW1+DGa0ICK7Sg98oW2WVw2lsKdaOluIjMRIpE/noOlUjhTWSF+WwnFDe5NIqHtmFeMtPsoNzW7kTIKhrD19N2kxAcC9AqMmMVm8kty6q0YxWBASXkHGgnBV/nt6jHIzs/WWupMkPxsH0grr2jiZU0iSETyV4oBoo0yShGmutUnoHBNOpCzW4yYiAoGtAqEk9OJoZt6dGNYiA4AohoI8kK3+mD5S9gpsp4yVcLksQp6Khaq+76ahMk0sSoYyXxnTDw8r+YYkT4RR5+pL6ZfpPNdsu74jKqu571C/puHsBQsK2qCtpawkIbtljt5LvJZIz2VNl6sUtEiRJEq6M53J5VO1Xr6bKeAmXOBGuleBhJX+TbJZ1XD7NbcrzJGc18XRAiDlXwxUxCAh6b92D5KzM4bNjlE1hjZQxEi4JEsTVkak6lXGwLBNVFvHuNY8adBqLyEXjMDrhDlI+lHl0wZMBIW1dVF7CVgKC26mBMlWSlfE0grLKt4/4SbxsVf5MaKSuiwI6KNPlrBxVpga0oxseE1aOkWRlGn1wA9zrLimzveiD5wLChUPHkmv6DAsBQa8Kai0r5QDPEVOWfr6VMll2SqJ85nsb3aCus4wDJURUMfG5BA86F3FIVhIK3WDo+EWZTBc8FxCOp16MJCC4l5RRckE+4d3llMEgDWW4hEiamPi8AVWvjCo+EiFxvLfNQ8q7uXwqccrTdMLFy/FxOUwXPBUQ4ndEXVHXEhDcR7NayFy5qDxBJyi5XURiJVqZFtCBblB6qJJ3SJAkSoT4cD0+DyjtB+SMhHJlDJdWAzkpw2mDeyjzxfSJ1dnW7d76ffXeod3SnqTj+pLxQTktYZxEwuNH5jbiIxFyWeYY76EblK4U3Ez5s2ySFJnDx5fdviPyljkSKw/TCRcuw3fkO7rgifLrIqnShj64h2Z7SZBcVsbSCY/uzZsr42S1ZMg38jjXRab0O/j0kBkSIzHKx3IL3XBnKU/IJQnhFSOXHVJaSYr0pA8eWPIz5TO64CZl+YDESBifCvNchTSRp2S5qLJVmSyt6AflAjLeKUESL9HKNOlIN9x2cGojKyRaBtEJFy2/AJlLFzyw1aZwDVV3UMm1A3mWTnhoS24ow2WOJEmkMlU60w/K9apviKRLhPjwfnV3lTJBEpWPOb+yS7bQm0T170QfPKzUFfmKLri+jA/Jafmazx14MBokSLQI18umXLkqN1fGSJhkikkZzzDSLUu4s/wsJ4wj6YQLlt1cCaALHlXibSTZtxd9cHm0Xya/87kDjwTDO0XknESLyK10g3ILBbST12WXJMs844PSkH64m5QxckHC5CY64WKBRk9J4TlIjypxX1lIF1y6BBvKREmQObwq73FocK8Eynk5KeLbj25Qbie/Hsp0OSJxMsf4EDHBzYYtbxFJVKayXF2s3BZIIF3wFAV04IPpLt5e75N9skP60wmPQsLh8pmcl3MSyOlLKTeXby9lqkRIioQqY7gCs1t1ZHfLHtnFwculyqyzpPl1oQ8eUtpfyP/ogqsqsK3MkTiZaGhALzxDYY1kuMyRyxItQTKc5U55zlDV04YJXArcbdSg5PK3tKQVLtMSP5NguuARJd1bkqQ9fXDZnjVRQoJa0wpP0GwvZYyESppEivjeRj8oj5RfD2WqREgqMcGNwpCO8q2cU/5AJ1xDvO3EY1rmSvkPXXDJkhsgu+UgFyD1BAW2lYkSJhkSwclLKcpgMEh3GyZwpiN3kPKYnJY1vn3phEu0v4/ke7rg9qU8XH6f7UUfXK7cOkqIJMirvMHE3RXQQSaKSTLFJBO50jlFlcWEd2WPpMpSZRzX53V1hTRRpkqKhPCWBv1rtpdcMD5EH9y6d20sUfI8fXC1lqlMkxSZw3DRzVvn3cp02S8pskwZS4inqIqbSld5S8IlU36RKf430w9XVkA7mSNJylQ+iq77VvcX+Y3zT7l1Cf9bNtAFl1IDZbzEiokLYbkzAMpT8qVclLPyuTKa4yRFOaVZLWyP6BgH0g/XlW8/WS8n5Sk6oe9gRPYqL9MGd5VfN0lmoOlKMg6TPXKA1/XcFthvkokSJumMcCiqhrJM8vW7nJM58ij52mU7w0clWsKNd9IJHZfRELnMGxnctnR/Vj6kCy5TWrdKmFzkdKZuin53KtMkQlIlTCYGtqUfFFU7TSpFQpXxnEDTFcUnElwgLJkvX9AFd5TyBzkd3Iw+uEQrvFGCJFGZJs3phZuVrLcyRkLkcsnpTs7ZSFG1Kr8e4iMmyZRwZap/J/rhagroIAskUd7iPFX6VGBbSTAOpQ/uF5jIeWU0fdC/ZnvJvyVF5gS0oxfuJN9epZHLNK5pQFF1OdzdKH+VlZIhEcp0LjvuajLeJevlnPyFD8Tqsm1NlIO8kc/tSjVIVtAF3ZdSU+UNiZMf5VZ64TZl2lx5TD6TkxIvX8mzs1rQEYq6LgpupjwhwXJWfpcFyhhOiupSkDBMdshxZTyd0J0ayHr5gDa4VWsbLAmcDU7ngWRDZbyckXAZRC/cQ759lbdlnWRKhHxkHMhnSSiqfrrW3raLd3I7/XCZcntUjsgeGUEn9CW/LpIod9MHt2ln3nJKXqAPOu8Lo2SPMopOuEV7e1SCJFqS+AgyRelEs1ooYyRE4iyzHfEed1foShsq4+W8hDMc1ZeUv8lhPkDnNq1sniynC7qGg4NylFdT3aAkS05VZkuEMo3XDChKh7LMdmQWk/hIZ/qh+061qfhIgoT59qIXOiqVn5SP6YJbwN5j8jvPYup2tBomW+WEMp7BpCvLcnLyopyXEGV8UGs6QlH6DnDaK+Mti6wFyXA+Dqvz0mqpTJNUCZGb6IU+5N9Jkng3tBu0rDZykTeu6BQO7pIwuSA+YY3ohcuW4Z3KNAmXDAlXpnGpM4pyKYU0UUbJLDkp8bJEXpAb6YiuQ9L5kiLChbp0Elr+VaI5D7vLl+L38ild0GG5DJDVckl5gzfyuWj5dZS/SqgkSbR8Jo+zn6QoV27OvZU35RfJlL3Kx8ahPGOjV/n1kBBRJYiQoItW85P40wVXlvKyRM/2og/6knGg/CxxylSWjAv2id7ypHwmRyVNVoqPdKcjFOUujbuxDJcgiZQUCRMf6UpHdFlKPUsggXdy1ntJ3CRx8gh9cFX59pUkGUAfdAUH90iYJCjTCAcu1hc2NA5Upkm4ZEukBHENZIpy48DH8nzCOZkjjwY3oyO6C216SYgkiRAS6rmlPCyX+aC/i5ZdczkkPvRBR3AwTExyUZnKG1JcSf6dlPESKqlyjg8gU5THKKyR5ZxAhoQr03z70RGdBTi9JUQSRaQVvajHUhDZxlvyXLLklsq3dEE3pfGAmOQC4cB1NKuFPCpBEilJEiY+ft3oCEV5oALaKeMlRC6VnCGYeQMd0Y98+0moJCrTuEp2vQU2DWWTCH1wNSmvybFZLeiDLtrQcDFJrDKV16pdQfYnDrmaAUVRBkMDGaBMk62SKZvkPelPQ3QzvPaXHyVe/o+QUE/+3ySXlMfog0uV2d2SxGuiuiiJR2S7nFYmSWN6oXf59lPell8kQyIlUB4hzlEUVbZDb6mMlS/ljMTLcvmrdKQjOgl4VkmiMp23G9WL+w9LPJ9EcKHyaiNnlZfoQz2XQkNlrOyVk/JX3qKnb/l1UyZJqFyWC7JI+bO0pyMURVUq/04yUcIkjTce6UW+fSREVJlDaLv+Uj6W7Y7m7eB50XoOQhs7CkxljcyhN/WpkCYyUY7LYZlIONBx62mvjJEgiZRkCVOmcpkziqKqpdL7EbMlQplmHMgVmeu5S+8pcyRF5vh1oRfX1feG8ovMK7f3RtnNm4/qEdsek93lF3+UANklTelOfSm4mUyUMxKhjKEXOu3NvC2PH5tLnjLgqE5RVG10KckSxuVR6lf+N0uQpEuo3EIvrp9m3iDHlL/blUMnOSJzOLjWoxqIyAn7+VXkeTkf0IHW1NM40UqZKnFikvvphQ5Lp7H9WgbEaIqiarOL6aiMlxC5zDmR61WLJ3YRkWQJldvr5POHG+Jocln59pJ4ebi0JdwuF5RpdKW+pUyVS8a7SkvlPkm0/UddT/nfXNIn8eFw3Y3aDY13io+EiSqRMkcZzyfZKIqqQxnv5KqK9aaWhhzDWINh5g3KVIkXkwy6hs+aYRhpSaUaHiYgVDHQPiqJ0ttgMBiMgyVBmUxHdFEqf5VE44MGg8Hg30kuyjN0pKrTC4ZaX4tAeltufezG3kNXbaO3+EiYdZGz8rfjURRF1ZFmtVD+ILPlmKTJj/K6b186UrdK7pg5JHPI6BkGdFmfOSRzSOaQSyNXzlmYsmzXltdK/q/u1uL0uPdKUo0zXn7duvfV15okZw7JHKLyClHZAfc9iZrVQhktifIU3dAVuD0lzWUfr+k4e3qhVjTDMNJgMA6WMK+iMUsD2vH0gl7k10NekeVySS7KEvmrfyc6QlFUPcm/k/KyLCvpjpSXOMtOXSn1WdWkmoYkPX7JOz9xrWpSTat29VO9Cm7NDc09pn5/op/qVXBLxg8Rqin4QJcs7/xRl09vWLS3S5ZqUk0h+7qbVdNPO+9Me+piuyt9MvZuVk2TTjdAo+ImRXHrVFPLq8v3qKZVu3qYmxX2TW93RTWppvR76Xm5YHSZHLSesab0IuNgSZCDsoJOVCQ0Tn8v/b3099782oB7I0vS17rddPm/mzaeXZ+2/6fmOTPnWffO/qJlRvp76WPpeT30Tl2Vl2WxnJcE+U75O0/ZURSln+6p5IKmZWpUaUNHah8QTmxsUnQwvFVeyD7VdHiTV8H0o8c2Ltp3bNOew97FH1zdd2rR/uMbt29tVrhw38kN9yc+dbEsIDQqXrJXNY2KezZWNammXplzD6gm1VQCCBfWt8nzORW16dUYAkJFUt6VPAmlD7rre5bLFfmAPlSk6KYl7bz86YWSUwratDOnF9LW/S2xARqjSXHcekenF1I/oufXT/43K+NljkRKspi4+jFFUfodqhsaByrTxCTpJU8ocEXG2gSE6Uf7qarp8UtPX1RNb564N7lk2C9Jx+2OTozKOxPz2plhCapJNX272zu/7BDfOk81qaYZUQNSygOCcrhXZsn7CAgO1UBETvj2k6PyDs3QFba9L8cDbuesUlUBguPTC8c3atNOnF6Ify4t6srxlN45FZ9eICBcDwV0sKxkkMkJSymKciVQsE6qlsHOq/YAoX/qO9Gq6dPIVleT1469UHIdQDWpJms6fsfJS88VvZCZFK6adm4x4Mv9jgAh6Lc70soDwstnRscRECpSWCP5SvZLe4NBesplZRwd0U1P84L8Lt0NhsC2sktCOWVCxYBQ2ekFa9rnVGWnFxK3xJyfUTgwL2F75acXCAh1qZk3cCUDiqLcYfhuaenMUiyXP6kaA8LB8AbFXgXeBV4FDbB8j8+poYm2Yd2WnnLukexD+ScvLT3cMn/5nk7ZlQHC5wdtQ/xbJ/qnEhAqqMXeslY2SUvLf4Mk2TiYruiiZEZIkvEeR6VElQWEqk4vqCbVNObCuFjV5Oj0wo+H2hYeyo85H3S06tMLBIQ6HUvNEq5Mk+GEYYqi3EJ+XWSiLJc4iZVFygT/m+lI9QHhneg+GSVD8rCEcbHbtzYtlKjjG+ce2Lhdmw7f5lUQtu/A2SFFz+XsOdCkaOeWuHUj4h0BwtDEsReObjqxsWSI37a1UfFHR45tfOsEAaHMwHyj7JZl0ti2RxkjmcpmWSwBymvGkVya6zqXx03GkcprEiCLZatilkc1rzSWZY7WVyYgqCbnTi9MjhkRr5pU07I9ttMLC/b3yD2W9vWVtgVp6507vUBAqE3NaiGPSpBESIaEi3CJM4qi3FS+/eQt+UlUOS7ByjgO5dUBhFsyJseUDMkfHml3JdU0f38Pc7PCXpnL96h26aDfOmV75z96OSo6KufN3FYF3bLGxToChJ93dsj1zg84ZH3M0O9Qh9wW+UOSCAh24WhXiZZPyj74J3mSJO8pH8piiRBVzslyZRIfzK9bBbZVJslyOSdpEiGLlA+V9z9O+fhKmYMayCcSLV3pVllAcP70wspdpzbcmzI29mB4k6IdO6KjHy3sVXjx4Opdzp9eICDUSs/TshQMIvg8H0VRntL1WVd3TJNoznnkLCBYz/I5v6Wt/f3A8ZSonLMnkjdU970EhFJAeN3B3itilKOWetvAt59MkVWSISZ5inOI1EV/IX+UtZIhK5XJvv1KHJZWEqVMlxwHR79OQCgPCNU7vTA67uyviVveSGuDXgXPJVT39AIBoTbBQJrTE4qiPE5hjSyPMmeVzHk024ue1CYglGzxO09eOpQfcz5xMwGh1gbxAmksc2Sr9qyetFRelkg5qfyZ/tSiGigTJEYOyl+1TxeENJFNMl+aylUa5BwgVG+L2x0dX/0+w7oREGoiy8PHvGJAURSlCa2scx5lc3LU2gcE1aSaErfEnD18NToxLoKAUCs1NktahjWSVfJd2TlE5BE5JNvldnpUG/LtJzvloHFkGY8bynfyozQMai0Z9Kh2ASFt3cXIo+lR2eeOp62vaW9DQKhWX9LK9vCxCEc/iqIoB7I8jsV5GmodEFSTakr59dzxw7nH0i5GqmsJCNc4qMdJZ4NBmsom+VK7f+E/QmSh8sW6z3KCV4UIt2vbvlj9WXbw2gVKiCz8h537/5Pt0txg8OsmF1kXaw8QkjedPRF15XjK7weurachIDij0nUMzHz4mKIoykmVzvRsWQKG93XXBiBYn0o4pkblVH1+kIBQKSCckDsMBoNBWskh7Rq+Sy5tRgS3Wt42Y8klm8fKh3I0sK3BYDAY75JjrIu1AwiXd568eDj/5KWE7dfeyxAQKu07btIucMbTYBRFUTXpSjsqE+QrOSuJ8p34+N5GQKidLW53dMLhq6fPJIUTEGpYMzfKkyWpgA4SI1NsgHABKrda3i5oAEEmyln/ThZUeFrWsS5eMyCsvRh5LC0q9+yJ1A21078QEBz2GZ2VCbJATkia/Cz/Z7yXC5xRFEVds/x6yCuyXC5KvHxbISgsNtTtbA/DDXHuAgglTyWcOn8o/8TlyxEEhBoM9vOl9KYX3z5yWXmOgHA9AEEZIwm29q9MlWDWxWsBhOSNZ05GOX3bIQGhRn3FLcrfZKmclWRZLe8Y7yEYUBRF1cU5mPESIuclUcKUqXa3HrU05BjG1tLXzDBYH4pMNTysF0DIHJo2o7a3RP/fftmUHB7/2y9JxrKvZfRmfatYyrva0FTulgQZ4SwgbEGHCv+r/a32Pv8lJNQzIMj9kqBdjV3mK2+zLtYUEC7vPHnxUP7JS/E7avfUgy4BoR5OH0lv8ZFQuSDx5UYriqIoqu5BwTT/8L+Sn5/wuQF9t6c9Vxtbm9i/B5Skmpr/NcO694MPvdLSnkt7wu28bCiPikkSJMivC2uW0649IJF2wDBKkmRA7QPCf2Aql3K8pcIHbdAaPnUECJfgha9rKeCv6rc4BgTpL4nyuF0pRBkHsy5WLTRIH6Xdkh7bKF9HLk1dvSzmWftXamdT++vMgOt4+iiskXGgMlXCJFXOSaj4GO9k/aMoiqoXUDh0IionKu+BvKfSWxQkrlVNqmnVrn6qV8EtGT9E2KeDD3TJ8s4fdfn0hkV7u2SpJtUUsq9kCaA705662O5Kn4y9m1XTpNMN0Ki4SVHcOusSQKt29TA3K+yb3u6Kakr/yk2dvFXmiCphcj9rlTMKbiZZ2nn5DQZ5Vn6XnrUNCP3xXbmUoy0NIeiErdiK7+sIEEJgwJ9rCRAq/y2OAcGvm1yQF+wcbyVmPuBZ7ZbeUZkmlyRCGS+N3f/Xpo9Qv1e/V/YaMCpW/b42th7pc3aWpFpeXbLVunfF5htzL288dWRZRMninzLRrxvrGkVRVL0qLUQ1Hd3epHhrXNviufnR8RGnvAqnHz22cdG+4xsPb/IqsKa3b21WuHDfyQ33Jz51sSwgNCpeslc1jYp7NlY1qaZemXMt0/y1vLp8z4X1bfJ8TkVtejXGnQHBYDAYglorU+WCRMpETwgdrjnQ+lUZX2bP63JmyWVnAOEGPIhW+ANiyv2n4lfchRswGseg4p9ogCZohgRNyv6IKBjwMTrgY0zHk5rv2IwhaIl7sQlb0A4T0BrDHHz+FgzFn9AB98EPd6IdZkFFHP6IVuiMoDK5fhwT0BpJZT7dPv0NbkFr/Amx+Am3QIWKlbgdKrZgGF5GJwzAEbtfdQwD0RxDEFs1IFyWk8pUe7+VCbKW9bA6Mg6UUEmTEOnvKb84Y7RqUk1Dkh6/5J1fR6eP9vTMaV50R0EHHMmIOb9+htzIekZRFKUbQJh+tJ+qmh6/9Me4i5Fvpw8tjMqLjj93PH7nmyfuTbbeF+tzaliCalJN3+72zi87BLTOU02qaUbUgJTygKAc7pVZ8j53BwSDwWCQxvKC7JZY+ScHuiqcelVWltvnuyjPGUDwxhZEYjRGlvvvFNpgPmLgg/sruIJgf0QUDHgfaUjAFnjhcyRDhYqTaInZOI3VOIMtaIS5iMEo/KPcu7egCdYjCQ9gCBKwEc1wCSq+xiFsRFsc1uT5LJohGh2wssyna9OR8MKPOIc/4OVygNAEP0HFc5hi91vex0M4iaVOXEFYlCe+5dz+SXmZ9dDJ2tpcXpVDEqO8La086XdnjFZNJzY2KToY3iovZJ9q0p4yurbTR0mbbihYdHm/2h5v5O6MffVyuyuqSTWpD7GuURRF6QgQ+qe+E62aPo1sdTV57dgLz8YmhV+MPHkxKuf5wudzzh2P36maVNOYC+NiVZNq2rnFgC/3OwKEoN/uSCsPCC+fGR3nOYBgCScGSaiosljuY/2qSIFtJU06lt27JMH5W4xOwYBjZf4z4jGoUHEZDXHWISDYHxEFA85ZjliPQeiNn6FC8HC5b5uHkeXebX1tCqZChQpv7IOK1RiEzvDCt5o8z8YQqJiAiWU+XZv+AE9brlG0LgcIJd/zBUba/Za56IQdzt1ilFDWab8ukuZZwW6NW/Ot8pkki0l5wvMek80YbTt99PRF1aQ9ZVSz00e9zV+ciTl/JONQQeviRZeUs701p48ICBRFUboChIPhDYq9CrwLvAoaYPken1NDE0u7/bPDMk5ejMqJyouO90kamaKaVNOyPS3zl+/plF0ZIHx+0AYIb53on+ppgGAwGAzSRpkq5yVSfGZ7sZY5dOgLCSgHCNV6BsEbm8v8Nxkt0Q3d0A2tccQhINgfEQWD3Wd/Di+cwauWM/Xab1uEoeXeXRYQWmE3dqMVViEVA7FI87kPwhcqlqE9Uuw+XZv+m+UB6d9gwPcOAaEkD9pf5Y82eMly45Jz6yCUuj9LPmMdrFxhjawTEPj28kwHMkaXP31kHR20aSdOHx3vn33yYlRO3+I56WdPxO9MW1v+9BEBgaIoSleA8E50n4ySbn5YwrjY7VubFkrU8Y1zD2zcXpo+vDb653jv4uX5uxMHZo+LPxjepGjnlrh1I+IdAcLQxLEXjm46sbEEELZtbVT80ZFjG9864VmAYDBYZjgKk1SZIz1Z08q501NSpHPNASEWBpwq899HeN7u2LuwokzK/oiygKCiNX7GB3iiAkCwf7cjQJhhOWKoBhCi0RAt0Qo3oAF+sft0bfo/GAsVKtagLX5B70oAwfarVESjI76sNiBIV0nhY6CV1s7OyjT53dMBP2N0JaePNOnJMSPiHZ4+WrvqtzYF0fGHrwbm33X1/JGE7ZWdPiIgUBRF6QoQbsmYHFPSZX94pN2VVNP8/T3MzQp7ZS7fo9qlg37rlNOi8Mns3blReW+YWxV2zxkX6wgQft7ZIdc7P+CQ9TE0v0MdclvkD0nyPECwhBq3SJAkS7gyhjN5l3HGT76vCSB4YyuOYwIeKfffIbTCcpzHOhyAChVP4FXE4KwmZX+EDRAOwh9bYUQznEQkmmMuzuA77CkTnNu/2xEgfI4hSMQ6eON/UPE+xkCFH+6xfMtTeM3u07XpfWiJcJzHSEzGcTTDb0jAWIeAYP0tmxCGGNyO/1UfEH5UPmb9qxTr0yTEeJene5Ex2onTRwc2bg/f5lWwctepDfemjI09GN6kaNfWcxGjMnsVHMr/+krbwvNHErc4c/qIgEBRFKUrQKj+Qj7WZxSsDzM7/05PBASDwWAIbiYT5ZCcUaYFtGOds2q2l8TIX6sPCCNxF/6/vXuPk6qu/zi+sipiKpgmNy9cRLyLoD81EUoxU3+kpvQzewSWiJoX6mdF9rP8nAUSL2mQ/RQF0c3rYioSmaKiiaGGP83EWyICyp0FDlpegNfvj50dZnaHywKLs7uv5/mDw9nvmfnOzJmZ73vO93y/u3BqZhSj3P9V8gD705yDeYRKKnmKPWnJrXlruSXWBoRJ7EtzDqKCSiqp4ABacDCP1Gqc5+5dKCDM4wR25RR+yXFUMpBjqeRwhmS7MLVlac6tV+atj6ETLfkWc6jkSnajK+cXDAjVj2Us7WnBqXxQx4AQ/eP1Uc09/gqEgz2SITEzpseg677gs1FSsvyEOvx89OGOn/b5YMbz77z+g49a0XH1Wek+/1r0WF1+PjIgSFIDDwibHhSaakCoUtYjRkdllEc3j7vMM3JQLMyd23djAoLLps6knGkEHxELhx7gsbeOd2dF2bE+F2sDwsZ9Eyx+dO60t975x9KXVv19+VvvzHlx0Z838TvFgCBJjSEgVC8Lnpz1yhtzX/nXK/9+4/13/77gKQPCusUeyZCY5cXL2efjP2P+2ohgQKjvgFB2ZMxPTvW4yzsGd4lB8fd4Mxni4MR1CwiLHp89vWpMotcW//OtudOWTtrM7xIDgiQ1poBQKyh8/PoHM/8x/+mlfzQgFGyQNKseHWXYPj4b8Z+xoLrJakCo34AQ34gFcYrH3FrV5w2ij1cIbXxAmPf0u39/Y+4rH738yYz5M1+b95fKP26h7xADgiQ1xoCQ2/Wo+neld15//7m1vysZENYa2sWLlzONtGNidlx7QwsDQn0GhNgxfh2zyo7ynZcJSzsk/WJqvB8Re/hsbExAWDrp/efeeX3Ggpc/eeWjN+a++/d5T2/x7w4DgiQ15oCw9gT0nBffeufvy//vs38sfeududOWTjIg1GykRP94Od5u6p0bYve4L2YlZxoQ6isgJP8Vs+Meu9Bkjrf9MuG8X0Wpz8aGAsLiR+dO++dbry3+v89eTd+YPevlhU/U23eGAUGSmkJAqH0J2wuLY0TSd0RLn/dcZT1idCyK0XFok260fSX+dttnBoT6CAi3fRYvRC/faSUlsX3SLybHvBjh3CQbfK7aPV5WdSb4H0s369JjA4IkNTzLvrnse1trWXjhi1cmQ2JyrIzpMTLp5++ZOV/GbeLKmBtPx7di+6b7LIxdZECoj4AwdpHvsJKSYe0jYmFMTfqN3s5nY10qSssOikFRHrNi/t3T8ruIGhAkSfXZGN62rEcyJCbG0pgRo6N/7OlzUvW8JGfGEzE/rh7auWk+A3Yxqv9hTpui0dslZ8ajsSiuH9rFz5l1fPrsGD2TITExKmNmlMegsoNKtmHbRTttzYVtfR0kSSUVpWU9ksFREUurvpI86V9Skpl5eUFMboq/cxoQDAhb/P20X1wT82NK8p3YwU+X2oa3TvrGiJgaH2bO6+7ucyJJKpYv8U4xKMpjTsyLiqrfrpr481HVU3p+jIhOBgQXA8KmGNU88y4aGQf7GVvgM7d/jI4ZsSImR0Qf52WRJBX7l9a7MT8qksFlPaJZU342hnZpaucSDAgGhC303jkgRsTCpnkebr2fsNtmztouinl+xkqSGtrXWLukX/WvW8mQ6Nl0v+RzRl1pAucSxix7kqlFsTzJn4qkJoWWJ+pUuycZs6zpvGOu2Tn6x+R4P0YM7egnac6z0iciJsfKzHVfHXxOJEkNVqZ/7PRIq06Dj2reRGPCfk3j99Bxq55lelEsD3J/kdSk0PJQnWr3LONWNY33SVmPGB3LY3LSL7zcde1PLSNjeqQxNUYkfa/e1edEktRoXLNz9IkRMTWWV33NxS5N7znI9Kie15h/GR23qpLi8BcmU7ym8lgdSlc2gYAwomUMqppycHhrPy+zQ5W+GwtiYjIkejbVn1YkSU0kKCQnx69iaqyM5+LqOKXpBYWhXRvzuQQDggGh7sp6xOiojIro0+QHN6geqnTp2qFK/daQJDUZN7SIryRXxROxIl6OUfGt4W2b0qPPnEv4oPHNBpsfEI5hVo2m7i2fW0D4Gzdt1u1V1Xwxu+Vsa7lFAsIUSmjJYdwPTKE38CkH8XSTCAjRJhkcr8XryZCmPTjn8LbJmXFDPB8fxV/juuS0X33J7whJUhOWOZWeMyZH0/nFbGjXGBGLGld/6/yA8BarazSMW35uAeEyTt6s22tZjwGhN2t4jpa8lwkIw/l+oz+DEM2iT1TEiqiIPk330y8OjR/E7+PdWBIT42fRy6FKJUnKbzBUj+q9sKrPbWzfFB71DS2SAfHXmJtc1Thmo84NCD+nlMWM51ucyL48CPySZhzEPZ9DQPiU0zmbuQBcTRc6UZ6ztprL6MShTGMcg7NN/0I1rw4Io2hPN7bfYgEB4GimMIXezGQfljbqgDCsfTIkZsX0GHTNzk3ys26n3I5EDlUqSdIGDW+bO2pH05j+p+yQuCmWxh/j9IZ+XUL+GYR9WMx4erGKFznicz2D8CC/5k6uByZwFCv5mIU5a3dzMqt5ni41AkLtmlcFhBfoymKW0GILBYRerOIpdmUhU+jN1/l5o70GYVTzOCsejcUxsuyQJhgMqkYkmhofVc15bEciSZLqKDvu94eZL9PdGnnjYYfMGEcNetbYQgFhALCCtp9rQDiNd1nMUcAFjM1sW7s2kDsBaM+IvIBQu+ZVAWEI123RLkal7MiB/AGYwo58jfZ82AgDQtlhMTIWxRNxTuzQpGLBtpkRiWbF/MzZ0Sb1+CVJqo+v1+pxPZZVjevRuCdPysy9PD0GXfeFxhQQVtL6cwwIi2nFURzFLrzDQO7IxoLqtfO4C4C2XFsrIOTXvCogXMLILXwNwtr11ixnAEmjCggjWsagmBpzm8ZkgdlPrl1ypjZzRCJJkupDdmTwOY39cuaK0ugTFbEkRkf3xhYQvsgCVm31gDCS/wFgBMO4i158xMf8M2dtHP2AZ+jKn/gG8Co71QoIVTWvCgh3czQrWcGO9RAQegPvswcLGkVAiGbRJ8qjMiqSvhWlTSQY1JjaLL7op7ckSfX/BVx9OfPymNx4pxCKdsmQmBkzkiENqXPVhgLC9bTmO1s9IHTPrD/HwazhctrTiZty1j5jEPvRjRf5lK/Tk0sKnEGoqnlVQFjF+XyJE9ihngICXMmgBh8Qhu2VDIl3G9oRvKlGb1fWIxm8djy2pjLMgiRJxdaEbpP0jRFrf6kb0bLRPcLs768NZQopJ0pzorTs9TRLY3TZ4Y39U2h466Rv5lqpGTE6+je2mU0kSWqozeidspczz4jRjW9skGgVg+KVeCsZMry1AcGAUNzKesTIzOwejfoX9Ox5zBUxOSL6xI5+EkuSVIxf2duW9UiGxMSorLqcueygxvToynrE6Fhe7NOqGRCabkCINsngeCXeihi2T2P9jLnuC9kZDDJXQjmDgSRJDUJFadnhcVmMj/kxJ+5KLoqDG8uX+DU7R/+YHO8X72gwBoSmGBAyl9WvaDhd4eocftolfWOEMxhIktQIDO2SfC/GxdtRGX9Mrig7rnGMP152SIyMxfHnOKv4OnEYEJpaQIj9qwfmjZ0a2+fH6O3KjkoGx/3xfsyPP8R/lx3jhceSJDUaw1tnfv/7sLH8/hc7JN+OJ2Jh3FhcM9IaEJpOQIhWcWE8H+/H8KFdGtfnRbSJ0+PaeDZWxivxu+S7Qzv7GSpJUqOVnXRtafYqhQbdISL2TIbEuzE9GVwsA0kaEJpCQKgoTU6Ke2JZ3J+c3HhmN6goLTso98LjpO/Vu/qZKUlSk5GddG1mLIiJDXsuheIaCtWA0NgDQuwXEbNiRjIkdm8kPxtUzXicmavdC48lSWrysrOermzYs55GqxgUL8XcGDG0owHBgFBPDen+MTnmxcjo1ije+2sHKp0aI5K+TWE6N0mSVJfGwk6ZXxErM9MddWqIj6LsoBgRC2Ny9L+hhQHBgLDF3h3NomeMjqUxMek3eruG/U6/ZmcHKpUkSXVrCm2b6Xw0p6E2H0Y1T/rFxFgSo6O7AcGAsLmG7ZUMiZkxIxkSezTod3an6B8jM/OuO1CpJEnapAZFdeejTAeEES0bVO2rLl/e6j3FxzDapR6WMWz9Y+iGFkm/mBxLP5+ouWVc94XomQyOilgU86quNnKgUkmStPlN7apLGCfHh1Wdj4bt1WBqXtUxpDIqkr5ba6yZcavmkhbF8iSPFklNCi1T+FMdSs/dymcQMkfO8pjcULsUZeJ9ZmKz6N9453aWJEmfo9HblfVIBkdFLKnufNQwhkiNLyaXxssxK7lqazSSDAgNPSAM7RgRs+KV+GHD64STeY+Wx+zs+YId/OSSJElbo8ldPfrJ8pgcEX0aQiMkusdvY0k8nny7fmtbPwFhRR23GxA26RjZKc6Np2NRjCw7vIG9I9tlJ0KcEaOjf9lBfkpJkqTPxfC2mWbJR5n5mYt8mMScy5d7Fk9AKOecDZQYwiJmcQitOIvFPMKe7Mp3WcYyLt/IgDCJnqSkvMZeBoSCynpUdylqOH30swMKvBsLYmJE9Pm8xu6SJEmq4bovZAZOXJadn7mIDWufDIl3YkYypC5dSK7ZOTlzywWEFRsZEFaQMoWLMo37JRzFbfyex1nMYYwn5fL1nCXYlICwogkGhGF7VR8Pw1s3kGDQJukbEZNjZcxoDPOhS5KkRiw7P/N7xT5iSvby5YlJv9h2Y/ZIzo8H6xoQevIIKZPpzQwOpRUnMI9JfJkzOImUoDMduJVyjqQ77ZlAWrDcedybub0lHM3E7G0/QMoEvrMJAeEx9mYvxpFyBR3Yl1tJs/dXzjf5Kp24O6825ZxCLzpyCb3ozKS8PYspIMT36xJOc0Yp6tmA3l2Zrn1J32jlZ44kSWowskOkppn5mYuyKZOZGfeDGBH7brDsX5O+dQ0IoxlAyiBup5JppJzDDUxiN+aQch9HMJ/FzKSc7ixgAkeQFiiX0oEXM7e3N30ya/+gLQtJmUHrTQgI3yNhCf+kgrOoZA4dmJm9v3KOZRlPc3hebco5jpR7OIzljKdP3p5FFRCSuHHjXvuG06UoM4rYxFiePT/n+QJJktSAg0L1EKkrM0OkFuFgi0MPiBGxMKbHoNhpnWW6xvyNG+4yNyAsZG8W0oXFrOBKjqAjP2QSXyMl5fv8Lq+L0TzakBYot4JteSN7e1/lt6SkfJMRpKTMoYRFdQ4Ij7AnN7OCgexPT3rSlWnZ+6uqzQc1alO19TFOImU6h+ftWUwBYWjHWLShBn/D6FJUUVp2UGYogMw8JPFFP08kSVJjCgrbZoZIXVyc8zNXlEafqIilUR59Cv0+G9fGiI27pfxrEPoziAtJuYnTWMKNXMokTiUlZQC35AWE+exRsFxuQEgZxVmkTKArlaSkzKaExRsRECZzBCkp09k3ExR6cxnnMionQpy6ntrkB4RueXsW1zUI8Uycvq6/NYQuRdfsnLmeZ2nMjPKGOJO5JElSXaNCp+zvokU3ROrwtsngeDXerPnbcmwbHww9YFMCwmS2YRopgxlOyiAuyDbEx3AsC1nMK3lN8trlUtoznZTZPMMyzuKnLGFfJmT+9jqtNqqL0XvsxATmcz79SHmZ+VRwDHfQnfksYfo6AsLa2tQMCLl7FllA+H48VGBrzsRnxdmlKDpF/2ynvJFJv4Y3B4MkSdLmNojaZEdunx4jk36xe7HUbG3v9OpORfGNmLqxe9ccxejbpKS8REcO40q65ZwZuJR2dOD6vCZ57XIpZ/IQKX/lQFpxKnMJSiillENIeSxbakPzINzOPuxIH94m5de0YU/uI+VHtGN/frOOgLC2NjUDQu6eRRYQdopl+fGumLsUxU6Z8wWZM2vFe1m/JEnSVpMdIrWymC7BzHRGmRcj49CSkngoOW+dTbzdy45JvptcGj9L/icuiXNuX72lJ0p7gCvW+beh/N6J0mq+Incmg/NexSLsUpS5iD8zg0j0j739JJAkSaqhojS6J5fGffF+zIvx8cP4j40bfrRem3H7RcTs+Ht8dGPbWn9rEwPj9zE7KuOF+H2MjKtjWPw27r2dLT+T8iCWrmPWgoHrmbmgkQWE1XFnTIxn4qmYEHfGz5Mzo8M6XrXj4+Xi7FIUO0av+FlMiEUxJ+5LBsd/bNyF75IkSU1crSFSP9fRW6JZckvMihVRUX358oiWycXxTCyNu5PzYr+a5es+k/KGl4UsKbh9OfM3ciblRhAQ1sS58Z/RK76S9I1z4+p4MD6I9+KOOL3mVSzD9kkqr5pbTF2KhnZMvhO/jenxYfw1boizhrX3XS5JkrQpTfPq/tnLP9/5mWNG2XFX7xqD4uWYHTfFPVEZ9ySnjmpeuHR9BIRNWxp/F6OhXZOL4smojDvLjikpyelS9FLc/fkfv6O3K+uRDK6eNjAi+tzQwne1JEnSFpAzP/P8rT8/cxwdb1dfFVHWIyYnnybPRP91N/UMCFv7GoThrZMfxdvxdlRUdyka2jkWfn6dd6Jd9vL7GTE6+n9ewVaSJKkJqNn56Opdt8J9jk6uyGmMto3KGFh14WvZ4QaEYggIw/ZKhsTMWBkTY4/sq/ZMctrWPTaz5wtmxXzPF0iSJG1l1+ycPz9z/f1GGzvG0vwe4/HbuCbTKH03ZiRDag7PakDYegFh7ShFw/rG4ty4WHg2hHoKrZ4vkCRJKhaxbabz0eyYVz+dj6J/TMrfMqx9LB62T0lJSUk0iz5RHpVRkfStKDUgbM2AUHOUohgbQ2tEyGX1OdVYZmbw8ni3+nxB7Oj7UZIkqZiiQj11PoopyZk1tyW/iPtySrSKQfFSzI0R0cmAsDUCQqZL0YxkSHWXouge80a0rPHKlVfPhrCFj7Oq8wVrz11t47tPkiSpmIPCLvmdj4Z23JxbG9o5Fsb2JSVDD4hBa7fe0CJmJSfmlyw7KEbEwpgagwwI9RcQciY+657z5G8TU2tPZBfHx8tb7KiqPlM1M5bHZM8XSJIkNcSgUNUFpCIWxryoSAZHz00Z1Sb2Tb5dUlJSkvwoflej8Tmn9jmK2CHOjsfGrnmAh4tiuZPbi6Qmm1+7Bxi7JspjWTwU36j5SsYP4vlolvP/70efkpJoFu+VHbZ5R9HwtknfbNwsmlm+JUmStHlRoVP0z5t2rdUm3MYDcU6NLSPj/sKNxXGrn2V6USwPcn+R1KTQ8lCdavcs49bEZTUvCC8pKSmJ/WNR/nR1yU9iZElJSUlyQrTbxHBZdb5gRtX5gk07ZiRJklTsQaFG56PoUId951VdlpyzZYeYFlcWDAirKikOf2EyxWsqj9WhdOU6hjmNneKV5IIa23rGi5t0hLTxfIEkSVJTDArVnY8WVXU+KuuR2z2l4B6d4v1CzcmYnXwnP4L86ksjWtZPQFizCSUaf0CIZvFw3F5z6w0t4sONv0bA8wWSJEla2/DvH6NjRqxY/4WnyXfj/oL7HxjvJwPKjolfxkMxKz6NNBZF5TjqGhDGM2ADJX7BvzNrDzAG+B9a0Y03c9ZWccV6A8IUSmjJYdy/RRr3LYEp9AZgGbtt0qOqc0BYnZyW9Ev6lh1TPS9FNItb4qlC15bEi9Fzg6++5wskSZK0jqbiHpmmYmaqq9i7xt9vicsK7Vd2TPLAVatjXoyIs4Z2rp6BYePOIKzZyKb0GuAFBmf+N4tW3MY0uvMhY/lazhpcwTPrDQi9WcNztOS9LXAW4/MICHesiQejIibGtFgQC+NPyeXxh5gSOxV8RUcmP1nHa732fMGKqvMFW2M2bkmSJDVIo7fLdD5anN/5KP5R1qNmMzP6x6vxZvz46sNjakwY3nbt33IDQm+eAJ7jeN6jG7tyEilTOI5+nApcTRc6Uc54juZI9mQyFCx3IQ8D8Clf5hhu4yfcAHzEzjlrMJlzNxAQAI7mjuw9PEsH9uG+7L/H8hfgZ8wHLuNuVnMZnTiUaTl1GUV7urF9rYDwXq1bzX1UW7qLUbQr6x8fxL/j1eTimvMflJSUlMTZ8WD+luGtMyHwo5hZdb5gQx3LJEmSpLUNzJzOR8mI+OianXP+1iwZEO/EU8kJVV1SYvsYFouSwTe0qB0Q7mQgcDH38BmvAgP4X6awO5XABI5iJR+zkPEcyYdM5igoUA46MQOAyxnK5dzG2ZmOQjtwRnbtY96jzXoDQi9W8RS78kH2HgYxgk+Yn/331/yU1bTjWqAzy7mbk1nN83TJ1uUFurKYJbQAplBKS1qyC7vl1bv61nIf1ZYOCMmZMTeiX2kcH/dFZfx6eOv812/YPjGvpKSkpKK07KDsK1k1htUXPbolSZK0yYa3TvpeNT6WxYcxPUYm/WKPODpejKk1e7jH/vFwzI8YekB+QPiIDvyLrnzMGoZyFJ35KVM4BYALGJvXGSelLRQot4ZtmQtM4kRWczm30Y97AdiRM7Nrq6mkJHulQqGAUMqOHMgfcu7hCfZiHGuy/77LQTzOtzmCFzkJGMidALTnvkxdhnDdOroY1b7V3Ee1JQNC9IrH4+9rX4FoF7+JJXFt7LL29RjRMpbEb2JiLIuZUb4xF6JLkiRJGymGRxI7Rs9kcFREZaxJno8flvWofUFr7B+jYna8NW5N7jUI53EJlwFjOJNPuJnLmcJpAAzkjryAsJLWBctVB4Rj6EhXvkgbTuc6YCl7cnF2DZZSwscb7GKUew8wi+P5cc6/3ejFi5zL8YwGzuMuANpyf6YulzByHQGh9q3mPqotExDiwPhpTI83k/Nj2xpBrm3cFh/EuXFw9fmCZEk8kvT91W4ev5IkSdrSAeHp+Fr1+qjm8dZVN+eOfFTdsaha2SHjVucGhOfYhleBn3A9cDGXZhv+d9GLj/iYf+Y1pWuXgz15I3t7l3Mbd3EE/+IafpCzBnPYdSOuQci9h7dZyUR6Zv+FhEOBqTRjATCOfsAzdM3W5W6OZiUr2LFWQKh9q1s8IBAz46bkxNrnAqpmuEieTdbE7OrzBfHjGOWxK0mSpC0fD7aPlbmdV8p6xIJokxkkc0RMre589KsvVZeoOYpRfwDepDPdGUqPnDMDl9OeTtyU15SuXQ7+iz/nBYRPGciuHMm8nDV4Nlt+/QFh7T38jrbszYTsv/AqowA4H4DPGMR+dOPFbF1WcT5f4gR2qBUQat/qlg4Id9SYB6HW9QW3xIsVpdnX6dj4m0evJEmStriyo+Ll/C3JVfHU2i4u130heiZDYmIsrR4dZ8tPlDaJ2IhS1/JAk5goLTMj9sSozL2+YGjXWDS0S06w2yE+rHl2R5IkSdps8d9xU40tzeLPcU3NchWlZYclF8fdMTv/GoQt42I+3eAcBRfVmku5cQWEO1YlF8Qd8WasiMlRlpycO39B7BSvxcAar9PzZcd5/EqSJGlLB4Q/JN+uue1Xu8XMZMC69rhj1ZYPCP/ikw2UWM3K9c6k3AjOIKyJcTGo7JC13Yiyton749Zar9yN8VOPX0mSJG3pgLCg5rzKJSUlJUO7xrykb+E9xtVDQNg0jbOLUYHX6Jp4blTzmluT/4qHPH4lSZK0RQ3bJ94r/JeyI2NhcpoB4fMPCMmQ+Eeh6c9i75jvESxJkqQtLLZf11/KesS8mv3eDQhbOyBExNvRbh2v3dvD23oES5IkaasZ2iXejNtqjpVjQNhaAWFU87gtXow91vkCbeMxKkmSpK0qdorfx+txvAFh6weE2C9eigdiJ49CSZIkFVdIOD3ejQfLjjIgbL2AEDsmV8Xi5AKPPkmSJBVjRNghLot34sX4adlB0cyAUM8Tpe0eP4u5ce+wvTzyJEmSVLwhoVlyYtwU78SHd6wxINTPRGnx5bgs/hzLYkx084iTJElSg3DNzmMY7VIPyxhiWtySnOFVB5IkSWpQxq2aS1oUy5M8WiQ1KbRM4U91KD13PROlSZIkSQYEA4IkSZLUdAPCik0oYUCQJEmSGmBAKOecDZQYwiKmUsou7ML1pPyElhzKSzlry7h8vQHhGUrYjn24pUaZe9mXiza6du0oZRuaUcohdai9AUGSJEkGhDr83r++JvYKUqZwESlTOTrb8D+MBfyO43PWUi6vdb4gPyAcxgqeYGfezStzIK9v4CxFzdp9nxvrGG8MCJIkSTIgkJLSk0dImUxvZnAorTiBeUziy5zBSaQEnenArZRzJN1pzwTSguXO415SprILX+JY3mIwV5OykJ1y1lIm8J31BoRupKTszxRSrqAD+3IrA2nGnszIua/qv6Q8xt7sxbi82lUHhOVcSAcO5slsQDiJm/L2LuebfJVO3G1AkCRJkgGhulk7mgGkDOJ2KplGyjncwCR2Yw4p93EE81nMTMrpzgImcARpgXIpHXiRlHcpZxFncCFncQcpKTvQN7u2mBm03mBAeJYv8j4VnEUlc+jATPZgPmn2vnL/8j0SlvDPvNpVB4SxnMhynqJzJiBcQ78ae5dzLMt4msMNCJIkSTIgVDdrF7I3C+nCYlZwJUfQkR8yia9lGtq/y+ukM482pAXKrWBb3si5ZqAXZ3A7KSktOC27tpw5lLBoPQGhGbvQnD+QMpD96UlPujItGxCq7iv3L4+wJzezIq921QFhAKMz1yS8QzndaM5jNfau2uuD7F4GBEmSJBkQSOnPIC4k5SZOYwk3cimTOJWUlAHZC4arGtPz2aNgufyAcBdfZxDDSJlN+5y1lNmUsHi9ZxCWcTh3kXIuo7LbqwNC1X3l/iXlNXpzWV7tqgNCf8aQktKGmZTThpvoXWPvmnsZECRJkmRAIGUy2zCNlMEMJ2UQF2Qb42M4loUs5pW8xnTtcintmU7KBzxMJafzC8ZwOAsp4/yctZTXabXBLkbPsSdzuYPuzGcJ02sFhNy/vMx8KjimYEC4mTNIeZQu2ShwIhV5exsQJEmSpAIBIeXbpKS8REcO40q65ZwZuJR2dOD6vMZ07XIpZ/IQKS9zIC35BvNYygBa0Z23c9ZSHsuWX99FypfzXVJ+RDv25ze1AkLuX35NG/bkvoIBoZLvsS+H8nQ2CrzAgVTm7G1AkCRJkgoGhM1fHuCKjSg1lN87UZokSZLU+ANCyiCWbnBehYG15jEwIEiSJEmNMiAsZMkGSixn/npnUjYgSJIkSY0mIGzaYkCQJEmSDAgGBEmSJMmAYECQJEmSDAgGBEmSJMmAYECQJEmSDAgGBEmSJMmAYEAwIEiSJKmBGrv6AR4uiuVObi+Smmx+7R5g7GqPLUmSJDVA41Y/y/SiWB7k/iKpSaHloTrV7lnGGRAkSZLUIAPCqkqKw1+YTPGaymN1KF1pFyNJkiQZEAwIBgRJkiQ1woDQssb/bynQBK7edgyz6iEgtKeUbWhGKYdlt41nwAZv4zWOoTl78+IGS96yzr+0NCBIkiTJgLC+JnLL9TSj32J1PZ1BuICb8/6/4YDwCR0Zxb94lw8zW9bUMQYYECRJkmRAyGnYjqI93dgeeI9u7MpJpPySZhzEPUDQif0oh+y2n1PKYsbzDb5KZ/6br9KFKXklNy8grOYyOnEo07IB4VTG5N3+eL7FiezLg8DdnJDdewrH0Y9T88qu/zHlPnoDgiRJkgwIvEBXFrOEFsBnvAoM4H+zv6lP5Gw+o5JOLMz5nX0fFjOerwAPcTir+SNfr1FycwLC3ZzMap6nSyYg/IZzatRkPL1YxYscAVzBL3MCwu5U1ii7/seU++gNCJIkSTIgMITrsp1s1jCUo+jMT7ON6Ys4kN705gBerRUQBgDPcirwBkfUKLk5AWEgd2auSVjAeHrQnGdr1KTqvlfQFhhCWU5AOKVWrdf/mHIfvQFBkiRJBgQuYWS2iTyGM/mEm7k822Q+n1sL9NSvHRB61Ci5OQHhPO4CoC0LGU9bxnB8jZpU3fdKWgNjM6GgKiCcVqvW639MuY/egCBJkiQDAndzNCtZwY7AT7geuJhLgS+ygFXcz5Gs5BPegOy2wgEhv+TmBIRx9AOeoWs2CpzMxLzbzw0IK9md37GCP/NwNiDkll3/Y8p99AYESZIkGRBYxfl8iRPYAXiTznRnKD2A62nNd4AhtOfAzACh1dsKBYT8kpsTED5jEPvRjRezUeA1DuaznNvPDQgwlUNowdH8LRsQcuuy/seU++gNCJIkSTIgOFGaE6VJkiTJgGBAMCBIkiRJBgQDgiRJkmRAMCBIkiRJBgQDgiRJkmRAMCBIkiRJBgQDgiRJkmRAMCBIkiRJBgQDgiRJkmRAMCBIkiRJBgQDgiRJklRfxjDapR6WMXhsSZIkqQEat2ouaVEsT/JokdSk0DKFP9Wh9FzPIEiSJMmAYEAwIEiSJMmAYEAwIEiSJKkxB4Rdavz/NwWawNXb/oPX6iEgtKOUbWhGKYdkt5VzzgZuYRIllFJKKW+uo8Sm19aAIEmSJAPCOv6fu+3/WF5PZxC+z415/9+YgNBzAyXW1naFAUGSJEnaUEC4jnYcyvakzOBQWnEC8/gZzTiA20m5gg7sy62k2W0/ppRZlHMKvejIJfSiM5PySm5eQFjOhXTgYJ7MBoSTuCnv9sv5Jl+lE3fnBYRfcAEpVzCYcjpyHPszljRT20l8mTM4Ke9WHmNv9mKcAUGSJEkGhLk5jeAuzOI9WpBSyTRSzuGG7NmCCs6ikjl0YGbOGYS9mEU5x5FyD4exnPH0qVFycwLCWE5kOU/RORMQrqFfjZqUcyzLeJrDSZlEKbuwCy+zhAMYx8EsopzTSXmb1szK1HYSuzGnxq18j4Ql/NOAIEmSJAPC2oDwI4Zluw+t4EqOoCM/zIaBgexPT3rSlWm1AsI5pDzGSaRM5/AaJTcnIAxgdOaahHcopxvNeaxGTaru+wPa1OhiNIFmPJHTMekEJmQDwtdqPZ5H2JOb19vtyIAgSZKkJhcQBnFtNiDcxGks4UYuzYaBcxlV4BqE2gGhW42SmxMQ+jOGlJQ2zKScNtxE7xo1qbrv+exRIyDcxnbcmxMQejExGxBOLfB4XqM3lxkQJEmSZEBYGxDGciTz+YAWpAxmOCmDuICUXXmHZdxBd+azhOmk2W2FA0J+yc0JCDdzBimP0iXb1D+RirzbLxwQZrMPj2e6IH2DlL+yG3NrBITcW3mZ+VRwjAFBkiRJBoS1AWEZ57I7X2EHUl6iI4dxJd1IGc4efIuUH9GO/TMDnFZvKxQQ8ktuTkCo5Hvsy6E8nY0CL3AglTm3nx8Qqoc5PYOElBs4mXLa0ZEO3JM931EdEHJr+WvasCf3GRAkSZJkQGjcE6VteHBUhzmVJEmSDAgGBEmSJKnpBYQttRgQJEmSZEAwIBgQJEmSZEAwIBgQJEmSZEAwIBgQJEmSZEAwIBgQJEmSJAOCAUGSJEkyIBgQJEmSJAOCAUGSJEnasLGrH+Dholju5PYiqcnm1+4Bxq722JIkSVIDNG71s0wviuVB7i+SmhRaHqpT7Z5lnAFBkiRJDTIgrKqkOPyFyRSvqTxWh9KVdjGSJEmSAWGtNXXcbkCQJEmSGmhAGM+ADZT4Bf9mMYexK2fzMfA/tKIbb7KKKzY6IPyFA2jO0by8nj1uKXgrufs9zH4MZgol7MC+3LmO21nMbjn/a2lAkCRJkgFh488IrC8grAFeYDAAs/iEL/N7ptGdDxnL14AreGajAsJK2jKBFfwvHfh0nXvUbsrX3O9gZgNT6M0aptNhHfduQJAkSZIKBITePAE8x/G8Rzd25SRSpnAc/TgVuJoudKKc8RzNkezJZChY7kIeztzeJxzLk/yEG4CP2BmYzLkbFRDGcnZm7WgmMS4TOVoCq7mMThzKNH5JMw7iHiDoxH6U19rvIpqxN+8xhd4A3MqZOTU+jr8Bb9AjGxBG0Z5ubG9AkCRJkgEB4E4GAhdzD5/xKjCA/2UKu1MJTOAoVvIxCxnPkXzIZI6CAuWgEzMyt9eBrwNncz8AO/Ax79FmowLCTxmeWRvIqLyAcDcns5rn6ZL9rX8iZ/MZlXRiYY39oDUrM2cQAJ7j0Jwaj+aHwHCuyQSEF+jKYpbQwoAgSZIkAwLAR3TgX3TlY9YwlKPozE+ZwikAXMDYvC5GKW2hQLk1bMvcTMl/cSK30Y97AdiR1VRSwr83IiD8jCSzNoAb8wLCwMyVBO1ZkAkIF3EgvenNAbyas9+5/K5WQHicw3NqvIwOrOYIZmUCwhCus4uRJEmSDAi51yCcxyVcBozhTD7hZi5nCqdlfpG/Iy8grKR1wXK5AQFu5dtczHXAUvYEllLCxxsREMbxn5m1g5nEHTkB4TzuAqAtCzNN+fO5tcB+h/B4rYDwC/rn1BjO5HaOyl6DcAkjDQiSJEkyIOQGhOfYhleBn3A9cDGXZhv+d9GLj/iYf+YFhNrlYE/eAJbyN1ZxNldyF0fwL67hB8Acdt3Ii5R3516W8Sv24d/8iW8Ar7ITMI5+wDN0Bb7IAlZxP0eykk94I2e/EezLqpyA0IvPeJRWTMupMTxIS67PBoS7OZqVrGBHA4IkSZIMCNX6A/AmnenOUHrknBm4nPZ04qa8gFC7HPwXfwb+zsHsymks41MGsitHMg94NltqQ8OcPkVXtqOE+4BP+To9uYSWwGcMYj+68SJwPa35DjCE9hyYGfT0KbqyPcfwD8gJCCVsTzcezqsxfEQps7MBYRXn8yVOYAcDgiRJkgwIW84kYp1/u5YH6jRR2jg60Jxf1dPkZ89znBOlSZIkSfUbEODidcxdsIaL1jOX8rpmUl7GynqJB3dzGK8YECRJkqT6Dgj/4pOC21evt6m/roBQHAwIkiRJMiBsVQYESZIkyYBgQJAkSZIMCAYESZIkyYBgQJAkSZIMCAYESZIkyYBgQJAkSZIMCAYEA4IkSZIMCAYEA4IkSZIaujGMdqmHZQweW5IkSWqAxq2aS1oUy5M8WiQ1KbRM4U91KD3XMwiSJEkyIBgQDAiSJEkyIBgQDAiSJElqzAFhlxr//02BJnD1tv/gtXoJCH+mK805kqnr2aN2vSZRQimllPLmOvbZ1PoaECRJkmRAWMf/c7f9H8vrISDMpw338QE3sDdL17nHLgUCQs8N3Mva+q4wIEiSJEnrDwjX0Y5D2Z6UGRxKK05gHj+jGQdwOylX0IF9uZU0u+3HlDKLck6hFx25hF50ZlJeyU0LCL/jrMzakTzAzVyUDQTLuZAOHMyTBeu1NiD8ggtIuYLBlNOR49ifsaSZ+k7iy5zBSXl7Psbe7MU4A4IkSZIMCGsbwV2YxXu0IKWSaaScww3ZX+orOItK5tCBmTm/3u/FLMo5jpR7OIzljKdPjZKbEhB+yC8zawO4Li8gjOVElvMUnQvWaxKl7MIuvMwSDmAcB7OIck4n5W1aMytT30nsxpwae36PhCX804AgSZIkA0J1s/ZHDMs2xFdwJUfQkR9mG+ID2Z+e9KQr02oFhHNIeYyTSJnO4TVKbkpA+G9+nlk7hxF5AWEAo0lJacc7BeqV28VoAs14gjRTu5QTmJANCF+rtecj7MnN6+l2ZECQJElSkwsIg7g22xC/idNYwo1cmg0D5zKqQP//2gGhW42SmxIQbubrmbUDeYBbcgJCf8aQktKGmQXqlRsQbmM77s0JCL2YmA0IpxZ4RK/Rm8sMCJIkSTIgVDdrx3Ik8/mAFqQMZjgpg7iAlF15h2XcQXfms4TppNlthQNCfslNu0h5N25nLlexF4v4A6eQMo0vkHIzZ5DyKF0K1mttQJjNPjxOB2ZSzjdI+Su7MbdGQMjd82XmU8ExBgRJkiQZEKqbtcs4l935CjuQ8hIdOYwr6UbKcPbgW6T8iHbsnxlctHpboYCQX3LThjn9I13YjhLGkbKUPhzDIHYhpZLvsS+H8nTBeq0d5vQMElJu4GTKaUdHOnBP9oxHdUDI3fPXtGFP7jMgSJIkyYBQvBOl3czeNOeqzbrd6i5GTpQmSZIkNfCAUNXYnm9AkCRJkgwIxbQYECRJkmRAMCAYECRJkmRAMCAYECRJkmRAMCAYECRJkmRAMCAYECRJkiQDggFBkiRJMiAYECRJkiQDggFBkiRJ2piA8BR/LYplPPcWSU0KLQ/UqXZPGRAkSZLUMI2+b/TTRbL87dbXiqYuBWo3um61u89jS5IkSZIkSZIkSZIkSZIkSZIkSZIkSZIkSZIkSZIkSZIkSZIkSZIkSZIkSZIkSZIkSZIkSZIkSZIkSZIkSZIkSZIkSZIkSZIkSZIkSZIkSZIkSZIkSZIkSRvh/wEV5cn4IoQYBgAAAABJRU5ErkJggg==;" vertex="1" parent="1">
          <mxGeometry x="71" y="180" width="1552" height="720" as="geometry" />
        </mxCell>
      </root>
    </mxGraphModel>
  </diagram>
</mxfile>
